<?xml version="1.0" encoding="UTF-8"?><svg id="a" xmlns="http://www.w3.org/2000/svg" xmlns:xlink="http://www.w3.org/1999/xlink" viewBox="0 0 2825.62 2800"><defs><linearGradient id="b" x1="900.3" y1="341.73" x2="646.68" y2="906.09" gradientTransform="translate(2706.97 -95.07) rotate(164.41) scale(1 -1)" gradientUnits="userSpaceOnUse"><stop offset="0" stop-color="#febbba"/><stop offset="1" stop-color="#ff928e"/></linearGradient><linearGradient id="c" x1="-1945.97" y1="1527.33" x2="-1746.26" y2="1527.33" gradientTransform="translate(4096.67)" xlink:href="#b"/><linearGradient id="d" x1="-2067.16" y1="1542.18" x2="-1951.51" y2="1542.18" gradientTransform="translate(4096.67)" xlink:href="#b"/><linearGradient id="e" x1="-2032.1" y1="785.66" x2="-1961.33" y2="785.66" gradientTransform="translate(4096.67)" xlink:href="#b"/><linearGradient id="f" x1="-1653.15" y1="712.33" x2="-1138.03" y2="747.36" gradientTransform="translate(4096.67)" xlink:href="#b"/><linearGradient id="g" x1="-750.84" y1="760.39" x2="-384.3" y2="1310.21" gradientTransform="translate(2626.57)" xlink:href="#b"/><linearGradient id="h" x1="2285.99" y1="645.46" x2="2041.26" y2="1120.56" gradientTransform="translate(4379.7) rotate(-180) scale(1 -1)" gradientUnits="userSpaceOnUse"><stop offset="0" stop-color="#2b3582"/><stop offset="1" stop-color="#150e42"/></linearGradient></defs><path d="M2452.93,2391.54c-72.58,74.81-137.52,118.79-187.24,151.99-484.93,323.79-1039.25,230.47-1210.64,198.57-276.51-51.46-509.92-87.77-710.46-268.95C-111.1,2061.45-88.94,1202.62,259.26,670.61c41.29-63.08,388.96-578.44,944.49-651.06,13.59-1.78,23.73-2.79,32.6-3.73,85.94-9.1,618.48-57.12,1052.72,306.68,62.16,52.08,162.19,146.01,254.95,289.27,339.18,523.83,340.25,1335.14-91.1,1779.76Z" fill="#e2e2e2"/><g><g><g opacity=".3"><path d="M1742.77,1268.17c5.2-8.18,16.05-10.6,24.23-5.4,15.89,10.1,32.46,19.66,49.25,28.42,8.49,4.43,11.84,14.83,7.6,23.37-.05,.1-.1,.2-.15,.31-4.48,8.59-15.08,11.92-23.68,7.44-17.67-9.22-35.11-19.28-51.84-29.91-7.65-4.86-10.26-14.67-6.31-22.61,.27-.55,.57-1.09,.91-1.61Zm158.09,60.02c17.81,6.38,36.07,12.06,54.27,16.89,9.36,2.48,14.95,12.09,12.47,21.46-2.52,9.4-12.09,14.95-21.46,12.47-19.15-5.07-38.37-11.05-57.11-17.76-9.12-3.27-13.87-13.32-10.6-22.44,.24-.66,.51-1.3,.82-1.92,3.91-7.85,13.16-11.72,21.62-8.69Zm144.93,34.27c18.73,2.25,37.79,3.71,56.66,4.35,9.69,.32,17.28,8.44,16.95,18.13-.34,9.68-8.44,17.27-18.13,16.95-19.87-.67-39.94-2.21-59.67-4.58-9.62-1.16-16.48-9.9-15.33-19.52,.25-2.05,.84-3.98,1.71-5.73,3.21-6.46,10.24-10.51,17.81-9.6Zm148.95,.99c18.79-1.99,37.7-4.83,56.23-8.42,9.52-1.84,18.73,4.38,20.57,13.89,1.83,9.52-4.38,18.72-13.89,20.57-19.51,3.78-39.42,6.76-59.2,8.87-9.64,1.02-18.28-5.96-19.31-15.6-.37-3.45,.29-6.77,1.73-9.66,2.58-5.19,7.67-8.99,13.86-9.65Zm145.46-32.22c17.83-6.1,35.66-13.06,52.97-20.68,8.88-3.9,19.23,.13,23.13,9,3.91,8.88-.13,19.23-9.01,23.13-18.21,8.01-36.97,15.33-55.73,21.75-9.17,3.14-19.15-1.75-22.29-10.92-1.58-4.62-1.13-9.45,.89-13.5,1.99-3.99,5.48-7.23,10.03-8.78Zm134.71-63.6c16.06-9.91,31.9-20.63,47.07-31.87,7.79-5.77,18.78-4.13,24.55,3.65,5.77,7.79,4.14,18.78-3.65,24.55-15.96,11.83-32.64,23.12-49.54,33.55-8.25,5.09-19.06,2.53-24.15-5.72-3.31-5.36-3.38-11.8-.77-17.05,1.41-2.83,3.6-5.32,6.49-7.1Zm333.76-559.76c9.69,.34,17.26,8.47,16.92,18.16-.7,19.84-2.28,39.93-4.69,59.69-1.17,9.62-9.93,16.47-19.55,15.29-9.62-1.17-16.46-9.92-15.29-19.54,2.29-18.76,3.79-37.83,4.45-56.67,.09-2.59,.74-5.02,1.82-7.19,2.97-5.97,9.24-9.98,16.34-9.73Zm-216.58,467.94c13.45-13.23,26.49-27.2,38.75-41.53,6.31-7.36,17.39-8.22,24.75-1.92,7.37,6.31,8.19,17.36,1.92,24.75-12.92,15.09-26.65,29.81-40.82,43.74-6.91,6.79-18.02,6.7-24.82-.21-5.39-5.48-6.45-13.61-3.2-20.12,.84-1.7,1.99-3.28,3.41-4.69Zm197.89-316.12c9.36,2.5,14.93,12.12,12.43,21.49-5.13,19.18-11.15,38.39-17.89,57.11-3.25,9.14-13.34,13.84-22.46,10.56-9.12-3.28-13.84-13.34-10.56-22.46,6.41-17.78,12.13-36.04,17-54.27,.31-1.16,.74-2.26,1.25-3.3,3.64-7.32,12.04-11.31,20.24-9.12Zm-104.18,200.44c10.15-15.89,19.74-32.43,28.51-49.17,4.5-8.59,15.1-11.9,23.69-7.4,8.47,4.44,11.81,14.83,7.57,23.36-.06,.11-.11,.22-.17,.33-9.23,17.62-19.33,35.04-30,51.77-5.22,8.17-16.07,10.57-24.24,5.35-7.63-4.87-10.22-14.66-6.28-22.59,.28-.56,.59-1.1,.92-1.64Z" fill="#b5b5b5"/><path d="M2785.52,594.56c-1.54,3.09-2.19,6.67-1.65,10.35,1.32,8.95,2.47,18.08,3.43,27.14,1.02,9.64,9.66,16.63,19.29,15.61,9.64-1.01,16.64-9.66,15.61-19.3-1-9.52-2.21-19.12-3.6-28.55-1.41-9.59-10.33-16.22-19.91-14.81-5.91,.87-10.7,4.59-13.17,9.56Z" fill="#b5b5b5"/></g><g opacity=".3"><path d="M2507.18,137.59c-3.77,7.58-1.6,16.99,5.51,22.08,7.36,5.26,14.74,10.76,21.91,16.36,7.65,5.96,18.68,4.59,24.63-3.06,5.98-7.68,4.58-18.68-3.06-24.63-7.56-5.89-15.33-11.69-23.08-17.23-7.89-5.64-18.85-3.81-24.48,4.07-.55,.77-1.03,1.58-1.44,2.41Z" fill="#b5b5b5"/><path d="M1513.77,357.67c4.74-8.46,15.43-11.47,23.89-6.73,8.45,4.74,11.46,15.42,6.73,23.89-9.02,16.1-17.49,32.83-25.29,49.92-3.97,8.79-14.44,12.7-23.26,8.68s-12.7-14.43-8.68-23.25c3.38-7.4,6.87-14.72,10.46-21.95,5.13-10.31,10.56-20.59,16.14-30.55Zm-38.46,130.26c9.28,2.79,14.54,12.58,11.74,21.86-5.36,17.82-10.03,36.06-13.87,54.21-1.97,9.48-11.32,15.54-20.8,13.54-9.48-2.01-15.54-11.32-13.53-20.8,4.04-19.11,8.96-38.31,14.6-57.06,.29-.97,.66-1.9,1.1-2.78,3.74-7.52,12.45-11.47,20.77-8.97Zm90.81-210.3c11.78-15.57,24.39-30.85,37.49-45.41,6.48-7.21,17.58-7.8,24.79-1.31,7.2,6.48,7.78,17.57,1.31,24.79-12.44,13.83-24.41,28.33-35.6,43.12-5.85,7.73-16.86,9.25-24.59,3.4-6.84-5.17-8.81-14.39-5.13-21.79,.48-.96,1.05-1.9,1.73-2.79Zm-121.86,357.58c9.67,.69,16.95,9.08,16.26,18.75-1.32,18.53-1.86,37.34-1.61,55.91,.13,9.7-7.61,17.65-17.31,17.78-9.69,.13-17.65-7.62-17.78-17.31-.26-19.55,.31-39.36,1.69-58.87,.17-2.36,.79-4.58,1.78-6.57,3.07-6.18,9.66-10.21,16.97-9.69Zm227.99-469.48c14.91-12.59,30.57-24.71,46.54-36.04,7.91-5.61,18.85-3.75,24.46,4.16,5.61,7.91,3.75,18.86-4.16,24.47-15.17,10.76-30.05,22.28-44.2,34.23-7.41,6.25-18.48,5.32-24.73-2.09-4.66-5.52-5.33-13.07-2.3-19.15,1.04-2.08,2.51-3.99,4.39-5.58Zm128.1-85.92c17.34-9.05,35.27-17.47,53.28-25.03,8.94-3.75,19.22,.45,22.98,9.39,3.75,8.95-.45,19.23-9.39,22.97-17.11,7.18-34.15,15.19-50.63,23.78-8.59,4.48-19.19,1.15-23.68-7.44-2.7-5.18-2.56-11.09-.14-15.94,1.59-3.2,4.18-5.95,7.59-7.73Zm143.78-55.96c18.91-5.06,38.25-9.37,57.46-12.83,9.54-1.71,18.66,4.63,20.38,14.17,1.72,9.55-4.63,18.66-14.17,20.38-18.26,3.28-36.63,7.38-54.6,12.19-9.36,2.5-18.99-3.06-21.49-12.42-1.15-4.3-.6-8.65,1.24-12.35,2.17-4.35,6.12-7.79,11.18-9.14ZM2096.69,.58c19.56-.8,39.38-.77,58.91,.08,9.68,.42,17.19,8.62,16.77,18.3-.42,9.67-8.62,17.18-18.3,16.76-18.54-.81-37.36-.84-55.94-.07-9.68,.4-17.85-7.13-18.25-16.81-.12-3.06,.54-5.96,1.81-8.52,2.76-5.55,8.37-9.46,15-9.73Zm154.03,10.83c19.21,3.52,38.52,7.91,57.4,13.05,9.35,2.55,14.88,12.19,12.33,21.54-2.54,9.32-12.19,14.87-21.54,12.33-17.94-4.88-36.28-9.05-54.52-12.4-9.53-1.74-15.84-10.89-14.09-20.42,.3-1.66,.83-3.22,1.55-4.66,3.4-6.82,11.01-10.88,18.88-9.43Zm147.74,44.34c13.25,5.61,26.49,11.7,39.35,18.1,4.66,2.32,9.27,4.68,13.86,7.09,8.58,4.51,12.11,15.09,7.38,23.69-4.5,8.58-15.11,11.89-23.7,7.38-4.35-2.28-8.75-4.54-13.17-6.74-12.23-6.08-24.81-11.87-37.4-17.21-8.92-3.78-13.09-14.08-9.31-23,.14-.33,.29-.67,.45-.99,4.1-8.24,13.96-11.96,22.55-8.32Z" fill="#b5b5b5"/><path d="M1433.38,795.69c-1.55,3.12-2.2,6.74-1.64,10.44,1.43,9.39,3.08,18.93,4.92,28.36,1.85,9.52,11.06,15.73,20.58,13.88,9.51-1.85,15.73-11.05,13.88-20.58-1.74-8.95-3.31-18.01-4.67-26.93-1.45-9.58-10.4-16.17-19.98-14.71-5.87,.89-10.62,4.6-13.08,9.54Z" fill="#b5b5b5"/></g><g><path d="M1675.5,974.29c1.44,3.19,4.75,5.11,8.23,4.79l99.41-9.23c28.39,36.98,62.88,69.7,102.72,96.43l-2.87,99.73c-.1,3.5,2.03,6.67,5.3,7.91l112.04,42.27c3.27,1.24,6.97,.26,9.21-2.43l63.73-76.77c47.57,6.25,95.08,4.47,140.82-4.54l68.53,72.59c2.4,2.54,6.16,3.28,9.34,1.84l109.11-49.33c3.19-1.44,5.11-4.75,4.79-8.23l-9.23-99.4c36.98-28.39,69.71-62.88,96.43-102.72l99.73,2.87c3.5,.1,6.68-2.03,7.91-5.3l42.27-112.04c1.23-3.27,.26-6.97-2.44-9.21l-76.77-63.73c6.25-47.57,4.47-95.08-4.54-140.82l72.59-68.53c2.54-2.4,3.29-6.15,1.84-9.34l-49.33-109.11c-1.44-3.19-4.75-5.11-8.23-4.79l-99.41,9.23c-28.39-36.98-62.88-69.7-102.72-96.43l2.87-99.73c.1-3.5-2.03-6.68-5.3-7.91l-112.04-42.27c-3.27-1.24-6.97-.26-9.21,2.44l-63.73,76.77c-47.57-6.25-95.08-4.47-140.82,4.54l-68.53-72.59c-2.4-2.54-6.15-3.29-9.34-1.84l-109.11,49.33c-3.19,1.44-5.11,4.75-4.79,8.23l9.23,99.41c-36.98,28.39-69.7,62.88-96.43,102.72l-99.73-2.87c-3.5-.1-6.67,2.03-7.91,5.3l-42.27,112.04c-1.23,3.27-.26,6.97,2.44,9.21l76.76,63.73c-6.25,47.57-4.47,95.08,4.54,140.82l-72.59,68.53c-2.54,2.4-3.28,6.16-1.84,9.34l49.33,109.11Z" fill="#b5b5b5"/><path d="M2031.13,634.36c37.92-54.47,113.08-67.95,167.56-30.03,26.39,18.37,44.05,45.91,49.72,77.56,5.67,31.64-1.31,63.61-19.69,89.99-37.92,54.47-113.08,67.95-167.56,30.03-49.56-34.5-65.18-99.82-39.04-152.35,2.59-5.21,5.6-10.29,9.01-15.21Zm189.63,52.48c-4.35-24.27-17.89-45.38-38.12-59.47-41.76-29.07-99.4-18.74-128.47,23.02-29.09,41.77-18.74,99.4,23.03,128.47,41.76,29.07,99.4,18.74,128.47-23.02,2.64-3.79,4.96-7.72,6.98-11.78,8.77-17.62,11.65-37.51,8.12-57.23Z" fill="#8e8680"/><path d="M1867.57,569.91c-4.49,9.02-8.55,18.32-12.16,27.88h0c-1.14,3.01-2.22,6.04-3.26,9.08-5.12,15.01-9.03,30.4-11.69,45.94-.04,.21-.07,.42-.11,.63-.1,.6-.2,1.2-.29,1.81-.19,1.17-.37,2.35-.55,3.52-.46,3.08,1.16,6,3.81,7.32,.64,.32,1.35,.55,2.1,.66,3.83,.57,7.4-2.08,7.98-5.9,2.95-19.73,8.05-39.27,15.15-58.09,35.25-93.48,115.16-157.3,206.36-176.42,50.73-10.64,104.95-7.45,156.94,12.17,9.12,3.44,17.99,7.31,26.6,11.6,57.91,28.82,103.76,76.29,130.77,136.03,31.03,68.62,33.47,145.21,6.89,215.67-54.92,145.5-217.86,219.13-363.3,164.26-8.97-3.38-17.73-7.21-26.25-11.45-36.94-18.39-69.44-44.66-95.09-77.03-.66-.84-1.48-1.48-2.37-1.92-2.36-1.17-5.29-.96-7.49,.78-3.03,2.42-3.56,6.82-1.14,9.86,26.92,33.99,61.05,61.57,99.83,80.88,8.95,4.46,18.14,8.47,27.56,12.02,152.7,57.62,323.8-19.79,381.4-172.43,27.91-73.97,25.34-154.37-7.23-226.41-28.35-62.72-76.49-112.55-137.28-142.81-9.03-4.5-18.35-8.56-27.92-12.17-73.97-27.91-154.38-25.34-226.42,7.23-62.73,28.36-112.57,76.52-142.83,137.33Z" fill="#8e8680"/></g></g><g><g opacity=".3"><path d="M1088.97,1732.66c-2.09,4.2-1.27,9.43,2.34,12.78,6.75,6.25,13.78,12.39,20.9,18.23,4.63,3.8,11.45,3.13,15.26-1.5,3.82-4.62,3.12-11.46-1.5-15.26-6.78-5.57-13.49-11.42-19.93-17.38-4.38-4.07-11.24-3.8-15.32,.58-.72,.78-1.3,1.64-1.75,2.55Z" fill="#b5b5b5"/><path d="M1155.62,1782.5c3.2-5.06,9.89-6.57,14.96-3.37,12.78,8.07,26.11,15.57,39.64,22.3,2.85,1.42,5.73,2.81,8.63,4.18,5.41,2.56,7.73,9.01,5.18,14.43-2.62,5.02-9.01,7.73-14.44,5.18-3.03-1.43-6.05-2.89-9.03-4.38-14.18-7.05-28.16-14.92-41.56-23.39-4.74-2.99-6.37-9.06-3.92-13.98,.16-.33,.35-.65,.54-.97Zm114.35,43.52c17.4,5.74,35.3,10.46,53.22,14.02,5.87,1.17,9.68,6.86,8.52,12.74-1.17,5.84-6.87,9.69-12.74,8.52-18.78-3.72-37.55-8.67-55.79-14.69-5.69-1.88-8.77-8.01-6.9-13.7,.16-.5,.37-.98,.6-1.44,2.36-4.75,7.91-7.16,13.09-5.45Zm107.78,21.34c18.24,1.3,36.76,1.47,55.05,.51,5.97-.31,11.08,4.28,11.39,10.25,.31,6-4.26,11.09-10.25,11.4-19.17,1.02-38.6,.83-57.73-.53-5.97-.43-10.47-5.61-10.04-11.58,.11-1.45,.49-2.82,1.11-4.05,1.9-3.81,5.96-6.31,10.48-5.99Zm109.73-5.8c18.03-3.22,36.04-7.58,53.48-12.98,5.73-1.77,11.79,1.44,13.56,7.16,1.76,5.71-1.43,11.79-7.15,13.56-18.3,5.66-37.17,10.23-56.09,13.61-5.89,1.05-11.53-2.88-12.58-8.77-.41-2.38-.03-4.71,.97-6.72,1.48-2.97,4.29-5.23,7.81-5.85Zm104.99-32.41c16.7-7.5,33.09-16.11,48.73-25.58,5.11-3.1,11.78-1.46,14.89,3.66,3.1,5.12,1.48,11.79-3.66,14.89-16.38,9.93-33.57,18.94-51.07,26.81-5.46,2.45-11.88,.01-14.33-5.44-1.39-3.08-1.21-6.47,.18-9.28,1.08-2.17,2.88-3.99,5.26-5.06Zm93.94-56.91c14.36-11.33,28.15-23.66,40.98-36.66,4.2-4.26,11.07-4.3,15.33-.1,4.26,4.21,4.31,11.05,.1,15.33-13.45,13.63-27.92,26.57-42.98,38.45-4.7,3.7-11.52,2.9-15.22-1.8-2.68-3.4-3-7.91-1.19-11.55,.69-1.39,1.69-2.65,2.99-3.68Zm77.14-78.13c11.11-14.46,21.46-29.81,30.75-45.64,3.04-5.16,9.68-6.88,14.84-3.85,5.16,3.03,6.81,9.62,3.86,14.84-9.75,16.58-20.6,32.68-32.25,47.85-3.65,4.75-10.46,5.64-15.2,1.99-4.18-3.21-5.37-8.87-3.1-13.41,.31-.62,.67-1.21,1.11-1.78Zm87.85-153.83c5.75,1.69,9.03,7.71,7.34,13.45-4.67,15.9-10.3,31.82-16.7,47.27-.96,2.35-1.95,4.68-2.96,7.01-2.21,5.53-8.77,8.02-14.26,5.62-5.49-2.38-8-8.77-5.62-14.26,.95-2.18,1.88-4.37,2.79-6.61,6.13-14.79,11.5-29.97,15.96-45.13,.18-.63,.42-1.22,.7-1.78,2.3-4.62,7.64-7.06,12.76-5.56Z" fill="#b5b5b5"/></g><g opacity=".3"><path d="M993.32,1187.5c8.63-16.8,18.38-33.22,28.94-48.81,3.36-4.95,10.1-6.25,15.06-2.89,4.96,3.36,6.18,10.1,2.89,15.06-10.08,14.86-19.36,30.52-27.6,46.55-2.73,5.33-9.27,7.42-14.59,4.69-5.28-2.72-7.39-9.17-4.75-14.47,.02-.04,.04-.09,.07-.13Zm-8.94,45.57c5.61,2.08,8.48,8.32,6.4,13.93-6.25,16.89-11.55,34.32-15.73,51.83-1.4,5.78-7.24,9.42-13.07,8.02-5.82-1.39-9.41-7.23-8.02-13.06,4.39-18.34,9.93-36.62,16.49-54.31,.14-.37,.29-.73,.47-1.08,2.43-4.89,8.21-7.26,13.47-5.32Zm72.56-139.34c12.45-14.23,25.87-27.81,39.89-40.38,4.46-3.99,11.32-3.62,15.31,.84,4,4.46,3.62,11.28-.83,15.31-13.38,11.99-26.18,24.95-38.06,38.51-3.94,4.51-10.79,4.96-15.29,1.02-3.79-3.32-4.71-8.68-2.57-12.99,.41-.82,.92-1.59,1.55-2.31Zm-100.78,246.44c5.95,.67,10.23,6.04,9.56,11.98-2.01,17.89-2.94,36.08-2.75,54.08,.05,5.98-4.75,10.88-10.72,10.95-5.99,.06-10.89-4.74-10.95-10.73-.2-18.87,.77-37.95,2.89-56.72,.15-1.3,.52-2.51,1.07-3.62,1.97-3.96,6.27-6.46,10.91-5.94Zm185.15-322.03c15.47-10.79,31.76-20.74,48.42-29.59,5.29-2.81,11.85-.79,14.66,4.49,2.81,5.29,.81,11.85-4.49,14.66-15.9,8.43-31.43,17.93-46.18,28.23-4.91,3.42-11.67,2.22-15.09-2.69-2.35-3.36-2.52-7.6-.81-11.04,.78-1.57,1.95-2.98,3.49-4.05Zm100.05-53.15c17.64-6.78,35.84-12.56,54.11-17.16,5.8-1.46,11.69,2.05,13.15,7.86,1.47,5.8-2.05,11.7-7.86,13.16-17.41,4.39-34.78,9.9-51.61,16.38-5.59,2.15-11.86-.64-14.01-6.23-1.13-2.95-.89-6.1,.42-8.73,1.16-2.34,3.18-4.27,5.81-5.28Zm109.91-27.67c18.76-2.37,37.83-3.6,56.67-3.68,5.99-.02,10.86,4.81,10.88,10.8,.03,5.98-4.82,10.85-10.79,10.88-17.97,.06-36.15,1.24-54.03,3.51-5.94,.75-11.37-3.46-12.11-9.4-.29-2.21,.12-4.33,1.04-6.18,1.56-3.14,4.61-5.46,8.35-5.94Z" fill="#b5b5b5"/><path d="M946.42,1457.35c-.93,1.87-1.33,4.03-1.03,6.26,1.23,9.2,2.74,18.4,4.48,27.35,1.15,5.87,6.84,9.72,12.71,8.57,5.86-1.16,9.7-6.84,8.57-12.71-1.66-8.54-3.1-17.32-4.28-26.09-.79-5.93-6.25-10.1-12.18-9.3-3.7,.5-6.72,2.81-8.27,5.92Z" fill="#b5b5b5"/></g><g><path d="M1108.81,1584.68c.97,2.13,3.18,3.42,5.51,3.2l66.52-6.17c19,24.75,42.08,46.64,68.74,64.53l-1.92,66.73c-.07,2.34,1.36,4.47,3.55,5.29l74.97,28.29c2.19,.83,4.67,.17,6.16-1.63l42.64-51.37c31.83,4.18,63.62,2.99,94.23-3.04l45.86,48.57c1.61,1.7,4.12,2.2,6.25,1.23l73.01-33.01c2.13-.96,3.42-3.18,3.2-5.51l-6.17-66.52c24.75-19,46.64-42.08,64.53-68.74l66.73,1.92c2.34,.07,4.47-1.36,5.29-3.55l28.29-74.97c.83-2.19,.17-4.66-1.63-6.16l-51.37-42.64c4.18-31.83,2.99-63.62-3.04-94.23l48.58-45.86c1.7-1.61,2.2-4.12,1.23-6.25l-33.01-73.02c-.96-2.13-3.18-3.42-5.51-3.2l-66.52,6.17c-18.99-24.75-42.07-46.64-68.74-64.53l1.92-66.73c.07-2.34-1.36-4.47-3.55-5.29l-74.97-28.29c-2.19-.83-4.66-.17-6.16,1.63l-42.64,51.37c-31.83-4.18-63.62-2.99-94.23,3.04l-45.86-48.57c-1.61-1.7-4.12-2.2-6.25-1.23l-73.01,33.01c-2.13,.96-3.42,3.18-3.2,5.51l6.17,66.52c-24.75,19-46.64,42.08-64.53,68.74l-66.73-1.92c-2.34-.07-4.47,1.36-5.29,3.55l-28.29,74.97c-.83,2.19-.17,4.67,1.63,6.16l51.37,42.64c-4.18,31.83-2.99,63.62,3.04,94.23l-48.57,45.86c-1.7,1.61-2.2,4.12-1.23,6.25l33.01,73.02Z" fill="#b5b5b5"/><path d="M1345.59,1356.4c12.51-17.98,31.27-30.01,52.83-33.87,21.55-3.87,43.32,.9,61.3,13.41,37.1,25.82,46.25,76.94,20.46,114.14-25.84,37.1-77.04,46.27-114.13,20.45-17.98-12.51-30.01-31.27-33.87-52.83-3.14-17.52-.58-35.19,7.21-50.85,1.79-3.6,3.86-7.09,6.2-10.46Zm101.76-2.67c-13.23-9.21-29.24-12.71-45.1-9.87-15.85,2.84-29.66,11.69-38.86,24.91h0c-9.19,13.23-12.7,29.24-9.86,45.1,2.83,15.85,11.69,29.65,24.91,38.86,27.29,19,64.95,12.25,83.96-15.04,1.71-2.47,3.21-5.01,4.51-7.62,13.1-26.32,5.27-59.06-19.56-76.34Z" fill="#b5b5b5" opacity=".56"/><path d="M1231.75,1311.55c-3.06,6.14-5.82,12.49-8.3,19.03-4.91,13-8.5,26.52-10.68,40.21-.09,.62-.19,1.23-.28,1.85-.72,4.76,1.79,9.27,5.88,11.31,.99,.49,2.09,.84,3.24,1.02,5.92,.89,11.41-3.21,12.32-9.12,1.91-12.8,5.22-25.45,9.81-37.6h0c.25-.67,.51-1.34,.77-2,11.13-28.66,28.98-53.46,51.85-72.81,12.41-10.5,26.32-19.39,41.45-26.4,.12-.06,.25-.11,.37-.17,.38-.17,.75-.35,1.13-.51,44.42-20.08,94.01-21.67,139.62-4.46,5.91,2.22,11.65,4.73,17.22,7.5,37.49,18.66,67.17,49.39,84.66,88.07,20.08,44.42,21.66,94,4.45,139.61-17.22,45.57-51.15,81.79-95.57,101.88-44.42,20.08-94.01,21.67-139.62,4.46-5.81-2.19-11.48-4.67-16.99-7.41-23.92-11.91-44.96-28.91-61.56-49.87-1.02-1.29-2.28-2.29-3.66-2.97-3.64-1.81-8.16-1.49-11.56,1.21-4.68,3.73-5.49,10.53-1.76,15.23,18.58,23.45,42.12,42.48,68.87,55.8,6.18,3.07,12.52,5.85,19.01,8.3,51.04,19.26,106.51,17.48,156.21-4.99,49.69-22.47,87.69-62.91,106.92-113.97,19.26-51.03,17.49-106.5-4.99-156.2-19.56-43.27-52.77-77.65-94.71-98.53-6.23-3.1-12.66-5.91-19.25-8.4-98.8-37.27-208.76,7.35-254.83,99.93Z" fill="#8e8680"/></g></g></g><g><path d="M1992.53,2793.66c4.62,0,8.37-3.75,8.37-8.37v-1000.07c0-4.62-3.75-8.37-8.37-8.37s-8.37,3.75-8.37,8.37v1000.07c0,4.62,3.75,8.37,8.37,8.37Z" fill="#b5b5b5"/><path d="M2219.26,2793.66c4.62,0,8.37-3.75,8.37-8.37v-1000.07c0-4.62-3.75-8.37-8.37-8.37s-8.37,3.75-8.37,8.37v1000.07c0,4.62,3.75,8.37,8.37,8.37Z" fill="#b5b5b5"/><path d="M2776.32,2800c1.09,0,2.2-.22,3.27-.67,4.25-1.81,6.23-6.72,4.43-10.97l-427.85-1006.41c-1.81-4.25-6.73-6.23-10.97-4.43-4.25,1.81-6.23,6.72-4.43,10.97l427.85,1006.41c1.35,3.18,4.45,5.09,7.7,5.09Z" fill="#b5b5b5"/><path d="M2512.04,2800c1.09,0,2.2-.22,3.27-.67,4.25-1.81,6.23-6.72,4.43-10.97l-427.85-1006.41c-1.81-4.25-6.73-6.23-10.97-4.43-4.25,1.81-6.23,6.72-4.43,10.97l427.85,1006.41c1.35,3.18,4.45,5.09,7.7,5.09Z" fill="#b5b5b5"/><path d="M1979.54,1794.42h391.92c6.51,0,11.79-5.28,11.79-11.79h0c0-6.51-5.28-11.79-11.79-11.79h-391.92c-6.51,0-11.79,5.28-11.79,11.79h0c0,6.51,5.28,11.79,11.79,11.79Z" fill="#b5b5b5"/><path d="M2148.82,1947.47h265.06c4.62,0,8.37-3.75,8.37-8.37s-3.75-8.37-8.37-8.37h-265.06c-4.62,0-8.37,3.75-8.37,8.37s3.75,8.37,8.37,8.37Z" fill="#b5b5b5"/><rect x="2230.15" y="2121.08" width="265.06" height="16.73" fill="#b5b5b5"/><rect x="2308.89" y="2311.42" width="265.06" height="16.73" fill="#b5b5b5"/><path d="M2391.46,2518.49h265.06c4.62,0,8.37-3.75,8.37-8.37s-3.75-8.37-8.37-8.37h-265.06c-4.62,0-8.37,3.75-8.37,8.37s3.75,8.37,8.37,8.37Z" fill="#b5b5b5"/><path d="M2471.29,2708.83h265.06c4.62,0,8.37-3.75,8.37-8.37s-3.75-8.37-8.37-8.37h-265.06c-4.62,0-8.37,3.75-8.37,8.37s3.75,8.37,8.37,8.37Z" fill="#b5b5b5"/></g><g><rect x="1136.58" y="1300.9" width="37.38" height="652.51" fill="#fdac53"/><path d="M1678.54,1987.4H642c0,87.66,15.62,174.62,46.13,256.8l181.16,488.02c13.53,36.44,48.3,60.62,87.17,60.62h407.63c38.87,0,73.64-24.18,87.17-60.62l181.16-488.02c30.51-82.18,46.13-169.14,46.13-256.8h0Z" fill="#fdac53"/><g><circle cx="1170.74" cy="816.43" r="703.91" transform="translate(-234.4 1066.97) rotate(-45)" fill="#fdac53"/><circle cx="1170.74" cy="816.43" r="680.51" transform="translate(-234.4 1066.97) rotate(-45)" fill="#f9c491"/><path d="M612.6,540.29c-1.92-.02-3.87-.48-5.7-1.43-6.23-3.23-8.66-10.9-5.43-17.12,112.13-216.21,332.96-348.84,576.32-346.16,38.83,.43,77.69,4.35,115.48,11.68,6.89,1.33,11.39,7.99,10.06,14.89-1.33,6.88-7.95,11.43-14.89,10.05-36.31-7.02-73.63-10.8-110.94-11.21-233.72-2.57-445.8,124.81-553.49,332.44-2.28,4.41-6.78,6.91-11.43,6.86Z" fill="#fff" opacity=".78"/><circle cx="1185.41" cy="831.42" r="575.97" transform="translate(-240.71 1081.73) rotate(-45)" fill="#fff" opacity=".78"/><path d="M1124.17,1258.95l.69-62.66c-65.29-3.34-129.73-19.46-175.39-40.05-16.31-7.35-24.46-25.83-19.56-43.04l16.56-58.19c6.07-21.35,29.48-32.17,49.85-23.36,45.31,19.58,101.35,35.3,161.95,35.97,62.91,.69,110.07-20.12,110.55-63.84,.43-39.45-35.56-63.31-122.74-87.73-124.38-35.5-213.36-90.87-212.15-200.7,1.09-99.17,74.44-174.08,200.49-192.95l.69-62.66c.22-20.16,16.75-36.33,36.91-36.11l36.81,.41c20.16,.22,36.33,16.75,36.11,36.91l-.62,56.26c60.42,3.08,104.3,13.91,139.08,26.56,17.82,6.48,27.38,25.86,22.22,44.11l-15.23,53.82c-5.87,20.75-28.25,31.91-48.33,24.06-32.01-12.51-77.32-25.67-136.4-26.32-74.65-.82-96.31,29.87-96.61,57.59-.38,34.12,44.15,58.07,140.86,89,138.17,43.11,195.11,101.33,193.97,204.76-1.05,94.9-72.36,179.44-209.09,199.26l-.77,70.12c-.22,20.16-16.75,36.33-36.91,36.11l-36.82-.41c-20.16-.22-36.33-16.75-36.11-36.91Z" fill="#fdac53"/></g><g><path d="M766.64,1989.94c-4.57,0-8.38-3.59-8.6-8.21l-.47-10.32c-.21-4.75,3.47-8.77,8.22-8.98,4.9-.28,8.77,3.47,8.98,8.22l.46,10.28c.22,4.75-3.45,8.78-8.2,9-.14,0-.28,.01-.41,.01Zm-1.46-34.34c-4.59,0-8.41-3.63-8.6-8.26-.14-3.45-.27-6.89-.39-10.33-.17-4.75,3.54-8.74,8.29-8.92,4.78-.09,8.75,3.54,8.92,8.29,.12,3.42,.25,6.85,.39,10.27,.19,4.75-3.51,8.76-8.26,8.95-.12,0-.23,0-.35,0Zm-1.2-34.35c-4.63,0-8.45-3.68-8.6-8.34l-.31-10.33c-.13-4.76,3.61-8.72,8.36-8.85,4.8-.3,8.72,3.61,8.85,8.36l.31,10.28c.15,4.75-3.58,8.73-8.34,8.87-.09,0-.18,0-.28,0Zm-.92-34.35c-4.66,0-8.49-3.72-8.61-8.4-.08-3.45-.16-6.9-.23-10.34-.1-4.76,3.68-8.69,8.43-8.79,4.68,0,8.69,3.68,8.79,8.43,.07,3.42,.14,6.85,.23,10.27,.11,4.76-3.64,8.7-8.4,8.82h-.21Zm-.65-34.36c-4.69,0-8.53-3.77-8.61-8.47l-.14-10.33c-.06-4.76,3.75-8.66,8.5-8.72,4.72,.09,8.66,3.75,8.72,8.5l.14,10.28c.07,4.76-3.72,8.67-8.47,8.74h-.14Zm-.38-34.36c-4.73,0-8.58-3.82-8.61-8.55l-.06-10.32c-.02-4.76,3.81-8.63,8.57-8.65h.04c4.74,0,8.59,3.83,8.61,8.57l.06,10.29c.03,4.76-3.8,8.64-8.55,8.67h-.06Zm-.09-34.36h-.01c-4.75,0-8.61-3.86-8.6-8.62l.03-10.33c.02-4.74,3.87-8.58,8.61-8.58h.03c4.76,.02,8.6,3.89,8.58,8.64l-.03,10.28c0,4.75-3.86,8.6-8.61,8.6Zm.19-34.34h-.05c-4.78-.04-8.6-3.93-8.56-8.69,.03-3.44,.07-6.87,.11-10.31,.06-4.72,3.9-8.5,8.61-8.5h.11c4.75,.06,8.56,3.96,8.5,8.72-.04,3.41-.08,6.83-.11,10.24-.04,4.73-3.89,8.53-8.61,8.53Zm.49-34.33h-.16c-4.75-.09-8.53-4.01-8.45-8.77l.21-10.33c.1-4.76,3.95-8.51,8.79-8.42,4.76,.1,8.52,4.04,8.42,8.79l-.21,10.29c-.09,4.7-3.92,8.45-8.61,8.45Zm.8-34.37c-.08,0-.16,0-.24,0-4.75-.13-8.5-4.09-8.37-8.84l.3-10.33c.14-4.75,4.11-8.57,8.87-8.34,4.75,.14,8.49,4.11,8.34,8.87l-.3,10.28c-.13,4.67-3.95,8.37-8.6,8.37Zm1.11-34.35c-.11,0-.22,0-.33,0-4.75-.18-8.46-4.17-8.29-8.92l.4-10.33c.19-4.75,4.28-8.51,8.95-8.26,4.75,.19,8.45,4.2,8.26,8.95l-.39,10.28c-.17,4.64-3.99,8.29-8.6,8.29Zm1.43-34.35c-.14,0-.27,0-.41,0-4.75-.22-8.42-4.26-8.2-9l.49-10.31c.23-4.75,4.24-8.42,9.02-8.18,4.75,.23,8.41,4.27,8.18,9.02l-.49,10.28c-.22,4.61-4.03,8.21-8.6,8.21Zm1.76-34.33c-.16,0-.33,0-.49-.01-4.75-.27-8.38-4.34-8.11-9.08l.59-10.31c.28-4.75,4.27-8.4,9.1-8.09,4.75,.28,8.37,4.35,8.09,9.1l-.59,10.28c-.26,4.58-4.05,8.12-8.59,8.12Zm2.1-34.31c-.19,0-.39,0-.59-.02-4.74-.32-8.33-4.43-8.01-9.17l.7-10.3c.33-4.74,4.43-8.29,9.19-7.99,4.74,.33,8.32,4.44,7.99,9.19l-.7,10.27c-.31,4.54-4.09,8.03-8.59,8.03Zm2.46-34.28c-.22,0-.44,0-.66-.02-4.74-.36-8.29-4.5-7.93-9.24,.26-3.44,.53-6.88,.81-10.32,.38-4.74,4.51-8.27,9.27-7.89,4.74,.38,8.27,4.53,7.89,9.27-.28,3.41-.54,6.83-.8,10.24-.35,4.52-4.12,7.95-8.58,7.95Zm2.82-34.26c-.25,0-.5-.01-.76-.03-4.74-.41-8.24-4.59-7.83-9.33,.3-3.44,.61-6.88,.92-10.31,.44-4.74,4.64-8.23,9.36-7.79,4.74,.43,8.22,4.62,7.79,9.36-.31,3.41-.62,6.82-.91,10.24-.39,4.48-4.15,7.86-8.57,7.86Zm3.19-34.22c-.28,0-.57-.02-.86-.04-4.73-.47-8.19-4.69-7.72-9.42l1.04-10.29c.48-4.73,4.69-8.19,9.44-7.69,4.73,.48,8.17,4.71,7.69,9.44l-1.03,10.23c-.44,4.44-4.19,7.76-8.56,7.76Zm3.59-34.19c-.32,0-.64-.02-.96-.05-4.73-.52-8.13-4.78-7.61-9.51l1.16-10.27c.54-4.72,4.79-8.09,9.53-7.58,4.73,.54,8.12,4.81,7.58,9.53l-1.15,10.22c-.49,4.4-4.22,7.66-8.55,7.66Zm3.99-34.14c-.35,0-.71-.02-1.07-.07-4.72-.58-8.07-4.88-7.49-9.6,.42-3.43,.85-6.85,1.29-10.26,.6-4.72,4.93-8.06,9.63-7.45,4.72,.6,8.05,4.91,7.45,9.63-.43,3.39-.86,6.79-1.28,10.2-.54,4.36-4.25,7.55-8.53,7.55Zm4.42-34.09c-.39,0-.78-.03-1.17-.08-4.71-.64-8.01-4.99-7.37-9.7,.47-3.42,.94-6.84,1.42-10.24,.66-4.71,5.01-8,9.72-7.33,4.71,.66,7.99,5.01,7.33,9.72-.47,3.39-.94,6.78-1.41,10.18-.59,4.32-4.28,7.45-8.52,7.45Zm4.86-34.02c-.42,0-.85-.03-1.29-.1-4.7-.7-7.94-5.08-7.24-9.79,.51-3.42,1.03-6.83,1.56-10.24,.72-4.7,5.09-7.96,9.82-7.19,4.7,.72,7.92,5.12,7.19,9.82-.52,3.38-1.04,6.76-1.54,10.16-.64,4.27-4.31,7.34-8.5,7.34Zm5.34-33.96c-.46,0-.93-.04-1.4-.11-4.69-.77-7.87-5.2-7.11-9.89,.56-3.41,1.13-6.82,1.7-10.21,.8-4.69,5.22-7.84,9.92-7.06,4.69,.79,7.85,5.24,7.06,9.92-.57,3.37-1.13,6.75-1.68,10.13-.69,4.22-4.35,7.22-8.49,7.22Zm5.82-33.88c-.51,0-1.02-.05-1.54-.14-4.68-.85-7.79-5.32-6.95-10,.61-3.4,1.23-6.79,1.85-10.17,.86-4.68,5.35-7.78,10.02-6.91,4.68,.86,7.77,5.35,6.91,10.03-.62,3.36-1.23,6.74-1.84,10.11-.75,4.17-4.38,7.09-8.46,7.09Zm6.34-33.78c-.55,0-1.1-.05-1.66-.16-4.67-.91-7.71-5.44-6.8-10.11,.66-3.39,1.34-6.78,2.01-10.16,.94-4.66,5.47-7.68,10.14-6.75,4.66,.93,7.68,5.47,6.75,10.14-.67,3.35-1.34,6.71-1.99,10.08-.81,4.11-4.41,6.96-8.44,6.96Zm6.87-33.68c-.59,0-1.2-.06-1.8-.19-4.65-.99-7.62-5.56-6.63-10.21,.72-3.39,1.45-6.76,2.18-10.13,1.01-4.65,5.63-7.6,10.25-6.57,4.65,1.01,7.59,5.6,6.57,10.25-.73,3.34-1.45,6.68-2.16,10.04-.86,4.05-4.43,6.82-8.41,6.82Zm7.45-33.56c-.64,0-1.29-.07-1.94-.22-4.64-1.07-7.53-5.69-6.46-10.32,.78-3.38,1.57-6.74,2.36-10.1,1.1-4.62,5.71-7.48,10.37-6.39,4.62,1.1,7.48,5.74,6.39,10.37-.79,3.32-1.57,6.64-2.34,9.98-.92,3.98-4.46,6.68-8.38,6.68Zm8.05-33.41c-.69,0-1.4-.08-2.1-.26-4.61-1.16-7.41-5.83-6.25-10.45,.84-3.36,1.69-6.71,2.55-10.05,1.18-4.6,5.89-7.36,10.48-6.19,4.6,1.19,7.38,5.88,6.19,10.48-.85,3.3-1.69,6.62-2.53,9.94-.98,3.91-4.49,6.51-8.34,6.51Zm8.7-33.25c-.75,0-1.51-.1-2.27-.31-4.59-1.25-7.3-5.98-6.04-10.57,.91-3.35,1.83-6.68,2.76-9.99,1.28-4.58,6.04-7.25,10.61-5.98,4.58,1.28,7.26,6.03,5.98,10.61-.92,3.29-1.83,6.58-2.73,9.89-1.04,3.83-4.51,6.35-8.3,6.35Zm9.38-33.07c-.81,0-1.63-.11-2.44-.36-4.56-1.35-7.17-6.14-5.82-10.7,.98-3.32,1.97-6.64,2.97-9.93,1.38-4.55,6.18-7.12,10.74-5.74,4.55,1.38,7.12,6.19,5.74,10.74-.99,3.26-1.97,6.53-2.94,9.82-1.11,3.75-4.53,6.17-8.25,6.17Zm10.12-32.85c-.87,0-1.76-.13-2.63-.41-4.53-1.46-7.02-6.3-5.57-10.83,1.06-3.3,2.13-6.59,3.21-9.86,1.49-4.51,6.35-6.96,10.87-5.49,4.52,1.49,6.98,6.35,5.49,10.87-1.06,3.24-2.12,6.49-3.16,9.75-1.17,3.65-4.56,5.98-8.2,5.98Zm10.9-32.6c-.94,0-1.9-.15-2.83-.48-4.49-1.56-6.86-6.47-5.3-10.96,1.14-3.28,2.29-6.54,3.45-9.78,1.6-4.48,6.53-6.81,11-5.22,4.48,1.6,6.81,6.52,5.22,11-1.14,3.21-2.28,6.43-3.41,9.66-1.24,3.55-4.57,5.78-8.13,5.78Zm11.74-32.3c-1.01,0-2.04-.18-3.04-.56-4.45-1.68-6.69-6.65-5.01-11.1,1.23-3.25,2.47-6.49,3.72-9.71,1.72-4.43,6.71-6.63,11.15-4.9,4.43,1.73,6.63,6.72,4.9,11.15-1.23,3.17-2.45,6.35-3.66,9.55-1.3,3.45-4.58,5.57-8.06,5.57Zm12.63-31.95c-1.1,0-2.22-.21-3.29-.66-4.39-1.82-6.48-6.86-4.66-11.25,1.33-3.21,2.66-6.4,4.01-9.57,1.86-4.38,6.93-6.43,11.28-4.57,4.38,1.85,6.43,6.91,4.57,11.28-1.33,3.13-2.64,6.29-3.95,9.45-1.37,3.31-4.58,5.32-7.96,5.32Zm13.62-31.56c-1.18,0-2.38-.24-3.52-.76-4.34-1.95-6.28-7.04-4.33-11.38,1.43-3.18,2.87-6.33,4.32-9.47,2-4.32,7.12-6.19,11.43-4.2,4.32,2,6.19,7.12,4.2,11.43-1.43,3.08-2.84,6.17-4.24,9.29-1.43,3.19-4.57,5.08-7.86,5.08Zm14.66-31.08c-1.28,0-2.58-.29-3.81-.89-4.26-2.11-6.01-7.27-3.91-11.53,1.54-3.12,3.09-6.22,4.66-9.3,2.15-4.24,7.34-5.93,11.57-3.78,4.24,2.15,5.93,7.33,3.78,11.57-1.53,3.03-3.06,6.07-4.57,9.14-1.5,3.04-4.55,4.8-7.73,4.8Zm15.79-30.52c-1.39,0-2.79-.34-4.09-1.04-4.18-2.27-5.73-7.49-3.47-11.67,1.66-3.07,3.34-6.11,5.03-9.14,2.32-4.15,7.56-5.62,11.72-3.31,4.15,2.32,5.63,7.57,3.31,11.72-1.65,2.95-3.29,5.93-4.92,8.93-1.56,2.88-4.52,4.51-7.57,4.51Zm17.02-29.85c-1.51,0-3.03-.4-4.42-1.23-4.08-2.45-5.4-7.74-2.96-11.81,1.8-2.99,3.6-5.96,5.42-8.9,2.5-4.04,7.8-5.3,11.85-2.8,4.04,2.5,5.3,7.8,2.8,11.85-1.78,2.88-3.55,5.79-5.3,8.71-1.61,2.69-4.47,4.19-7.39,4.19Zm18.34-29.06c-1.64,0-3.3-.47-4.77-1.45-3.96-2.63-5.03-7.98-2.39-11.94,1.94-2.91,3.88-5.79,5.84-8.64,2.7-3.92,8.07-4.91,11.97-2.23,3.92,2.7,4.92,8.06,2.23,11.97-1.92,2.79-3.82,5.6-5.71,8.44-1.66,2.49-4.39,3.84-7.17,3.84Zm19.75-28.11c-1.79,0-3.58-.55-5.13-1.7-3.82-2.84-4.61-8.23-1.78-12.05,2.09-2.81,4.19-5.59,6.31-8.34,2.9-3.77,8.3-4.47,12.08-1.57,3.77,2.9,4.47,8.31,1.57,12.08-2.06,2.67-4.1,5.38-6.13,8.11-1.69,2.28-4.29,3.47-6.92,3.47Zm21.28-26.97c-1.95,0-3.91-.66-5.52-2-3.65-3.05-4.13-8.48-1.08-12.13,2.25-2.69,4.52-5.34,6.8-7.97,3.12-3.59,8.56-3.97,12.15-.84,3.59,3.12,3.96,8.56,.84,12.15-2.21,2.54-4.4,5.11-6.58,7.71-1.7,2.03-4.15,3.08-6.61,3.08Zm22.87-25.62c-2.13,0-4.27-.79-5.94-2.38-3.44-3.28-3.57-8.73-.29-12.17,2.42-2.54,4.86-5.04,7.31-7.51,3.35-3.37,8.8-3.39,12.18-.03,3.37,3.35,3.39,8.8,.03,12.18-2.37,2.38-4.72,4.8-7.06,7.25-1.69,1.78-3.96,2.67-6.23,2.67Zm24.55-24c-2.34,0-4.66-.94-6.36-2.8-3.21-3.51-2.96-8.96,.55-12.17,2.6-2.37,5.22-4.7,7.85-6.99,3.59-3.11,9.03-2.74,12.15,.85,3.12,3.59,2.74,9.03-.85,12.15-2.53,2.2-5.04,4.44-7.53,6.71-1.65,1.51-3.73,2.25-5.8,2.25Zm26.25-22.11c-2.57,0-5.1-1.14-6.8-3.32-2.92-3.75-2.24-9.16,1.51-12.08,2.78-2.16,5.57-4.28,8.39-6.35,3.83-2.82,9.22-2.01,12.04,1.82,2.82,3.82,2.01,9.22-1.82,12.04-2.69,1.99-5.38,4.02-8.04,6.09-1.57,1.22-3.43,1.81-5.28,1.81Zm27.95-19.91c-2.81,0-5.57-1.38-7.22-3.92-2.59-3.98-1.47-9.32,2.52-11.91,2.95-1.92,5.92-3.79,8.9-5.62,4.05-2.47,9.36-1.22,11.84,2.84,2.49,4.05,1.21,9.35-2.84,11.84-2.86,1.75-5.7,3.54-8.51,5.38-1.45,.94-3.08,1.4-4.69,1.4Zm29.56-17.4c-3.08,0-6.07-1.66-7.62-4.58-2.23-4.2-.62-9.41,3.58-11.64,3.1-1.64,6.24-3.25,9.39-4.8,4.26-2.1,9.43-.36,11.53,3.91,2.1,4.26,.36,9.43-3.91,11.53-3,1.48-5.99,3.01-8.95,4.58-1.29,.68-2.66,1-4.02,1Zm31.02-14.61c-3.38,0-6.58-2-7.95-5.31-1.83-4.39,.26-9.43,4.65-11.25,3.24-1.34,6.49-2.64,9.77-3.89,4.45-1.69,9.42,.53,11.11,4.97,1.7,4.44-.53,9.42-4.97,11.11-3.12,1.19-6.23,2.43-9.31,3.71-1.08,.45-2.2,.66-3.3,.66Zm32.27-11.61c-3.68,0-7.09-2.38-8.23-6.08-1.4-4.54,1.15-9.36,5.7-10.76,3.37-1.04,6.76-2.02,10.17-2.96,4.6-1.28,9.32,1.43,10.59,6.01,1.26,4.58-1.43,9.32-6.01,10.59-3.25,.9-6.48,1.84-9.69,2.82-.84,.26-1.69,.38-2.53,.38Zm213.9-4.33c-.62,0-1.25-.07-1.88-.21-3.33-.74-6.64-1.44-9.93-2.11-4.66-.94-7.67-5.48-6.73-10.15s5.48-7.67,10.15-6.73c3.4,.69,6.82,1.41,10.25,2.18,4.64,1.03,7.57,5.63,6.53,10.27-.89,4.01-4.45,6.74-8.4,6.74Zm-180.65-4.16c-4,0-7.59-2.81-8.42-6.88-.96-4.66,2.04-9.21,6.7-10.17,3.43-.7,6.88-1.36,10.35-1.97,4.65-.84,9.15,2.3,9.97,6.98,.83,4.68-2.3,9.15-6.98,9.97-3.31,.58-6.61,1.22-9.88,1.89-.58,.12-1.17,.18-1.74,.18Zm146.88-2.23c-.44,0-.88-.03-1.33-.1-3.36-.52-6.7-1-10.03-1.44-4.71-.63-8.03-4.95-7.4-9.67,.62-4.71,4.93-8.03,9.67-7.4,3.45,.46,6.91,.96,10.39,1.5,4.7,.73,7.92,5.13,7.19,9.83-.66,4.25-4.33,7.29-8.5,7.29Zm-113-3.09c-4.33,0-8.05-3.26-8.55-7.66-.53-4.73,2.88-8.98,7.6-9.51,3.47-.39,6.97-.73,10.48-1.02,4.71-.4,8.9,3.12,9.3,7.86,.4,4.74-3.12,8.9-7.86,9.3-3.36,.28-6.69,.61-10.01,.98-.33,.04-.65,.06-.97,.06Zm78.86-.95c-.23,0-.47,0-.7-.03-3.38-.27-6.75-.51-10.1-.7-4.75-.28-8.37-4.35-8.1-9.1,.28-4.74,4.33-8.39,9.1-8.1,3.48,.2,6.97,.44,10.48,.73,4.74,.38,8.27,4.53,7.89,9.28-.36,4.5-4.13,7.91-8.57,7.91Zm-44.64-1.33c-4.66,0-8.49-3.72-8.61-8.41-.11-4.76,3.65-8.7,8.41-8.81,3.24-.07,6.49-.11,9.75-.11h.75c4.76,0,8.61,3.85,8.61,8.61s-3.85,8.61-8.61,8.61h-.75c-3.13,0-6.25,.04-9.35,.11h-.2Z" fill="#fff"/><path d="M844.71,1894.84l-.08-10.31c-.03-4.76,3.8-8.64,8.55-8.67h.06c4.73,0,8.58,3.82,8.61,8.55l.08,10.14-17.22,.3Zm8.38-25.82c-4.74,0-8.59-3.83-8.61-8.58l-.04-10.31c-.02-4.76,3.82-8.63,8.58-8.64h.02c4.75,0,8.6,3.83,8.62,8.58l.04,10.31c.02,4.76-3.82,8.63-8.58,8.64h-.03Zm-.11-34.36c-4.75,0-8.6-3.84-8.61-8.59v-10.28c-.02-4.76,3.83-8.63,8.59-8.64h.01c4.75,0,8.61,3.84,8.61,8.59v10.3c.02,4.76-3.82,8.62-8.58,8.63h-.02Zm0-34.36h0c-4.76,0-8.61-3.86-8.6-8.62l.02-10.33c.01-4.75,3.87-8.58,8.61-8.58h.03c4.75,.01,8.6,3.88,8.58,8.64l-.02,10.29c0,4.75-3.86,8.6-8.61,8.6Zm.11-34.37h-.04c-4.76-.02-8.59-3.9-8.57-8.65l.06-10.33c.03-4.73,3.88-8.55,8.61-8.55h.04c4.77,.03,8.6,3.91,8.57,8.67l-.06,10.29c-.02,4.74-3.87,8.57-8.61,8.57Zm.25-34.37h-.05c-4.78-.04-8.6-3.93-8.56-8.69l.1-10.32c.05-4.76,3.97-8.42,8.7-8.51,4.75,.05,8.57,3.95,8.51,8.7l-.1,10.29c-.04,4.73-3.89,8.53-8.61,8.53Zm.39-34.36h-.12c-4.76-.06-8.55-3.97-8.49-8.73l.14-10.32c.07-4.71,3.91-8.48,8.61-8.48h.13c4.75,.07,8.55,3.98,8.48,8.74l-.14,10.3c-.06,4.72-3.91,8.49-8.61,8.49Zm.54-34.37h-.15c-4.76-.08-8.54-4-8.46-8.76l.19-10.32c.09-4.76,4.08-8.49,8.78-8.44,4.76,.09,8.53,4.02,8.44,8.78l-.19,10.29c-.08,4.7-3.92,8.46-8.61,8.46Zm.7-34.35h-.19c-4.76-.11-8.52-4.05-8.42-8.8l.24-10.33c.12-4.68,3.95-8.4,8.61-8.4h.21c4.75,.12,8.51,4.06,8.4,8.82l-.24,10.29c-.11,4.69-3.94,8.41-8.61,8.41Zm.87-34.35c-.08,0-.17,0-.26,0-4.75-.14-8.49-4.1-8.35-8.86l.3-10.3c.14-4.75,4.08-8.54,8.86-8.35,4.76,.14,8.49,4.1,8.35,8.86l-.3,10.3c-.13,4.67-3.96,8.36-8.6,8.36Zm1.06-34.34c-.1,0-.2,0-.3,0-4.75-.16-8.47-4.15-8.31-8.9l.36-10.31c.17-4.76,4.27-8.38,8.91-8.3,4.75,.17,8.47,4.16,8.3,8.91l-.36,10.29c-.16,4.66-3.98,8.32-8.6,8.32Zm1.26-34.34c-.11,0-.23,0-.34,0-4.75-.18-8.45-4.19-8.27-8.94l.42-10.32c.19-4.75,4.2-8.56,8.96-8.25,4.75,.19,8.44,4.21,8.25,8.96l-.42,10.28c-.18,4.64-4,8.27-8.6,8.27Zm1.47-34.33c-.13,0-.27,0-.41,0-4.75-.22-8.42-4.26-8.2-9l.49-10.31c.22-4.75,4.17-8.46,9.01-8.19,4.75,.23,8.41,4.26,8.19,9.01l-.48,10.29c-.22,4.61-4.02,8.21-8.6,8.21Zm1.71-34.32c-.15,0-.31,0-.46-.01-4.75-.25-8.39-4.3-8.15-9.05l.56-10.32c.27-4.75,4.27-8.43,9.08-8.12,4.75,.27,8.38,4.33,8.12,9.08l-.56,10.27c-.24,4.59-4.04,8.16-8.59,8.16Zm1.96-34.31c-.17,0-.35,0-.53-.01-4.75-.29-8.36-4.37-8.08-9.12,.21-3.45,.43-6.89,.64-10.31,.31-4.75,4.42-8.39,9.14-8.04,4.75,.3,8.35,4.4,8.04,9.14-.22,3.41-.43,6.83-.64,10.26-.28,4.57-4.07,8.09-8.59,8.09Zm2.24-34.29c-.2,0-.41,0-.61-.02-4.74-.33-8.32-4.45-7.98-9.19l.73-10.3c.34-4.74,4.48-8.25,9.21-7.97,4.74,.34,8.31,4.46,7.97,9.21l-.73,10.27c-.32,4.54-4.1,8-8.58,8Zm2.54-34.27c-.23,0-.46,0-.69-.03-4.74-.37-8.28-4.52-7.9-9.26l.83-10.3c.39-4.74,4.55-8.24,9.28-7.88,4.74,.39,8.27,4.54,7.88,9.28l-.83,10.25c-.36,4.51-4.12,7.93-8.57,7.93Zm2.87-34.25c-.26,0-.51-.01-.77-.03-4.74-.42-8.24-4.6-7.81-9.34l.93-10.29c.44-4.74,4.64-8.19,9.36-7.79,4.74,.44,8.22,4.62,7.79,9.36l-.93,10.24c-.4,4.48-4.15,7.85-8.56,7.85Zm3.23-34.21c-.29,0-.57-.02-.87-.04-4.73-.47-8.18-4.69-7.71-9.42,.35-3.44,.69-6.87,1.04-10.28,.49-4.73,4.71-8.18,9.45-7.68,4.73,.49,8.17,4.72,7.68,9.45-.35,3.39-.7,6.8-1.04,10.22-.44,4.44-4.19,7.76-8.56,7.76Zm3.61-34.17c-.32,0-.64-.02-.97-.06-4.73-.53-8.13-4.79-7.59-9.52l1.17-10.27c.55-4.73,4.81-8.14,9.54-7.56,4.73,.54,8.11,4.82,7.56,9.54l-1.16,10.22c-.49,4.4-4.22,7.65-8.55,7.65Zm4.05-34.12c-.35,0-.71-.02-1.07-.07-4.72-.59-8.07-4.89-7.48-9.61,.43-3.44,.87-6.86,1.31-10.27,.61-4.72,4.94-8.07,9.65-7.43,4.72,.61,8.04,4.93,7.43,9.65-.44,3.38-.87,6.77-1.3,10.18-.54,4.36-4.25,7.55-8.53,7.55Zm4.51-34.06c-.4,0-.8-.03-1.2-.09-4.71-.66-7.99-5.01-7.33-9.72,.48-3.43,.97-6.85,1.46-10.25,.68-4.7,5.04-7.94,9.76-7.29,4.71,.68,7.97,5.05,7.29,9.76-.49,3.37-.97,6.76-1.45,10.17-.6,4.31-4.29,7.42-8.51,7.42Zm5.04-33.99c-.45,0-.9-.04-1.35-.11-4.7-.74-7.91-5.15-7.17-9.84,.54-3.42,1.08-6.83,1.63-10.22,.76-4.69,5.19-7.9,9.87-7.12,4.7,.76,7.88,5.18,7.12,9.87-.54,3.37-1.08,6.75-1.62,10.14-.67,4.24-4.33,7.27-8.49,7.27Zm5.63-33.89c-.49,0-1-.04-1.5-.13-4.68-.83-7.81-5.29-6.99-9.97,.6-3.42,1.21-6.82,1.82-10.19,.85-4.68,5.34-7.79,10.01-6.93,4.68,.85,7.78,5.33,6.93,10.01-.61,3.35-1.21,6.72-1.8,10.1-.74,4.18-4.37,7.12-8.47,7.12Zm6.28-33.78c-.55,0-1.1-.05-1.66-.16-4.67-.91-7.71-5.43-6.8-10.1,.67-3.41,1.35-6.8,2.03-10.17,.95-4.66,5.53-7.67,10.15-6.72,4.66,.95,7.67,5.49,6.72,10.15-.68,3.33-1.35,6.68-2,10.04-.8,4.11-4.41,6.96-8.44,6.96Zm6.99-33.63c-.61,0-1.23-.07-1.86-.2-4.65-1.02-7.58-5.61-6.56-10.26,.75-3.39,1.5-6.77,2.27-10.12,1.05-4.64,5.68-7.55,10.3-6.48,4.64,1.05,7.54,5.67,6.48,10.3-.75,3.31-1.5,6.65-2.24,10-.88,4.02-4.44,6.76-8.4,6.76Zm7.81-33.45c-.68,0-1.38-.08-2.07-.26-4.62-1.14-7.43-5.81-6.29-10.42,.83-3.38,1.68-6.74,2.53-10.07,1.17-4.61,5.87-7.4,10.47-6.21,4.61,1.17,7.39,5.87,6.21,10.47-.84,3.29-1.67,6.6-2.5,9.93-.97,3.92-4.48,6.55-8.35,6.55Zm8.71-33.23c-.76,0-1.53-.1-2.3-.32-4.58-1.27-7.27-6.01-6-10.6,.93-3.36,1.88-6.69,2.83-10,1.32-4.57,6.07-7.2,10.66-5.89,4.57,1.32,7.2,6.09,5.89,10.66-.94,3.25-1.87,6.53-2.78,9.83-1.06,3.81-4.52,6.31-8.29,6.31Zm9.73-32.93c-.85,0-1.72-.13-2.57-.39-4.54-1.42-7.07-6.25-5.66-10.78,1.04-3.34,2.1-6.64,3.17-9.92,1.47-4.52,6.33-6.99,10.85-5.52,4.52,1.47,6.99,6.33,5.52,10.85-1.05,3.21-2.08,6.45-3.1,9.72-1.15,3.69-4.55,6.05-8.22,6.05Zm10.88-32.58c-.95,0-1.92-.16-2.88-.5-4.48-1.59-6.83-6.51-5.24-10.99,1.17-3.29,2.35-6.56,3.54-9.79,1.65-4.46,6.6-6.74,11.06-5.1,4.46,1.65,6.74,6.6,5.1,11.06-1.17,3.17-2.33,6.36-3.47,9.59-1.25,3.53-4.57,5.74-8.12,5.74Zm12.16-32.11c-1.07,0-2.16-.2-3.22-.63-4.41-1.78-6.54-6.8-4.76-11.21,1.31-3.25,2.64-6.46,3.97-9.64,1.85-4.39,6.91-6.43,11.27-4.6,4.38,1.84,6.44,6.89,4.6,11.27-1.31,3.11-2.6,6.25-3.88,9.41-1.36,3.35-4.58,5.39-7.99,5.39Zm13.62-31.51c-1.2,0-2.43-.25-3.6-.8-4.32-1.99-6.2-7.11-4.21-11.42,1.47-3.18,2.96-6.33,4.46-9.45,2.06-4.28,7.21-6.09,11.49-4.02,4.28,2.06,6.08,7.21,4.02,11.49-1.46,3.03-2.91,6.09-4.34,9.19-1.45,3.15-4.57,5-7.82,5Zm15.25-30.76c-1.36,0-2.75-.33-4.03-1.01-4.2-2.23-5.79-7.44-3.56-11.64,1.64-3.1,3.31-6.16,5-9.19,2.31-4.16,7.55-5.66,11.71-3.34,4.16,2.31,5.66,7.55,3.34,11.71-1.63,2.94-3.25,5.91-4.84,8.91-1.55,2.91-4.53,4.57-7.61,4.57Zm17.04-29.78c-1.54,0-3.1-.41-4.51-1.28-4.05-2.49-5.31-7.8-2.82-11.84,1.84-2.99,3.71-5.95,5.59-8.87,2.58-4,7.91-5.14,11.9-2.57,3.99,2.58,5.15,7.91,2.57,11.9-1.82,2.82-3.62,5.67-5.4,8.56-1.62,2.64-4.45,4.1-7.34,4.1Zm19.02-28.55c-1.74,0-3.5-.53-5.02-1.62-3.86-2.78-4.74-8.16-1.96-12.02,2.05-2.85,4.13-5.67,6.23-8.45,2.86-3.8,8.26-4.55,12.06-1.68,3.79,2.86,4.55,8.26,1.68,12.06-2.02,2.67-4.01,5.38-5.99,8.13-1.68,2.34-4.32,3.58-6.99,3.58Zm21.11-27.03c-1.97,0-3.95-.67-5.56-2.04-3.63-3.07-4.07-8.51-1-12.13,2.28-2.69,4.58-5.33,6.91-7.93,3.17-3.54,8.61-3.85,12.16-.68,3.55,3.17,3.85,8.61,.68,12.16-2.23,2.49-4.43,5.02-6.62,7.6-1.7,2.01-4.13,3.04-6.57,3.04Zm23.29-25.17c-2.22,0-4.43-.85-6.11-2.55-3.35-3.38-3.33-8.83,.05-12.17,2.5-2.48,5.03-4.92,7.59-7.31,3.47-3.26,8.92-3.07,12.17,.4,3.25,3.47,3.07,8.92-.4,12.17-2.44,2.29-4.85,4.61-7.24,6.97-1.68,1.67-3.87,2.5-6.06,2.5Zm25.44-22.98c-2.49,0-4.95-1.07-6.66-3.14-3.02-3.68-2.49-9.1,1.18-12.12,2.72-2.23,5.46-4.42,8.24-6.57,3.75-2.92,9.16-2.23,12.08,1.53,2.91,3.76,2.23,9.17-1.53,12.08-2.64,2.05-5.26,4.14-7.85,6.27-1.6,1.32-3.54,1.96-5.46,1.96Zm27.48-20.49c-2.77,0-5.48-1.33-7.15-3.8-2.66-3.94-1.62-9.29,2.33-11.95,2.91-1.96,5.85-3.89,8.82-5.77,4.01-2.55,9.34-1.36,11.88,2.66,2.55,4.01,1.36,9.34-2.66,11.88-2.83,1.8-5.64,3.63-8.41,5.5-1.48,1-3.15,1.47-4.81,1.47Zm29.28-17.81c-3.05,0-6-1.62-7.56-4.49-2.28-4.18-.74-9.4,3.43-11.68,3.08-1.68,6.19-3.33,9.33-4.93,4.24-2.16,9.42-.49,11.58,3.75,2.16,4.23,.49,9.42-3.75,11.58-3,1.53-5.97,3.1-8.91,4.71-1.31,.71-2.73,1.05-4.12,1.05Zm30.82-15.06c-3.32,0-6.49-1.93-7.9-5.18-1.9-4.36,.1-9.43,4.46-11.33,3.21-1.4,6.44-2.76,9.7-4.07,4.43-1.79,9.43,.35,11.21,4.75,1.78,4.41-.34,9.43-4.75,11.21-3.12,1.27-6.22,2.56-9.29,3.9-1.12,.49-2.29,.72-3.43,.72Zm31.98-12.34c-3.59,0-6.93-2.26-8.15-5.84-1.53-4.5,.88-9.39,5.38-10.92,3.31-1.12,6.64-2.21,9.99-3.26,4.54-1.42,9.37,1.1,10.79,5.64,1.42,4.54-1.1,9.37-5.64,10.79-3.23,1.01-6.42,2.05-9.6,3.13-.92,.31-1.85,.46-2.77,.46Zm32.88-9.78c-3.84,0-7.34-2.58-8.33-6.47-1.18-4.61,1.59-9.3,6.2-10.48,3.37-.86,6.75-1.7,10.17-2.5,4.61-1.11,9.26,1.78,10.36,6.4,1.09,4.63-1.78,9.27-6.4,10.36-3.31,.78-6.58,1.59-9.84,2.42-.72,.18-1.44,.27-2.15,.27Zm33.5-7.42c-4.06,0-7.67-2.88-8.45-7.01-.88-4.67,2.19-9.18,6.86-10.06,3.41-.64,6.85-1.26,10.31-1.84,4.68-.78,9.13,2.37,9.92,7.06,.79,4.69-2.37,9.13-7.06,9.92-3.35,.56-6.67,1.15-9.98,1.78-.54,.1-1.08,.15-1.61,.15Zm33.91-5.33c-4.27,0-7.97-3.17-8.53-7.52-.6-4.72,2.73-9.03,7.45-9.63,3.43-.44,6.89-.85,10.37-1.24,4.7-.5,8.98,2.88,9.51,7.61,.52,4.73-2.88,8.98-7.61,9.51-3.39,.38-6.75,.78-10.09,1.21-.37,.05-.74,.07-1.1,.07Zm34.16-3.47c-4.45,0-8.23-3.43-8.58-7.95-.36-4.74,3.19-8.88,7.92-9.25,3.45-.27,6.92-.51,10.4-.72,4.83-.37,8.83,3.31,9.13,8.06,.3,4.75-3.31,8.83-8.05,9.13-3.41,.21-6.79,.45-10.16,.71-.22,.02-.45,.02-.67,.02Zm34.29-1.85c-4.62,0-8.45-3.67-8.6-8.33-.15-4.75,3.57-8.73,8.33-8.88,3.45-.11,6.92-.2,10.41-.28h.18c4.68,0,8.51,3.74,8.61,8.43,.1,4.75-3.68,8.69-8.43,8.78-3.42,.07-6.82,.16-10.2,.27-.09,0-.19,0-.29,0Zm44.67-.33h-.14c-3.43-.05-6.84-.09-10.23-.11-4.75-.03-8.58-3.91-8.55-8.67,.03-4.73,3.88-8.55,8.61-8.55h.04c3.46,.02,6.92,.06,10.4,.11,4.76,.07,8.55,3.99,8.47,8.74-.07,4.71-3.91,8.47-8.61,8.47Z" fill="#fff"/><path d="M914.45,1926.85h-.19c-4.75-.1-8.52-4.04-8.42-8.79l.22-10.32c.11-4.69,3.94-8.41,8.61-8.41h.2c4.75,.11,8.52,4.05,8.41,8.8l-.22,10.3c-.1,4.69-3.94,8.42-8.61,8.42Zm.78-34.36h-.21c-4.75-.12-8.51-4.06-8.4-8.82l.25-10.31c.12-4.75,3.95-8.49,8.82-8.4,4.75,.12,8.51,4.06,8.4,8.82l-.25,10.3c-.11,4.68-3.95,8.4-8.61,8.4Zm.88-34.35c-.08,0-.16,0-.24,0-4.75-.13-8.5-4.09-8.37-8.84l.28-10.31c.13-4.76,4-8.57,8.84-8.37,4.76,.13,8.5,4.09,8.37,8.84l-.28,10.31c-.13,4.67-3.95,8.37-8.6,8.37Zm.97-34.35c-.09,0-.17,0-.26,0-4.76-.14-8.49-4.11-8.35-8.86l.31-10.31c.14-4.67,3.97-8.35,8.6-8.35,.09,0,.17,0,.27,0,4.75,.14,8.49,4.11,8.34,8.87l-.31,10.3c-.14,4.67-3.97,8.35-8.6,8.35Zm1.07-34.34c-.09,0-.19,0-.29,0-4.75-.16-8.48-4.14-8.32-8.89l.34-10.3c.16-4.76,4.18-8.58,8.89-8.32,4.75,.16,8.48,4.14,8.32,8.89l-.34,10.3c-.15,4.66-3.98,8.32-8.6,8.32Zm1.18-34.34c-.11,0-.21,0-.32,0-4.75-.17-8.47-4.16-8.3-8.91l.38-10.31c.17-4.65,3.99-8.29,8.6-8.29,.11,0,.22,0,.33,0,4.75,.18,8.46,4.18,8.29,8.93l-.38,10.29c-.17,4.65-3.99,8.3-8.6,8.3Zm1.3-34.33c-.12,0-.24,0-.35,0-4.75-.19-8.45-4.2-8.26-8.94l.41-10.3c.19-4.75,4.34-8.53,8.95-8.26,4.75,.19,8.45,4.2,8.26,8.95l-.41,10.3c-.18,4.64-4,8.27-8.6,8.27Zm1.42-34.33c-.13,0-.26,0-.38,0-4.75-.21-8.43-4.23-8.23-8.98l.45-10.3c.21-4.75,4.28-8.46,8.98-8.22,4.75,.21,8.43,4.23,8.22,8.98l-.45,10.3c-.2,4.62-4.01,8.23-8.6,8.23Zm1.55-34.33c-.14,0-.28,0-.42-.01-4.75-.22-8.42-4.26-8.19-9.01l.49-10.3c.23-4.75,4.2-8.44,9.01-8.19,4.75,.23,8.41,4.26,8.19,9.01l-.49,10.29c-.22,4.61-4.02,8.2-8.59,8.2Zm1.69-34.32c-.15,0-.3,0-.45-.01-4.75-.25-8.4-4.29-8.16-9.04l.54-10.31c.26-4.75,4.25-8.31,9.06-8.14,4.75,.25,8.39,4.31,8.14,9.06l-.54,10.28c-.24,4.6-4.04,8.17-8.59,8.17Zm1.85-34.31c-.16,0-.32,0-.48-.01-4.75-.26-8.38-4.33-8.12-9.07l.58-10.3c.27-4.75,4.29-8.38,9.09-8.11,4.75,.27,8.38,4.34,8.11,9.09l-.58,10.28c-.26,4.58-4.05,8.13-8.59,8.13Zm2-34.3c-.17,0-.35,0-.53-.01-4.75-.29-8.36-4.37-8.08-9.12l.63-10.3c.29-4.75,4.45-8.43,9.12-8.06,4.75,.29,8.36,4.38,8.06,9.12l-.63,10.28c-.28,4.57-4.07,8.09-8.59,8.09Zm2.17-34.29c-.19,0-.39,0-.58-.02-4.75-.32-8.33-4.42-8.02-9.16l.69-10.3c.32-4.75,4.5-8.36,9.17-8.01,4.75,.32,8.33,4.43,8.01,9.17l-.68,10.28c-.3,4.55-4.09,8.04-8.58,8.04Zm2.36-34.28c-.21,0-.41,0-.62-.02-4.74-.34-8.31-4.46-7.98-9.2l.75-10.31c.35-4.74,4.41-8.34,9.22-7.95,4.74,.35,8.3,4.48,7.95,9.22l-.74,10.26c-.32,4.53-4.1,8-8.58,8Zm2.56-34.26c-.22,0-.45,0-.68-.02-4.74-.37-8.28-4.51-7.91-9.26l.81-10.29c.38-4.74,4.5-8.29,9.27-7.9,4.74,.38,8.28,4.53,7.9,9.27l-.81,10.26c-.35,4.51-4.12,7.94-8.58,7.94Zm2.78-34.25c-.24,0-.49-.01-.74-.03-4.74-.4-8.25-4.57-7.85-9.31l.88-10.29c.41-4.74,4.6-8.19,9.32-7.84,4.74,.41,8.25,4.58,7.84,9.32l-.88,10.26c-.38,4.49-4.14,7.88-8.57,7.88Zm3.01-34.22c-.27,0-.53-.01-.8-.04-4.73-.44-8.22-4.63-7.79-9.36l.96-10.29c.45-4.73,4.61-8.19,9.38-7.76,4.73,.45,8.21,4.65,7.76,9.38l-.95,10.24c-.41,4.47-4.17,7.83-8.57,7.83Zm3.28-34.2c-.29,0-.57-.01-.86-.04-4.73-.47-8.19-4.69-7.72-9.42l1.04-10.28c.48-4.73,4.75-8.19,9.44-7.69,4.73,.49,8.17,4.71,7.69,9.44l-1.03,10.23c-.44,4.44-4.19,7.75-8.56,7.75Zm3.56-34.17c-.31,0-.62-.02-.93-.05-4.73-.51-8.15-4.76-7.64-9.48,.37-3.45,.75-6.87,1.13-10.28,.53-4.73,4.78-8.12,9.51-7.6,4.73,.53,8.13,4.79,7.6,9.51-.38,3.38-.75,6.79-1.12,10.21-.48,4.42-4.21,7.69-8.55,7.69Zm3.86-34.14c-.34,0-.67-.02-1.01-.06-4.73-.56-8.1-4.83-7.55-9.56l1.22-10.26c.57-4.72,4.85-8.04,9.58-7.52,4.72,.57,8.09,4.86,7.52,9.58l-1.22,10.21c-.52,4.38-4.24,7.61-8.54,7.61Zm4.2-34.1c-.37,0-.74-.02-1.11-.07-4.72-.61-8.04-4.93-7.43-9.64l1.34-10.24c.62-4.72,4.96-8.03,9.66-7.41,4.72,.62,8.03,4.95,7.41,9.66l-1.33,10.2c-.56,4.34-4.26,7.51-8.53,7.51Zm4.58-34.04c-.4,0-.81-.03-1.22-.09-4.71-.66-7.98-5.02-7.32-9.73l1.46-10.23c.68-4.71,5.04-7.97,9.75-7.29,4.71,.68,7.97,5.04,7.29,9.75l-1.45,10.18c-.61,4.3-4.29,7.41-8.51,7.41Zm4.99-33.99c-.43,0-.87-.03-1.32-.1-4.7-.72-7.92-5.11-7.21-9.82,.53-3.43,1.06-6.84,1.59-10.22,.74-4.69,5.15-7.88,9.85-7.16,4.7,.75,7.9,5.16,7.16,9.85-.53,3.36-1.06,6.74-1.58,10.14-.65,4.26-4.32,7.31-8.5,7.31Zm5.46-33.91c-.47,0-.95-.04-1.43-.12-4.69-.79-7.86-5.22-7.07-9.91,.57-3.43,1.16-6.83,1.75-10.21,.81-4.69,5.26-7.83,9.95-7.01,4.69,.81,7.82,5.27,7.01,9.95-.58,3.35-1.16,6.72-1.73,10.11-.7,4.21-4.35,7.19-8.48,7.19Zm5.97-33.82c-.52,0-1.05-.05-1.58-.15-4.68-.87-7.76-5.36-6.89-10.04,.63-3.42,1.27-6.81,1.91-10.18,.9-4.67,5.41-7.72,10.08-6.84,4.67,.89,7.73,5.4,6.84,10.08-.64,3.34-1.27,6.7-1.9,10.08-.77,4.14-4.39,7.04-8.45,7.04Zm6.56-33.72c-.57,0-1.15-.06-1.73-.17-4.66-.95-7.67-5.5-6.72-10.16,.7-3.41,1.4-6.79,2.11-10.15,.98-4.66,5.54-7.63,10.2-6.65,4.65,.98,7.63,5.55,6.65,10.2-.7,3.32-1.4,6.66-2.08,10.03-.83,4.08-4.42,6.89-8.43,6.89Zm7.22-33.57c-.63,0-1.27-.07-1.91-.21-4.64-1.05-7.54-5.66-6.49-10.3,.77-3.4,1.55-6.76,2.33-10.1,1.08-4.63,5.72-7.51,10.34-6.43,4.63,1.08,7.51,5.71,6.43,10.34-.77,3.3-1.54,6.63-2.3,9.99-.91,4-4.46,6.71-8.39,6.71Zm7.98-33.4c-.69,0-1.4-.08-2.11-.26-4.61-1.16-7.41-5.84-6.25-10.45,.85-3.38,1.71-6.73,2.58-10.05,1.19-4.6,5.91-7.37,10.5-6.16,4.6,1.2,7.36,5.9,6.16,10.5-.85,3.27-1.7,6.57-2.54,9.91-.98,3.91-4.49,6.51-8.34,6.51Zm8.84-33.18c-.78,0-1.56-.1-2.35-.33-4.58-1.29-7.24-6.05-5.94-10.63,.95-3.36,1.9-6.68,2.86-9.97,1.33-4.56,6.11-7.19,10.68-5.86,4.56,1.33,7.19,6.11,5.86,10.68-.95,3.25-1.89,6.53-2.83,9.84-1.07,3.79-4.52,6.27-8.28,6.27Zm9.84-32.89c-.87,0-1.75-.13-2.61-.41-4.53-1.44-7.03-6.28-5.59-10.81,1.06-3.33,2.12-6.62,3.2-9.88,1.49-4.51,6.36-6.96,10.87-5.49,4.52,1.49,6.97,6.35,5.49,10.87-1.06,3.21-2.1,6.45-3.15,9.72-1.16,3.66-4.55,6-8.2,6Zm10.99-32.51c-.97,0-1.95-.16-2.92-.51-4.47-1.61-6.8-6.54-5.19-11.02,1.19-3.3,2.39-6.55,3.59-9.78,1.67-4.45,6.65-6.7,11.09-5.04,4.45,1.67,6.71,6.63,5.04,11.09-1.18,3.15-2.35,6.34-3.51,9.56-1.27,3.51-4.57,5.7-8.1,5.7Zm12.33-32.03c-1.09,0-2.2-.21-3.27-.65-4.4-1.81-6.49-6.84-4.69-11.24,1.34-3.25,2.68-6.45,4.04-9.62,1.88-4.37,6.94-6.38,11.31-4.51,4.37,1.88,6.39,6.94,4.51,11.31-1.33,3.08-2.64,6.21-3.94,9.37-1.37,3.33-4.58,5.34-7.96,5.34Zm13.89-31.36c-1.24,0-2.5-.27-3.7-.84-4.29-2.04-6.11-7.19-4.06-11.47,1.51-3.18,3.04-6.31,4.58-9.39,2.12-4.26,7.29-5.99,11.55-3.86,4.26,2.12,5.98,7.29,3.86,11.55-1.5,3-2.98,6.03-4.45,9.12-1.47,3.1-4.56,4.91-7.78,4.91Zm15.7-30.48c-1.42,0-2.86-.35-4.18-1.09-4.16-2.31-5.65-7.56-3.33-11.71,1.72-3.09,3.45-6.13,5.2-9.11,2.41-4.1,7.68-5.47,11.78-3.07,4.1,2.41,5.48,7.68,3.07,11.78-1.69,2.88-3.36,5.8-5.01,8.77-1.57,2.83-4.51,4.42-7.53,4.42Zm17.78-29.31c-1.63,0-3.28-.46-4.74-1.43-3.97-2.62-5.06-7.96-2.44-11.93,1.95-2.95,3.92-5.85,5.91-8.7,2.73-3.9,8.1-4.84,11.99-2.13,3.9,2.73,4.85,8.09,2.13,11.99-1.91,2.73-3.79,5.5-5.66,8.33-1.65,2.51-4.4,3.87-7.19,3.87Zm20.12-27.73c-1.88,0-3.78-.61-5.36-1.88-3.72-2.96-4.33-8.38-1.36-12.1,2.21-2.77,4.44-5.48,6.69-8.14,3.07-3.63,8.51-4.08,12.13-1.01,3.63,3.07,4.08,8.5,1.01,12.13-2.14,2.53-4.27,5.12-6.37,7.76-1.7,2.13-4.21,3.24-6.74,3.24Zm22.66-25.68c-2.17,0-4.35-.82-6.03-2.46-3.4-3.33-3.45-8.78-.12-12.17,2.48-2.53,4.98-5,7.5-7.42,3.43-3.29,8.88-3.17,12.17,.27,3.29,3.43,3.17,8.88-.27,12.17-2.39,2.29-4.77,4.65-7.12,7.04-1.68,1.72-3.91,2.58-6.15,2.58Zm25.25-23.12c-2.49,0-4.96-1.07-6.66-3.15-3.01-3.67-2.48-9.1,1.2-12.12,2.74-2.25,5.51-4.44,8.31-6.57,3.79-2.88,9.19-2.15,12.07,1.62,2.88,3.78,2.15,9.19-1.62,12.07-2.64,2.01-5.25,4.07-7.83,6.19-1.6,1.31-3.53,1.95-5.46,1.95Zm27.68-20.13c-2.83,0-5.6-1.39-7.24-3.95-2.58-4-1.43-9.33,2.57-11.9,2.97-1.92,5.97-3.78,8.99-5.58,4.07-2.44,9.36-1.1,11.81,2.98,2.44,4.08,1.1,9.37-2.98,11.81-2.86,1.7-5.69,3.46-8.49,5.27-1.44,.93-3.06,1.38-4.66,1.38Zm29.78-16.93c-3.16,0-6.2-1.75-7.71-4.76-2.13-4.25-.4-9.42,3.85-11.55,3.13-1.57,6.3-3.09,9.49-4.56,4.32-1.99,9.43-.1,11.42,4.22,1.99,4.32,.1,9.43-4.22,11.42-3.02,1.39-6.02,2.84-9,4.32-1.24,.62-2.55,.91-3.84,.91Zm31.39-13.77c-3.46,0-6.73-2.1-8.04-5.53-1.7-4.44,.52-9.42,4.96-11.12,3.27-1.25,6.56-2.46,9.88-3.63,4.49-1.59,9.4,.77,10.98,5.26,1.58,4.48-.77,9.4-5.26,10.98-3.17,1.12-6.32,2.28-9.45,3.48-1.01,.39-2.06,.57-3.08,.57Zm32.52-10.9c-3.73,0-7.17-2.44-8.26-6.2-1.33-4.56,1.29-9.34,5.86-10.68,3.34-.97,6.71-1.92,10.1-2.83,4.57-1.22,9.31,1.49,10.55,6.09,1.23,4.59-1.49,9.31-6.09,10.55-3.27,.88-6.51,1.79-9.74,2.73-.81,.23-1.62,.35-2.41,.35Zm33.24-8.47c-3.95,0-7.5-2.73-8.4-6.74-1.03-4.64,1.89-9.24,6.53-10.27,3.38-.75,6.79-1.48,10.22-2.18,4.67-.96,9.21,2.05,10.16,6.71,.95,4.66-2.05,9.21-6.71,10.16-3.34,.68-6.65,1.39-9.93,2.12-.63,.14-1.26,.21-1.88,.21Zm33.7-6.56c-4.12,0-7.76-2.97-8.48-7.17-.8-4.69,2.36-9.14,7.04-9.93,3.41-.58,6.83-1.14,10.28-1.68,4.67-.74,9.11,2.47,9.84,7.17,.74,4.7-2.47,9.11-7.17,9.84-3.37,.53-6.73,1.08-10.06,1.65-.49,.08-.98,.12-1.46,.12Zm33.96-5.11c-4.25,0-7.95-3.15-8.52-7.48-.62-4.71,2.69-9.04,7.4-9.67,3.41-.45,6.84-.9,10.29-1.33,4.76-.58,9.02,2.77,9.61,7.48,.59,4.72-2.76,9.02-7.48,9.61-3.4,.42-6.79,.86-10.16,1.31-.38,.05-.77,.08-1.14,.08Zm34.11-4.09c-4.34,0-8.07-3.27-8.55-7.68-.51-4.73,2.9-8.97,7.63-9.49,3.42-.37,6.85-.73,10.3-1.09,4.77-.51,8.96,2.96,9.44,7.69,.48,4.73-2.96,8.96-7.69,9.44-3.42,.35-6.82,.71-10.2,1.07-.32,.04-.63,.05-.94,.05Z" fill="#fff"/><path d="M1026.13,1918.03l-.03-10.32c-.01-4.76,3.84-8.62,8.59-8.63h.02c4.75,0,8.6,3.84,8.61,8.59l.03,10.21-17.22,.14Zm8.56-25.79c-4.76,0-8.61-3.85-8.61-8.61v-10.32c.01-4.75,3.86-8.6,8.62-8.6h.01c4.75,0,8.61,3.86,8.6,8.62v10.3c0,4.76-3.86,8.61-8.62,8.61Zm.06-34.36h-.03c-4.76-.02-8.6-3.89-8.58-8.64l.04-10.32c.02-4.74,3.87-8.57,8.61-8.57h.04c4.75,.02,8.59,3.9,8.57,8.65l-.04,10.3c-.02,4.74-3.87,8.58-8.61,8.58Zm.19-34.36h-.06c-4.76-.03-8.59-3.91-8.55-8.67l.08-10.33c.04-4.73,3.89-8.53,8.61-8.53h.08c4.75,.04,8.58,3.93,8.53,8.69l-.08,10.29c-.03,4.74-3.88,8.55-8.61,8.55Zm.32-34.36h-.1c-4.76-.05-8.57-3.95-8.51-8.71l.12-10.32c.06-4.72,3.9-8.5,8.61-8.5h.11c4.75,.06,8.56,3.96,8.5,8.72l-.12,10.3c-.05,4.72-3.9,8.51-8.61,8.51Zm.47-34.37h-.14c-4.76-.07-8.55-3.99-8.47-8.74l.17-10.32c.08-4.76,4.03-8.56,8.75-8.46,4.75,.08,8.54,4,8.46,8.75l-.17,10.3c-.07,4.71-3.91,8.47-8.61,8.47Zm.62-34.36h-.18c-4.76-.1-8.53-4.03-8.43-8.78l.22-10.32c.1-4.76,3.93-8.57,8.79-8.42,4.76,.1,8.52,4.04,8.42,8.79l-.22,10.3c-.1,4.69-3.93,8.43-8.61,8.43Zm.78-34.36h-.22c-4.75-.12-8.51-4.07-8.39-8.83l.27-10.32c.12-4.75,4.04-8.6,8.83-8.38,4.75,.12,8.5,4.08,8.38,8.83l-.27,10.3c-.12,4.68-3.95,8.39-8.6,8.39Zm.96-34.35c-.09,0-.17,0-.26,0-4.76-.14-8.49-4.11-8.35-8.86l.32-10.32c.15-4.66,3.97-8.33,8.6-8.33,.1,0,.19,0,.29,0,4.75,.15,8.48,4.13,8.33,8.88l-.32,10.28c-.14,4.67-3.97,8.35-8.6,8.35Zm1.14-34.34c-.11,0-.21,0-.32,0-4.75-.17-8.47-4.17-8.3-8.91l.39-10.32c.18-4.75,4.23-8.54,8.93-8.27,4.75,.18,8.46,4.18,8.27,8.93l-.38,10.28c-.17,4.65-3.99,8.3-8.6,8.3Zm1.34-34.34c-.12,0-.25,0-.37,0-4.75-.2-8.44-4.21-8.24-8.96l.44-10.32c.21-4.75,4.35-8.42,8.98-8.22,4.75,.21,8.43,4.23,8.22,8.98l-.44,10.28c-.19,4.63-4.01,8.25-8.6,8.25Zm1.56-34.32c-.14,0-.28,0-.42-.01-4.75-.22-8.42-4.26-8.19-9.01l.51-10.33c.24-4.75,4.22-8.38,9.04-8.16,4.75,.24,8.4,4.29,8.16,9.04l-.51,10.27c-.22,4.61-4.02,8.2-8.59,8.2Zm1.79-34.32c-.16,0-.32,0-.48-.01-4.75-.26-8.38-4.33-8.12-9.07l.58-10.31c.28-4.75,4.4-8.36,9.09-8.1,4.75,.28,8.37,4.35,8.1,9.09l-.58,10.27c-.26,4.58-4.05,8.13-8.59,8.13Zm2.03-34.3c-.18,0-.36,0-.54-.02-4.75-.3-8.35-4.38-8.05-9.13,.21-3.45,.44-6.89,.66-10.32,.31-4.75,4.45-8.38,9.16-8.03,4.75,.31,8.34,4.41,8.03,9.16-.22,3.41-.45,6.83-.66,10.26-.28,4.56-4.07,8.07-8.59,8.07Zm2.31-34.29c-.21,0-.42,0-.63-.02-4.74-.34-8.31-4.47-7.97-9.21l.75-10.29c.35-4.74,4.45-8.3,9.22-7.95,4.74,.35,8.3,4.48,7.95,9.22l-.75,10.27c-.33,4.53-4.11,7.99-8.58,7.99Zm2.6-34.26c-.23,0-.47,0-.7-.03-4.74-.38-8.27-4.54-7.89-9.28l.84-10.29c.39-4.74,4.55-8.3,9.29-7.87,4.74,.39,8.26,4.55,7.87,9.29l-.84,10.26c-.37,4.5-4.13,7.91-8.57,7.91Zm2.91-34.24c-.26,0-.52-.01-.78-.03-4.74-.43-8.23-4.61-7.8-9.35,.31-3.44,.62-6.88,.94-10.29,.44-4.73,4.64-8.23,9.37-7.77,4.74,.44,8.21,4.64,7.77,9.37-.32,3.4-.63,6.81-.94,10.23-.4,4.47-4.16,7.84-8.57,7.84Zm3.26-34.2c-.29,0-.58-.02-.87-.05-4.73-.48-8.18-4.7-7.7-9.43,.35-3.44,.69-6.87,1.05-10.29,.49-4.73,4.69-8.21,9.46-7.67,4.73,.49,8.16,4.73,7.67,9.46-.35,3.39-.7,6.8-1.05,10.22-.45,4.44-4.19,7.75-8.56,7.75Zm3.64-34.16c-.32,0-.64-.02-.97-.06-4.73-.53-8.13-4.79-7.59-9.52,.39-3.44,.78-6.87,1.17-10.28,.55-4.72,4.81-8.11,9.55-7.55,4.72,.55,8.11,4.83,7.55,9.55-.4,3.39-.78,6.79-1.17,10.21-.49,4.4-4.22,7.65-8.55,7.65Zm4.04-34.12c-.36,0-.72-.02-1.08-.07-4.72-.59-8.07-4.9-7.47-9.61,.43-3.44,.87-6.86,1.31-10.26,.61-4.72,4.92-8.07,9.65-7.43,4.72,.61,8.04,4.93,7.43,9.65-.44,3.38-.87,6.78-1.3,10.19-.54,4.36-4.25,7.54-8.53,7.54Zm4.51-34.06c-.4,0-.8-.03-1.2-.08-4.71-.66-7.99-5.01-7.34-9.72,.48-3.43,.96-6.85,1.45-10.24,.68-4.71,5.03-7.98,9.75-7.3,4.71,.68,7.97,5.04,7.3,9.75-.48,3.37-.97,6.76-1.44,10.17-.6,4.31-4.29,7.42-8.52,7.42Zm5-34c-.44,0-.88-.03-1.33-.1-4.7-.73-7.91-5.13-7.19-9.83,.53-3.43,1.07-6.83,1.61-10.22,.75-4.7,5.18-7.89,9.86-7.14,4.7,.75,7.89,5.17,7.14,9.86-.54,3.37-1.07,6.75-1.6,10.15-.66,4.25-4.33,7.29-8.5,7.29Zm5.56-33.9c-.49,0-.98-.04-1.48-.13-4.69-.81-7.83-5.27-7.01-9.95,.59-3.42,1.19-6.82,1.8-10.2,.84-4.68,5.33-7.83,9.99-6.96,4.68,.84,7.8,5.31,6.96,9.99-.6,3.35-1.19,6.72-1.78,10.11-.73,4.19-4.36,7.14-8.47,7.14Zm6.17-33.8c-.54,0-1.08-.05-1.63-.16-4.67-.9-7.73-5.41-6.83-10.08,.65-3.42,1.32-6.81,1.99-10.18,.93-4.67,5.47-7.7,10.13-6.76,4.66,.93,7.69,5.46,6.76,10.13-.66,3.33-1.32,6.68-1.97,10.05-.79,4.12-4.4,6.99-8.44,6.99Zm6.84-33.67c-.6,0-1.21-.06-1.82-.19-4.65-1-7.61-5.58-6.6-10.23,.73-3.4,1.47-6.78,2.22-10.13,1.03-4.64,5.64-7.58,10.27-6.53,4.64,1.03,7.57,5.63,6.53,10.27-.74,3.32-1.46,6.65-2.19,10.01-.87,4.04-4.44,6.8-8.41,6.8Zm7.61-33.5c-.67,0-1.34-.08-2.02-.24-4.62-1.11-7.47-5.76-6.36-10.38,.81-3.38,1.63-6.74,2.46-10.07,1.14-4.62,5.82-7.42,10.43-6.28,4.61,1.15,7.43,5.82,6.28,10.43-.82,3.29-1.63,6.61-2.43,9.95-.95,3.95-4.48,6.6-8.36,6.6Zm8.46-33.28c-.74,0-1.49-.1-2.24-.3-4.59-1.23-7.32-5.95-6.09-10.55,.9-3.37,1.82-6.71,2.74-10.03,1.28-4.58,6.02-7.26,10.6-5.98,4.58,1.28,7.26,6.02,5.98,10.6-.91,3.26-1.81,6.55-2.69,9.86-1.03,3.85-4.51,6.38-8.31,6.38Zm9.41-33.04c-.82,0-1.66-.12-2.48-.37-4.55-1.37-7.14-6.18-5.77-10.73,1.01-3.35,2.03-6.66,3.06-9.94,1.42-4.54,6.26-7.06,10.79-5.64,4.54,1.42,7.06,6.25,5.64,10.79-1.01,3.23-2.01,6.48-3,9.76-1.12,3.73-4.54,6.13-8.24,6.13Zm10.48-32.7c-.92,0-1.85-.15-2.77-.46-4.5-1.53-6.91-6.42-5.38-10.92,1.13-3.31,2.26-6.58,3.41-9.84,1.59-4.48,6.5-6.84,10.99-5.25,4.48,1.59,6.83,6.5,5.25,10.99-1.13,3.19-2.24,6.4-3.34,9.64-1.22,3.58-4.57,5.84-8.15,5.84Zm11.69-32.29c-1.03,0-2.07-.18-3.09-.58-4.44-1.71-6.65-6.69-4.94-11.13,1.26-3.26,2.52-6.49,3.81-9.7,1.77-4.41,6.77-6.57,11.2-4.79,4.41,1.77,6.56,6.78,4.79,11.19-1.25,3.13-2.49,6.29-3.72,9.48-1.32,3.42-4.58,5.52-8.04,5.52Zm13.06-31.76c-1.15,0-2.33-.23-3.45-.73-4.36-1.91-6.34-6.98-4.44-11.34,1.4-3.21,2.83-6.39,4.26-9.53,1.97-4.33,7.08-6.23,11.41-4.26,4.33,1.97,6.23,7.08,4.26,11.41-1.4,3.06-2.78,6.16-4.15,9.28-1.41,3.24-4.57,5.16-7.89,5.16Zm14.57-31.08c-1.3,0-2.61-.3-3.85-.92-4.25-2.13-5.97-7.31-3.84-11.56,1.57-3.13,3.16-6.24,4.77-9.3,2.2-4.22,7.41-5.84,11.62-3.64,4.22,2.2,5.84,7.41,3.64,11.62-1.56,2.98-3.1,5.99-4.63,9.04-1.51,3.01-4.55,4.75-7.7,4.75Zm16.27-30.22c-1.46,0-2.95-.37-4.31-1.16-4.11-2.38-5.52-7.65-3.14-11.77,1.76-3.04,3.53-6.04,5.32-9,2.45-4.08,7.75-5.39,11.82-2.92,4.07,2.46,5.38,7.75,2.92,11.82-1.73,2.88-3.45,5.79-5.16,8.74-1.6,2.76-4.49,4.3-7.46,4.3Zm18.13-29.13c-1.65,0-3.32-.47-4.79-1.46-3.95-2.65-5-8-2.35-11.95,1.96-2.92,3.94-5.8,5.93-8.64,2.74-3.89,8.1-4.82,12-2.1,3.89,2.73,4.83,8.1,2.1,12-1.93,2.74-3.84,5.53-5.73,8.35-1.66,2.47-4.38,3.81-7.16,3.81Zm20.14-27.78c-1.86,0-3.73-.6-5.31-1.83-3.74-2.93-4.4-8.35-1.46-12.09,2.17-2.77,4.37-5.5,6.58-8.19,3.03-3.67,8.45-4.18,12.12-1.17,3.67,3.02,4.19,8.45,1.17,12.12-2.13,2.58-4.24,5.2-6.32,7.86-1.7,2.16-4.23,3.3-6.78,3.3Zm22.25-26.11c-2.09,0-4.19-.76-5.85-2.29-3.49-3.23-3.7-8.68-.47-12.17,2.4-2.58,4.81-5.12,7.25-7.63,3.31-3.41,8.77-3.48,12.17-.15,3.4,3.32,3.47,8.77,.15,12.17-2.34,2.39-4.65,4.83-6.94,7.3-1.7,1.83-4.01,2.76-6.32,2.76Zm24.38-24.12c-2.35,0-4.68-.95-6.38-2.83-3.19-3.52-2.93-8.97,.6-12.16,2.61-2.36,5.24-4.69,7.9-6.96,3.61-3.09,9.05-2.68,12.14,.93,3.1,3.61,2.68,9.05-.93,12.14-2.54,2.18-5.05,4.39-7.54,6.66-1.65,1.49-3.72,2.23-5.78,2.23Zm26.43-21.85c-2.61,0-5.2-1.18-6.89-3.43-2.86-3.8-2.09-9.2,1.7-12.06,2.81-2.11,5.64-4.19,8.5-6.22,3.87-2.75,9.25-1.85,12.01,2.03,2.76,3.88,1.85,9.25-2.03,12.01-2.73,1.94-5.44,3.92-8.12,5.94-1.55,1.17-3.37,1.73-5.17,1.73Zm28.31-19.35c-2.88,0-5.7-1.45-7.33-4.08-2.5-4.04-1.26-9.35,2.79-11.85,2.98-1.84,5.97-3.64,9-5.41,4.11-2.39,9.38-1.01,11.77,3.1,2.4,4.11,1.01,9.38-3.1,11.77-2.89,1.69-5.76,3.41-8.61,5.17-1.41,.87-2.98,1.29-4.53,1.29Zm29.93-16.75c-3.15,0-6.19-1.74-7.7-4.74-2.14-4.25-.43-9.42,3.82-11.56,3.13-1.58,6.3-3.12,9.48-4.63,4.31-2.04,9.44-.19,11.46,4.1,2.03,4.3,.2,9.43-4.1,11.46-3.06,1.45-6.09,2.93-9.11,4.44-1.24,.63-2.56,.92-3.86,.92Zm31.28-14.18c-3.4,0-6.63-2.03-7.98-5.38-1.79-4.41,.34-9.43,4.74-11.21,3.23-1.31,6.49-2.59,9.77-3.83,4.44-1.67,9.41,.55,11.1,5,1.68,4.45-.55,9.42-5,11.11-3.16,1.2-6.3,2.43-9.41,3.69-1.06,.43-2.15,.63-3.23,.63Zm32.25-11.69c-3.64,0-7.02-2.33-8.19-5.98-1.46-4.53,1.03-9.38,5.56-10.83,3.31-1.06,6.65-2.1,10-3.1,4.55-1.38,9.35,1.22,10.72,5.77,1.37,4.55-1.22,9.35-5.77,10.72-3.25,.97-6.47,1.97-9.68,3-.88,.28-1.77,.42-2.64,.42Z" fill="#fff"/></g><rect x="577.43" y="1902.44" width="1165.68" height="142.74" rx="7.68" ry="7.68" fill="#f9c491"/></g><g><path d="M2024.82,453.98s10.04,261.66,192.8,345l-81.16,56.74s-164.64-185.46-139.72-351.93l28.08-49.81Z" fill="url(#b)"/><g><path d="M1546.07,240.64h258.16v19.93c0,4.51-3.66,8.18-8.18,8.18h-241.8c-4.51,0-8.18-3.66-8.18-8.18v-19.93h0Z" transform="translate(2784.37 -1026.18) rotate(122.25)" fill="#454545"/><polygon points="1742.2 485.92 1491.35 587.98 1500.98 620.51 1932.06 651.24 1742.2 485.92" fill="#454545"/><path d="M2100.17,280.6c.23-.36,.45-.74,.66-1.12l30.71-54.9c18.85-33.7,4.3-77.84-32.43-98.39l-107.77-60.29c-36.74-20.55-81.97-9.85-100.82,23.84l-30.71,54.9c-6.54,11.68-2.36,26.46,9.32,32.99,11.68,6.54,26.45,2.35,32.99-9.32l30.71-54.9c5.7-10.21,21.66-12.58,34.84-5.2l107.77,60.29c13.18,7.37,19.5,22.21,13.79,32.41l-30.71,54.9c-6.54,11.68-2.36,26.46,9.32,32.99,11.3,6.32,25.5,2.62,32.33-8.2Z" fill="#454545"/><path d="M1593.83,396.26l171.02-271.08c9.99-15.83,30.6-21.12,46.98-12.04l290.95,161.25c.58,.32,1.16,.66,1.72,1.02l37.96,23.95c16.49,10.4,21.43,32.21,11.02,48.7l-191.16,303c-10.4,16.49-32.21,21.43-48.7,11.02l-37.96-23.95c-.57-.36-1.12-.73-1.66-1.12l-270.82-193.16c-15.24-10.87-19.35-31.75-9.36-47.58Z" fill="#454545"/><path d="M1435.34,685.92l-15.65-152.79c-.25-2.44,1.53-4.62,3.96-4.87l9.92-1.02c.96-.1,1.92,.12,2.74,.61l60.45,57.39,4.37,35.99-48.45,66.48c-.71,.65-1.6,1.06-2.56,1.15l-9.92,1.02c-2.44,.25-4.62-1.53-4.87-3.96Z" fill="#454545"/><path d="M2033.23,476.52c-.94,0-1.89-.26-2.75-.8-2.41-1.52-3.13-4.7-1.61-7.11l77.81-123.34c2.58-4.08,3.34-8.91,2.14-13.59-1.2-4.68-4.18-8.55-8.41-10.9l-207.91-115.5c-2.49-1.38-3.39-4.52-2-7.01,1.38-2.49,4.53-3.39,7.01-2l207.91,115.5c6.73,3.74,11.48,9.9,13.39,17.36,1.91,7.45,.69,15.14-3.41,21.65l-77.81,123.34c-.98,1.55-2.65,2.4-4.36,2.4Z" fill="#fff"/></g><g><path d="M2150.7,1342.97s106.83,232.85,162.89,329.29c0,0,11.13,60.68,0,79.77l-9.49,4.22,44.28-1.32s3.93-81.63,.86-86.19c-3.07-4.56-9.22-4.26-9.22-4.26,0,0-18.99-150.42-73.97-182.52l-53.29-183.54-62.06,44.55Z" fill="url(#c)"/><path d="M2285.19,1767.68c-.07,1.07,34.58,.58,53.39,.24,6.95-.13,12.87-5.01,14.35-11.8l14.21-74.66c1.35-7.1-3.16-13.99-10.2-15.6l-7.93-1.81s-11.32,15.52-7.75,30.14c3.56,14.61,6.73,52.47-2.27,56.88-9,4.41-34.9,5.18-34.9,5.18,0,0-18.32,1.82-18.91,11.43Z" fill="#454545"/><path d="M2260.02,1459.37l-57.9-320.66-106.89,66.8s71.87,200.9,111.34,280.57c39.47,79.68,93.52,169.24,93.52,169.24,0,0,17.81,4.45,40.08-22.27,0,0-13.36-120.25-80.16-173.69Z" fill="#454545"/><path d="M2049.44,1769.03c-3.5,2-2.06,7.35,1.97,7.31,31.49-.32,102.06-1.31,108.33-3.92,8.1-3.37-2.95-32.46-14.58-42.3l-64.19,20.95-31.54,17.97Z" fill="#454545"/><path d="M2029.52,1328.12s69.04,333.98,88.57,399.13l-46.2,28.99s23.15-3.94,40.32-5.18c17.17-1.24,32.96-20.95,32.96-20.95l-5.53-8.83s-17.31-332.17-13.1-369.88l-97.02-23.28Z" fill="url(#d)"/><path d="M2001.29,798.6c26.46,7.34,116.11,30.92,172.08,29.96l-34.36,193.92,2.73,31.63-112.04-.5s-31.54-73.25-56.42-109.77c-7.19-10.55-1.84-23.13,2.24-35.22l-5.6-3.73c-5.7-3.79-8.16-10.91-6.04-17.42l27.28-83.47c1.42-4.21,5.85-6.58,10.13-5.39Z" fill="#fdac53"/><path d="M2020.72,1037.04l1.66,14.44c.34,2.96,.02,5.93-.98,8.75-5.31,15.04-22.13,71.62-10.78,158.65,0,0,64.94,25.07,133.28,5.9,38.5-10.8,62.96-48.42,57.42-88.02-1.56-11.18-4.4-20.03-5.53-23.63-8.96-28.68-36.83-48.54-48.66-55.89-3.4-2.11-5.52-5.79-5.7-9.79l-.67-14.29s-90.42,16.35-120.04,3.88Z" fill="#454545"/><path d="M2064.58,814.23c-.39-.52,23.39-71.81,23.39-71.81l34.07,3.09,13.31,80.87s-53.39,10.78-70.77-12.15Z" fill="url(#e)"/><path d="M2113.88,630c-2.27,1.41-72.8,30.56-57.64,103.78,.9,4.33,3.78,7.99,7.82,9.79,10.35,4.62,32.63,12.52,59.28,9.81,36.95-3.76,61.16-68.23,60.13-86.99-1.03-18.76-47.06-50.42-69.58-36.4Z" fill="url(#f)"/><path d="M1995.49,839.21c3.67-9.55-3.09-19.82-13.31-20.29-25.99-1.2-71.18-9.4-109.43-47.65-24.81-24.81-31.38-115.07-31.38-115.07,0,0-5.23-41.85-15.69-41.85s0,26.15,0,26.15c0,0-26.15,15.69-52.31-5.23-26.15-20.92,5.23,31.38,31.38,41.85,0,0-10.05,206.07,161.99,209.28,6.3,.12,12.03-3.73,14.3-9.61l14.45-37.58Z" fill="url(#g)"/><path d="M2089.95,777.83c0-13.78,2.88-26.89,8.08-38.75,5.85-13.37,4.65-28.99-4.71-40.19-15.32-18.33-20.88-41.57-12.44-61.92,13.18-31.77,55.46-44.42,94.42-28.25,27.62,11.46,46.13,34.32,49.87,57.98,2.15,13.59,9.43,25.73,20.37,34.08,15.51,11.84,27.33,28.27,33.46,47.26,4.14,12.83,12.46,23.88,24.18,30.56,26.45,15.09,48.5,38.39,61.85,68.29,33.49,74.99-.35,163.02-75.58,196.63-75.24,33.6-163.38,.05-196.87-74.94-18.61-41.66-16.41-87.34,2.11-125.48,4.65-9.57,5.62-20.59,1.77-30.51-4.19-10.78-6.51-22.49-6.51-34.75Z" fill="url(#h)"/><path d="M2148.69,1704.32c6.06-1.73-22.27-449.81-22.27-449.81l17.81-44.54-133.61,8.91s53.44,405.27,84.62,489.89c0,0,22.27,4.45,53.44-4.45Z" fill="#454545"/><path d="M2029.52,806.02l24.59,5.87s-16.76,166.49,27.77,228.84l-26.72,4.45s-46.83-95.34-25.64-239.17Z" fill="#454545"/></g></g></svg>