<?xml version="1.0" encoding="UTF-8"?><svg xmlns="http://www.w3.org/2000/svg" viewBox="0 0 408.89 332.43"><g isolation="isolate"><g id="a"><g><path d="M183.34,82.97c.26,.04,.37-.55,.48-.71,.21-.33,2.17-1.14,1.88-1.38-.35-.3-1-.28-1.41-.22-.42,.06-.97,.25-1.18,.6-.27,.46-.26,1.15,.06,1.58,.06,.08,.12,.12,.17,.13Z" fill="#e8a393"/><path d="M186.77,80.33c.25,.05,1.33,.43,1.43-.03,.11-.54-1.01-.8-1.34-.76-.48,.06-.96-.07-1.57,.09-.48,.12-.93,.24-1.41,.36-.26,.06-.47,.27-.72,.38-.2,.08-.61,.35-.95,.35-.08,0-.22-.03-.37-.06-.02,.06-.02,.12-.04,.18-.27,.72-.55,1.32-.87,1.95,.34,.05,1,.04,1.21,0,.28-.05,.47,.02,.73,.11,.23,.08,.45,.17,.68,.25,.18,.07,.81,.44,1.01,.48,.17,.03,.51,.08,.62-.21,.13-.33-.13-.53-.27-.65-.24-.21-1.61-.3-1.46-.77,.07-.21,.26-.39,.41-.55,.17-.19,.35-.24,.59-.32,.45-.15,.92-.2,1.39-.12,.29,.05,1.15,.37,1.4,.19,.43-.31,.05-.6-.36-.74-.1-.03-.38-.1-.48-.14,.15,0,.29,0,.39,.01Z" fill="#fcd4ca"/></g><path d="M148.77,62.78c1.9-1.77,4.86-1.75,6.89-.14,3.34,2.64,9.57,7.52,11.59,8.87,2.8,1.88,15.23,8.6,15.23,8.6l-1.58,3.49s-15.32-5.64-17.54-7.16c-2.21-1.52-14.91-8.09-15.6-11.02-.24-1.03,.23-1.93,1-2.65Z" fill="#f35dad"/><path d="M148.77,62.78c1.9-1.77,4.86-1.75,6.89-.14,3.34,2.64,9.57,7.52,11.59,8.87,2.8,1.88,15.23,8.6,15.23,8.6l-1.58,3.49s-15.32-5.64-17.54-7.16c-2.21-1.52-14.91-8.09-15.6-11.02-.24-1.03,.23-1.93,1-2.65Z" fill="#f685c3"/><path d="M148.77,62.78c1.9-1.77,4.86-1.75,6.89-.14,3.34,2.64,9.57,7.52,11.59,8.87,2.8,1.88,15.23,8.6,15.23,8.6l-1.58,3.49s-15.32-5.64-17.54-7.16c-2.21-1.52-14.91-8.09-15.6-11.02-.24-1.03,.23-1.93,1-2.65Z" fill="#f99128"/><ellipse cx="366.71" cy="286.47" rx="28.58" ry="5.94" fill="#ededed"/><path d="M73.04,299.41c0,3.38-16.35,6.11-36.52,6.11s-36.52-2.74-36.52-6.11,16.35-6.11,36.52-6.11,36.52,2.74,36.52,6.11Z" fill="#ededed"/><ellipse cx="277.73" cy="312.12" rx="58.58" ry="5.74" fill="#ededed"/><ellipse cx="188.23" cy="286.44" rx="180.03" ry="17.64" fill="#ededed"/><g><path d="M387.39,188.79l6.14,13.62s-1.8,2.02-2.39,1.57c-.6-.45-9.8-11.5-10.7-12.07-.9-.57,6.96-3.12,6.96-3.12Z" fill="#e2e2e2"/><path d="M382.4,193.69c1.42-.79,3.03-.96,4.54-1.52,.59-.22,1.13-.46,1.67-.67l-1.22-2.71s-7.86,2.54-6.96,3.12c.21,.14,.89,.86,1.81,1.89,.06-.04,.1-.08,.16-.11Z" fill="#454545"/><path d="M372.18,190.48s.02,3.92,2.42,4.81c0,0,12.27-5.08,14.74-5.57,2.47-.49,11.45-.56,11.45-.56l-9.05-16.16s-4.34,8.68-8.31,11.52c-3.97,2.84-11.25,5.96-11.25,5.96Z" fill="#fdac53"/><path d="M380.14,193.05c.97-.39,1.98-.78,2.98-1.17-1.5-1.69-2.28-4.05-2.58-5.54-.93,.53-1.9,1.05-2.83,1.52,.42,2.12,1.31,3.88,2.43,5.18Z" fill="#3d1d00"/><path d="M404.13,177.16c2.56,6.17,1.65,12.4-2.02,13.92-3.67,1.52-8.72-2.24-11.27-8.41-2.56-6.17-1.65-12.4,2.02-13.92,3.67-1.52,8.72,2.24,11.27,8.41Z" fill="#fdac53"/><path d="M403.63,177.36c2.17,5.24,1.41,10.55-1.72,11.84s-7.42-1.91-9.59-7.15c-2.17-5.24-1.41-10.55,1.72-11.84,3.12-1.29,7.42,1.91,9.59,7.15Z" fill="#3d1d00"/><path d="M386.56,198.28c-.23-.14-.16-.98-.12-1.2,.07-.34,.31-.79,.07-1.12-.42-.58-1.02,.98-1.09,1.21-.15,.44-.2,.73-.11,1.04,.08,.26,.54,1.08,.91,1.37-.04,.16-.09,.32-.15,.49,.45,.2,.7,.33,1.14,.58,.46,.26,.43,.59,.86,.88l.43-.98c-.18-.22-1.56-2.04-1.94-2.27Z" fill="#fcd4ca"/><path d="M390.51,194.06c-.41-.44-1.05-.27-1.54,.09-.36,.26-1.4,1.11-1.12,1.72,.23,.51,1.57-.62,1.57-.62-.49,.42-1.41,.76-1.18,1.19,.26,.47,1.43-.2,1.68-.39-.26,.07-1.57,.86-1.05,1.27,.36,.28,1.32-.31,1.61-.51-.39,.12-.91,.46-.81,.99,.17,.29,.75,.1,1.07-.03,.49-.2,.95-.28,.99-.88,0-.11,.02-.21,.02-.33-.02-.44-.22-.94-.43-1.32-.23-.43-.5-.84-.81-1.17Z" fill="#fcd4ca"/><path d="M365.71,182.88s-4.74-2.29-8.33,.3c-3.59,2.59-3.44,7.38-3.34,10.37,.1,2.99-.9,4.59-2.99,6.68-2.1,2.1-2.29,3.79-1.2,8.18,1.1,4.39,1.96,6.85-.14,8.81-2.31,2.15-4.55,7.65,.54,11.74,5.09,4.09,12.02,3.25,16.66,2.99,2.59-.14,6.21-.3,8.25-2.13,2.07-1.86,3.65-3.82,2.65-6.78-.4-1.18-.97-2.29-1.34-3.47-.35-1.15-.28-2.08-.23-3.24,.07-1.42,.61-2.72,.68-4.14,.07-1.48-.09-2.88-.27-4.3-.2-1.58-.56-2.77-1.18-4.22-1.2-2.8-4.41-4.23-5.1-7.39-.42-1.92-.65-3.72-.53-5.59,.25-4.23-1.77-7.02-4.12-7.82Z" fill="#3d1d00"/><path d="M358.76,279.47s-.1,2.65,.35,3.9c.45,1.25,3.65,3.16,3.65,3.16,0,0-2.9,.56-4.01-.3-1.11-.86-3.75-5.36-3.58-5.95,.17-.59,.97-2.39,.97-2.39l2.62,1.59Z" fill="#fcd4ca"/><path d="M376.03,279.22s-.1,2.66,.35,3.9c.45,1.25,3.65,3.16,3.65,3.16,0,0-2.9,.56-4.01-.3-1.11-.86-3.75-5.36-3.58-5.95,.17-.59,.97-2.39,.97-2.39l2.62,1.59Z" fill="#fcd4ca"/><path d="M355.83,279.47s-2.43,.81-1.82,2.94c.61,2.13,.51,4.87,.51,4.87h.71s.15-3.04,.61-2.94c.46,.1,1.47,2.94,2.48,2.94h5.73s.61-.61,0-.96c-.61-.35-4.49-.2-4.93-1.06-.44-.86-3.28-5.78-3.28-5.78Z" fill="#1e1e1e"/><path d="M373.24,279.15s-2.43,.81-1.82,2.94c.61,2.13,.51,4.87,.51,4.87h.71s.15-3.04,.61-2.94c.46,.1,1.47,2.94,2.48,2.94h5.73s.61-.61,0-.96c-.61-.35-4.49-.2-4.93-1.06-.44-.86-3.28-5.78-3.28-5.78Z" fill="#1e1e1e"/><path d="M360.12,192.35s2.26,8.82,.97,9.51c0,0,4.62,9.58,6.66,9.13s.97-8.62,.97-8.62c0,0-.7-.12-1.58-.91-.39-.35-1.24-.94-1.36-1.52-.39-1.9-.49-4.27-.49-4.27l-5.18-3.32Z" fill="#fcd4ca"/><path d="M363.99,206.96c-.73-.97-1.31-2.38-1.14-3.61,.24-1.84,1.22-3.15,2.87-3.83-.32-1.81-.41-3.86-.41-3.86l-5.18-3.32s2.26,8.82,.97,9.51c0,0,4.62,9.58,6.66,9.13,.53-.12,.85-.76,1.03-1.64-1.95,.36-3.65-.86-4.8-2.38Z" fill="#e8a393"/><path d="M337.96,197.52c-.23-.36-.41-.76-.55-1.16-.12-.35-.21-.7-.33-1.05-.12-.34-.25-.67-.23-1.03,.01-.23,.07-.41,.13-.63,.07-.27,.17-.53,.22-.8,.05-.24,.03-.48,.07-.72,.08-.45,.19-.92,.42-1.32,.18-.31,.37-.57,.61-.84,.12-.14,.21-.26,.36-.38,.14-.11,.27-.23,.33-.41,.08-.24-.04-.46-.28-.52-.42-.11-1.08,.09-1.34,.44-.36,.49-.52,1.09-.92,1.56-1.21,1.45-2.35-.26-3.77-.87-.41-.18-1.02-.62-1.37-.88-.25-.19-1.34-1.22-1.85-.95-.38,.2,.36,1.07,.72,1.28,.14,.08,1.35,1.07,1.51,1.12-.36-.06-1.29-.68-2.03-1.26-.54-.42-1.06-.83-1.35-.59-.9,.74,2.63,2.43,2.91,2.58-.29,.03-3.06-1.93-3.32-1.21-.14,.4,.43,.79,.9,1.04,.59,.32,1.58,.55,1.8,.72-.42,.14-2.25-1.11-2.25-.34,0,.5,1.14,.87,1.57,1,.44,.13,1.74,1.02,2.15,1.21,1.37,.65,1.93,.58,2.47,1.4,.34,.52,.96,3.28,1.45,4.33l1.99-1.7Z" fill="#fcd4ca"/><path d="M385.8,199.69c-1.22,3.55-3.83,11.36-4.69,10.92-1.62-.83-4.98-3.4-7.61-6.62-1.61-1.96-3.1-2.06-3.1-2.06l2.35,8.1s8.03,6.98,9.83,5.99c1.41-.78,4.89-10.68,6.12-14.79,0,0-2.87-1.53-2.89-1.54Z" fill="#fdac53"/><path d="M377.31,211.92c-1.44-1.87-2.33-3.44-3.79-5.29-.74-.94-1.38-1.93-1.98-2.95-.33-.37-.65-.75-.96-1.14l2.17,7.5s7.84,6.81,9.75,6c-1.65-1.06-4.02-2.59-5.19-4.12Z" fill="#d10056" mix-blend-mode="multiply" opacity=".32"/><path d="M370.4,201.93l-3.25-.48s1.66,7.03,.41,6.98c-1.25-.05-6.1-7.45-6.1-7.45,0,0-3.07,1.28-4.86,2.42,0,0,.68,5.68,.28,6.43,0,0,1.3,3.64,2.14,5.34,.85,1.7,.97,11.13,.97,11.13,0,0,3.03,1.74,6.77,1.74s4.87-1.57,4.87-1.57c0,0,.02-10.8,.47-11.72,.45-.92,2.65-4.44,.75-7.83-1-1.79-2.45-4.99-2.45-4.99Z" fill="#fdac53"/><path d="M361.21,218.03c-1.32-2.42-1.11-5.26-1.79-8.07-.46-1.93-1.69-3.9-2.71-5.51,.17,1.68,.46,4.84,.16,5.39,0,0,1.3,3.64,2.14,5.34,.85,1.7,.97,11.13,.97,11.13,0,0,2.25,1.29,5.27,1.65-5.14-4.07-4.05-9.92-4.05-9.92Z" fill="#d10056" mix-blend-mode="multiply" opacity=".32"/><path d="M360.31,211.71s2.73,1.46,3.95,1.44c3.27-.04,3.87-2.15,3.87-2.15,0,0,1.71,2.03,3.23,1.9,1.48-.12,1.74-1.17,1.74-1.17,0,0-.11,3.14-2.76,3.44-.95,.11-1.6-.07-2.04-.34-.68-.42-1.52-.38-2.24-.04-.41,.2-.94,.35-1.62,.41-2.36,.19-3.88-1.39-4.13-3.5Z" fill="#d10056" mix-blend-mode="multiply" opacity=".32"/><path d="M358.03,203s-12.72,3.64-13.87,3.34c-1.15-.3-6.78-11.97-6.78-11.97l-3.19,1.3s4.74,14.6,6.93,15.33c2.2,.73,15.77-1.16,15.77-1.16,0,0,2.39-3.19,1.15-6.83Z" fill="#fdac53"/><path d="M362.42,185.53s3.19-1.27,4.68,.75c1.49,2.03,.89,3.65,1.2,4.65,.32,1,.17,6.02-1.13,6.69-1.12,.58-4.05,.13-5.7-1.49-1.41-1.38-1.78-.81-2.78-2.3-2.51-3.77,1.07-8.65,3.71-8.31Z" fill="#fcd4ca"/><path d="M363.99,184.39s.47,4.91,4.62,4.56c0,0-.16-6.68-4.62-4.56Z" fill="#3d1d00"/><path d="M360.61,196.6c0-.09,.24-.68,.25-1.01-.4-.46-.87-1.12-1.13-1.16-.72-.11-1.85-1.54-1.09-2.31,.79-.81,1.55-.08,1.84,.55,.05,.1,.18,.2,.32,.26,.12-.33,.58-3.2,1.98-3.62,4.79-1.42,1.57-5.2,1.57-5.2-7.89-1.49-8.37,9.3-6.4,11.43,1.07,1.16,2.02,1.23,2.66,1.06Z" fill="#3d1d00"/><path d="M359.01,192.13s.73,0,.97,.74c.22,.69-.33,1.43-.63,.94-.3-.49-.02-.69,.02-.97,.03-.28-.19-.62-.35-.71Z" fill="#e8a393"/><path d="M371.63,226.25s-6.81,2.39-11.75,0c0,0-2.99,2.51-3.47,7.64-.15,1.58-.07,3.48,.2,5.76,.34,2.85,1.17,10.33,.65,14.94-.76,6.75-2.86,24.96-2.86,24.96l4.7,.73s4.31-22.27,4.83-25.19c.51-2.92,2.15-14.77,2.15-14.77,0,0,2.92,9.17,3.68,13.61,.12,.68,2.2,25.79,2.2,25.79l4.55-.03s-.25-27.89-.25-26.42c0,.6-1.23-18.81-4.63-27.01Z" fill="#454545"/><path d="M369.26,244c-1.02-3.1-1.65-4.66-3.75-7.44,.21,1.27,.41,2.54,.56,3.83,.01-.04,.02-.07,.02-.07,0,0,2.5,7.85,3.47,12.54-.11-5.06,.45-6.57-.3-8.86Z" fill="#454545"/><path d="M397.15,181.11c-.63-1.93-2.51-3.05-4.2-2.5-.58,.19-1.05,.56-1.41,1.02,.2,.79,.45,1.6,.79,2.41,.57,1.39,1.3,2.62,2.11,3.68,.26,0,.52-.04,.78-.13,1.7-.55,2.56-2.56,1.94-4.49Z" fill="#454545"/></g><g><g><circle cx="209.86" cy="101.92" r="30.69" transform="translate(-17.88 51.3) rotate(-13.37)" fill="#ffd066"/><circle cx="209.86" cy="101.92" r="25.05" fill="#fdac53"/></g><path d="M206.88,89.03c5.03-1.55,10.3-1.22,12.25,3.65l-8.12,3.25c-.78-1.82-2.83-1.46-4.01-.99-.75,.3-3.16,1.26-2.56,2.75,1.33,3.33,14.91-6.12,18.68,3.31,2.27,5.66-1.32,9.54-6.61,12.11l2.76,5.87-4.96,1.98-2.12-6.18c-5.26,1.49-10.9,1-12.93-4.09l8.12-3.25,.07,.18c.94,2.22,3.62,1.66,4.89,1.15,1.23-.49,3.61-1.54,2.96-3.17-1.39-3.47-15.08,5.68-18.74-3.44-2.11-5.27,1.17-8.92,6.04-11.38l-2.73-5.93,4.96-1.98,2.06,6.15Z" fill="#ffd066"/></g><g><g><polygon points="107.31 100.52 76.61 100.52 23.31 154.25 57.85 154.25 107.31 100.52" fill="#454545"/><polygon points="296.79 100.52 327.5 100.52 380.8 154.25 346.26 154.25 296.79 100.52" fill="#454545"/></g><g><rect x="90.54" y="100.52" width="223.02" height="185.92" fill="#fdac53"/><path d="M199.33,134.6l-48.52,20.79c-3.03,1.3-4.72,4.55-4.05,7.75,.67,3.21,3.49,5.54,6.78,5.54v1.73c0,2.88,2.32,5.2,5.2,5.2h86.64c2.88,0,5.2-2.32,5.2-5.2v-1.73c3.29,0,6.13-2.32,6.78-5.54s-1.04-6.48-4.05-7.75l-48.52-20.79c-1.75-.74-3.73-.74-5.46,0h0Zm-24.99,47.95h-13.86v42.52c-.13,.06-.26,.15-.39,.24l-10.4,6.93c-2.53,1.69-3.68,4.85-2.79,7.78s3.6,4.92,6.65,4.92h97.03c3.05,0,5.74-1.99,6.63-4.92s-.24-6.09-2.79-7.78l-10.4-6.93c-.13-.09-.26-.15-.39-.24v-42.52h-13.84v41.59h-8.66v-41.59h-13.86v41.59h-10.4v-41.59h-13.86v41.59h-8.66v-41.59Zm27.72-20.79c-3.83,0-6.93-3.1-6.93-6.93s3.1-6.93,6.93-6.93,6.93,3.1,6.93,6.93-3.1,6.93-6.93,6.93Z" fill="#fff"/></g></g><g><polygon points="96.28 120.81 97.86 116.07 168.65 116.07 167.14 120.81 96.28 120.81" fill="#454545"/><polygon points="87.87 146.04 89.47 141.25 160.63 141.25 159.1 146.04 87.87 146.04" fill="#454545"/><polygon points="106.93 95.57 108.51 90.83 179.3 90.83 177.79 95.57 106.93 95.57" fill="#454545"/><polygon points="79.37 171.54 80.98 166.71 152.52 166.71 150.98 171.54 79.37 171.54" fill="#454545"/><polygon points="70.77 197.32 72.4 192.43 144.33 192.43 142.77 197.32 70.77 197.32" fill="#454545"/><polygon points="62.08 223.38 63.73 218.44 136.05 218.44 134.47 223.38 62.08 223.38" fill="#454545"/><polygon points="53.3 249.73 54.96 244.73 127.68 244.73 126.09 249.73 53.3 249.73" fill="#454545"/><path d="M45.17,287.64h-.33c-2.24,0-3.81-2.19-3.11-4.31L108.21,84.2c.45-1.34,1.7-2.24,3.11-2.24h4.58L48.28,285.4c-.44,1.34-1.7,2.24-3.11,2.24Z" fill="#454545"/><path d="M117.18,287.64h-.36c-2.22,0-3.79-2.16-3.12-4.27l63.56-199.13c.43-1.36,1.69-2.28,3.12-2.28h.07c2.22,0,3.79,2.15,3.12,4.27l-63.27,199.13c-.43,1.36-1.69,2.28-3.12,2.28Z" fill="#454545"/></g><path d="M159.57,52.38c.04,.11,.06,.22,.1,.32,.37,.99,.76,2,1.32,2.9,.34,.55,1,1.1,1.27,1.63,.11,.21,.23,.42,.36,.61-.86,1.26-3.1,4.57-3.64,6.02,0,0-4.23-2.29-5.02-4.78,0,0,4.02-4.04,5.61-6.7Z" fill="#fcd4ca"/><path d="M158.6,60.75c.26-1.38,.12-2.92-.49-4.2-.21-.44-.44-.85-.69-1.25,.83-.99,1.63-2.03,2.16-2.92,.04,.11,.06,.22,.1,.32,.37,.99,.76,2,1.32,2.9,.34,.55,1,1.1,1.27,1.63,.11,.21,.23,.42,.36,.61-.86,1.26-3.1,4.57-3.64,6.02,0,0-.72-.4-1.63-1.03,.62-.52,1.09-1.24,1.25-2.08Z" fill="#e8a393"/><path d="M146.86,135.2s.13,4.78,.88,5.44,10.26,.94,11.08,.07c.82-.87,.34-2.34-1.7-2.91-2.19-.61-3.26-.01-4.64-.58-1.37-.57-1.01-2.73-1.01-2.73l-4.61,.72Z" fill="#1e1e1e"/><path d="M123.26,134.94s-.73,4.66-.01,5.34c.72,.68,10.42,1.44,11.27,.6,.85-.84,.43-2.33-1.59-2.97-2.16-.69-3.21-.25-4.61-.76-1.1-.4-.36-2.62-.36-2.62l-4.7,.41Z" fill="#1e1e1e"/><g><path d="M130.29,108.12c-.21-13.23,1.3-22.34,1.99-26.6,1.58,.06,3.17,.2,4.75,.92,2.9,1.32,5.83,2.59,8.74,3.86-2.37,4.9-7.56,20.9-8.18,24.25-.78,4.17-9.48,25.41-9.48,25.41l-5.27-.66c.08-3.42,7.47-26.04,7.45-27.19Z" fill="#e2e2e2"/><path d="M141.1,84.33c1.53,.75,3.11,1.33,4.7,1.91-2.33,4.81-6.57,18.11-7.52,21.65-.74-2.23-4.31-7.62-5.68-13.53-.92-3.95-1.08-8.03-.44-12.04,0-.02,0-.03,0-.05,2.96,.2,5.82,.52,8.94,2.05Z" fill="#b5b5b5"/><path d="M137.16,83.61c2.05,.69,5.79,1.69,8.61,2.69,1.96,4.96,7.77,16.68,8.07,21.98,.33,5.85-1.69,28-1.69,28h-6.03s-.56-24.97-1.4-26.57c-2.78-5.29-5.86-9.48-7.61-12.77-2.93-5.52-3.93-9.07-4.45-11.65-.23-1.14-1.23-4.97,.71-6.16,1.6,.45,2.07,3.91,3.79,4.49Z" fill="#e2e2e2"/></g><g><path d="M147.27,88.55s-5.46-.23-9.8-2.73c-3.21-1.85-4.93-2.69-6.41-4.65,0,0,9.55-15.43,14.32-19.49,4.77-4.06,9.2-3.24,9.2-3.24,0,0,2.31,3.25,4.89,4.37,0,0-4.64,10.04-6.66,13.97s-5.55,11.77-5.55,11.77Z" fill="#ffd066"/><path d="M153.54,75.33c.22-.44,.44-.9,.68-1.39,.03-.06,.06-.12,.09-.18,.23-.47,.46-.95,.7-1.45,.04-.08,.08-.16,.12-.25,.26-.55,.53-1.12,.8-1.68,0,0,0-.02,.01-.03-.21-.1-.42-.19-.6-.32-1.46-1.04-2.45-2.57-3.46-4.02-.17-.24-.37-.47-.56-.7-1.26,2.03-1.48,5.09-1.84,6.99-1,5.26-3.09,11.53-6.16,15.66,2.25,.5,3.96,.58,3.96,.58,0,0,3.52-7.84,5.55-11.77,.18-.35,.38-.76,.6-1.19,.04-.08,.08-.17,.13-.26Z" fill="#fdac53"/></g><path d="M161.27,46.03s4.36-1.87,6.3,.05c1.94,1.92,2.96,3.41,2.54,4.44-.42,1.03-1.87,3.62-2.05,4.88-.18,1.27,.03,3.32-.32,3.66-.34,.34-1.63-.55-1.83-.46-.2,.09-3.15,2.2-3.82,2.1-.67-.1-3.27-5.09-2.85-6.79,.42-1.71,.03-5.96,2.02-7.88Z" fill="#fcd4ca"/><path d="M165.19,50c.19,.19,.33,.54,.46,.71,.25,.32,.54,.61,.8,.93,.52,.64,1.05,1.27,1.83,1.59,1.15,.49,1.63-.64,2.58-.9,.46-.13,.88,.24,1.39,.1,.49-.14,.95-.54,1.27-.92,.81-.95-.03-1.84-.6-2.64-.66-.94-.3-1.45-.15-2.44,.38-2.44-2.94-1.49-3.93-2.59-.51-.56-.78-1.45-1.6-1.62-.71-.14-1.41,.08-2.09,.23-.71,.15-.89-.32-1.53-.55-.47-.17-1.16-.18-1.66-.11-1.13,.15-2.35,.81-2.92,1.81-.48,.85-.24,1.75-.88,2.54-.5,.62-1.19,1.34-1.38,2.15-.27,1.18,.59,2.11,.75,3.22,.15,1.05,.69,2.18,1.67,2.71,.58-.49,1.36-1.5,1.11-2.22-.1-.29-.33-.52-.42-1.05-.17-.97,1.2-1.84,2.14-.75,.57,.66-.68,2.68,.27,3.01,.73,.25,.86-1.21,.98-1.64,.16-.57,.94-1.68,1.62-1.69,.1,0,.19,.05,.27,.13Z" fill="#3d1d00"/><path d="M170.12,93.75c.28-.02,.61-.09,.71-.06,.46,.15,1.23-.07,1.55-.19,.73-.28,1.85-.76,2.6-.63,.44,.08,3.06,.69,2.42,1.76-.09,.14-.41,.37-.5,.34-.27-.1-1.02-.38-1.02-.38,0,0,.58,.21,.7,.3,.1,.07,.3,.16,.36,.26,.14,.22-.08,.7-.3,.78-.22,.08-.4-.15-.59-.25,0,0,0,0,.01,0,.18,.14,.58,.24,.33,.8-.27,.62-.46,.23-.72,.16-.09-.02-.19-.07-.28-.11,.1,.06,.47,.23,.54,.3,.24,.22-.3,.95-.78,.89-.3-.04-1.01-.47-1.17-.42-.19,.05-.41,.05-.61,.07-.6,.06-1.22-.11-1.77-.35-.25-.11-.73-.3-.98-.43-.61-.33-1.28-.84-1.46-.99,.4-.77,1.05-.97,.97-1.85Z" fill="#fcd4ca"/><path d="M170.22,96.91l2.53-3.8s-6.82-9.51-9.29-14.37c-2.47-4.86-4-13.64-6.64-15.01-2.63-1.37-5.93-.74-5.57,3.66,.37,4.4,6.88,12.17,8,14.41,1.12,2.24,9.63,13.66,10.97,15.1Z" fill="#ffd066"/><g><path d="M70.23,236.78c.73-.56,1.19-1.4,1.49-2.3,.13-.69,.28-1.37,.47-2.04,.12-.44,.33-.83,.57-1.19-3.85-2.31-8.22-5-9.32-5.97-2.07-1.82,.84,1.06-10.34-13.26l-4.17,8.29s7.95,8.62,10.02,10.32c1.08,.89,6.17,3.92,10.77,6.6,.16-.15,.33-.31,.51-.45Z" fill="#ffd066"/><path d="M70.23,236.78c.73-.56,1.19-1.4,1.49-2.3,.13-.69,.28-1.37,.47-2.04,0-.02,.02-.04,.02-.06-.75,.37-1.65,.42-2.6-.09-2.33-1.25-4.61-2.47-6.7-3.93-1.26-.76-2.45-1.66-3.56-2.71-1.94-1.83-3.86-3.76-5.5-5.87-.88-1.12-2.1-2.03-3.12-3.06l-1.8,3.58s7.95,8.62,10.02,10.32c1.08,.89,6.17,3.92,10.77,6.6,.16-.15,.33-.31,.51-.45Z" fill="#d10056" mix-blend-mode="multiply" opacity=".32"/><path d="M50.53,291.19s-.7,2.03-.7,3.6c0,1.57,.11,3.24,.59,3.63,.96,.79,13.13,.89,14.12-.23,.99-1.12,.33-2.94-2.25-3.57-2.76-.67-3.15-.39-4.89-1.05-1.74-.66-1.32-2.61-1.32-2.61l-5.55,.24Z" fill="#1e1e1e"/><path d="M23.85,288.91s-1.37,1.65-1.94,3.11c-.57,1.46-1.05,3.06-.74,3.6,.62,1.08,11.95,5.51,13.27,4.81,1.33-.7,1.36-2.63-.83-4.14-2.34-1.61-2.8-1.48-4.19-2.72-1.39-1.24-.3-2.91-.3-2.91l-5.27-1.75Z" fill="#1e1e1e"/><path d="M50.45,239.49l-16.39,1.82s14.66,23.43,15.77,27.2c1.11,3.76-.41,24.22-.41,24.22h7.42s1.59-24.16,1.23-25.98c-.36-1.82-7.62-27.26-7.62-27.26Z" fill="#b5b5b5"/><path d="M49.83,240.7H31.12s-2.19,5.74-1.18,10.11c1,4.37,1.67,13.66,1.58,15.3-.09,1.64-9.23,23.49-9.23,23.49l6.81,2.53s9.4-20.84,10.31-23.2c.91-2.37,10.43-28.23,10.43-28.23Z" fill="#b5b5b5"/><path d="M49.04,201.99c-1.53,.1-3.1-.05-4.52-.36-.52-.11-1.04-.3-1.54-.54-.16,1.88-.69,6.27-2.24,7.92,0,0,.21,2.22,4.1,2.76,3.89,.55,4.69-2.34,4.69-2.34,0,0-.75-4.68-.49-7.45Z" fill="#fcd4ca"/><path d="M40.75,209.09s.02,.09,.04,.16c0,0,0,.01,0,.02,.02,.07,.05,.15,.09,.24,0,0,0,0,0,.01,.04,.09,.1,.19,.16,.3,0,.01,.02,.03,.03,.04,.14,.22,.35,.46,.63,.7,.02,.01,.03,.03,.05,.04,.14,.12,.31,.23,.49,.34,.02,.01,.05,.03,.07,.04,.2,.11,.41,.22,.65,.32,.24-.97,.74-1.89,1.49-2.62,1.33-1.3,2.95-1.94,4.7-2-.15-1.5-.27-3.33-.14-4.69-1.53,.1-3.1-.05-4.52-.36-.52-.11-1.04-.3-1.54-.54-.16,1.88-.69,6.27-2.24,7.92,0,0,0,.02,0,.05,0,0,0,.01,0,.02Z" fill="#e8a393"/><path d="M39.73,192.92s5.28-4.12,6.81-3.05c1.52,1.07,2.27,3.48,3.08,4.35,.8,.87,2.72,1.38,3.04,1.73,.32,.35-.52,1.59-.55,1.98-.03,.39,.7,4.01-.04,5.16-.74,1.16-7.09,1.37-9.51-.72-2.42-2.09-4.07-7.95-2.81-9.45Z" fill="#fcd4ca"/><path d="M49.52,208.79s-4.57,2.27-8.28-.46c0,0-7.06,1.24-7.93,1.59-.72,.29,1.17,10.35,.35,15.4-.82,5.05-4.1,17.3-4.1,17.3,0,0,8.65,6.65,23.49,2.46,0,0,.48-17.17,.33-21.95-.23-6.98-.28-11.11-.28-11.11,0,0-1.7-1.74-3.58-3.23Z" fill="#ffd066"/><path d="M38.72,236.58c-.65-2.65-1.1-5.25-.63-7.99,.5-2.97-1.63-6.89-2.03-9.92-.43-3.24-.76-5.43-2.89-7.22,.14,3.05,1.13,9.95,.5,13.87-.82,5.05-4.1,17.3-4.1,17.3,0,0,5.49,4.19,15.21,3.8-3.83-2.32-4.99-5.44-6.06-9.84Z" fill="#d10056" mix-blend-mode="multiply" opacity=".32"/><g><polygon points="17.46 254.79 38.66 277.18 90.01 230.4 69.24 208.23 17.46 254.79" fill="#fdac53"/><polygon points="24.09 255.15 39.05 271.33 84.02 229.92 68.94 213.9 24.09 255.15" fill="#fff"/><path d="M74.27,225.46c1.11,2.42,.05,5.28-2.37,6.39-2.42,1.11-5.28,.05-6.39-2.37-1.11-2.42-.05-5.28,2.37-6.39,2.42-1.11,5.28-.05,6.39,2.37Z" fill="#fdac53"/><path d="M41.79,255.78c1.11,2.42,.05,5.28-2.37,6.39-2.42,1.11-5.28,.05-6.39-2.37-1.11-2.42-.05-5.28,2.37-6.39,2.42-1.11,5.28-.05,6.39,2.37Z" fill="#fdac53"/><g><path d="M62.3,239.05c1.74,4.63-.61,9.8-5.25,11.53-4.63,1.74-9.8-.61-11.53-5.25-1.74-4.63,.61-9.8,5.25-11.53,4.63-1.74,9.8,.61,11.53,5.25Z" fill="#fdac53"/><path d="M51.77,238.97c1.22-.94,2.69-1.39,3.72-.26l-1.89,1.72c-.4-.42-.92-.11-1.2,.14-.17,.16-.73,.67-.42,1.02,.71,.78,3.45-3.2,5.45-1.01,1.2,1.32,.62,2.74-.57,3.99l1.35,1.32-1.15,1.05-1.21-1.47c-1.28,.95-2.88,1.39-3.95,.21l1.89-1.72,.04,.04c.48,.51,1.16,.08,1.45-.19,.29-.26,.83-.79,.48-1.17-.73-.81-3.54,3.1-5.48,.98-1.11-1.22-.59-2.56,.49-3.73l-1.35-1.34,1.15-1.05,1.19,1.47Z" fill="#fff"/></g></g><path d="M42.66,192.61s.76,1.4,.59,3.34c-.08,.86,2.46,2.05,2.3,3.11-.1,.71-.65,.75-1.53-.21-.3-.33-.84-.43-1.29-.45-1.71-.06-1.17,2.31,.4,2.45,1.1,.1,1.47,2.64,1.47,2.64-.69,1.15-4.31,1.52-4.89-1-.37-1.61-.5-2.22-1.17-2.38-1.23-.29-3.21-1.65-2.25-3.85,1.32-3.03-.93-2.93,1.34-4.55,2.27-1.62,4.96-.9,5.03,.89Z" fill="#3d1d00"/><path d="M37.7,193.1c-.08-.61,.64-1.71,.99-2.27,.54-.87,1.27-1.57,2.12-2.18,.84-.61,1.82-1.04,2.84-1.23,.88-.17,1.71-.07,2.58-.31,.81-.22,1.56-.55,1.93-1.23,.37,.45,.77,1.47,.85,1.85,.16,.8-.07,1.66-.25,2.5-.5,2.29-3.4,4.59-6.11,4.55-1.31-.02-2.47-.02-3.41-.78-.54-.44-.89-.61-1.53-.91Z" fill="#3d1d00"/><path d="M85.17,223.85c.98-1.19,.48-3.11-.29-4.18-.63-.87-1.68-.69-3.25-.47-1.06,.14-2.04,.32-2.29,.67-.62,1.44,2.84,.68,3.76,.69,0,0-3.76,.36-3.92,1.07-.28,1.33,3.09,.51,3.96,.46-.85-.04-2.34,.27-2.52,.48-.65,.16-.41,.62-.31,.73,.51,.53,3.27-.1,3.27-.1-.49,.11-2.38,.15-1.83,.85,.36,.46,1.15,.31,1.59,.32,.85,0,1.62-.24,1.84-.51Z" fill="#fcd4ca"/><path d="M37.17,236.43c1.28-.05,2.85,.19,4.17,.19,.6,0,1.23-.09,1.83-.12,.38-.02,1.15-.15,1.37,.27,.24,.46-.52,.63-.82,.69-.43,.09-1.33,.04-1.41,.61-.12,.84,1.46,1.07,2.07,1.34,.57,.25,2.08,.78,1.09,1.34-.67,.38-2.07-.48-2.64-.71,.75,.21,1.4,.48,2.06,.86,.39,.22,1.15,.53,1.15,.96,0,.64-1.41,.26-1.76,.1-.83-.36-1-.45-1.57-.87,.59,.31,2.76,1.23,2.05,1.99-.43,.46-2.13-.83-2.81-1.11,.37,.34,1.49,.52,1.4,1.25-.05,.36-.68,.07-.98-.09-.43-.23-.81-.57-1.24-.77-.34-.16-.56-.36-.92-.62-.77-.55-1.47-.68-2.13-1.39-.62-.67-1.2-1.34-1.85-1.89,1.24-.46-.02-1.38,.92-2.04Z" fill="#fcd4ca"/><path d="M39.05,236.09l-1.82,4.21s-18.81-6.1-17.92-11.04c.77-4.33,11.72-18.86,14.1-19.38,3.2-.7,4.49,6.93,2.65,8.78-3.88,3.9-9.42,9.39-8.96,10.28s11.96,7.15,11.96,7.15Z" fill="#ffd066"/></g><g><path d="M264.61,250.15s-.09,.04-.14,.05c-.35,.1-.73,.14-1.11,.13-.73-.03-1.41-.27-2.13-.37-.25-.03-.51-.05-.77-.06-.45-.02-2.07,.23-2.48,.32-.87,.19-.97,.22-1.83,.45-.4,.11-.97,.48-1.36,.62-.6,.21-.77,1.04-.33,1.05,.33,0,.31,.03,.61-.16,.29-.19,1.39-.63,1.39-.63-.36,.08-1.12,.41-1.39,.63-.28,.23-.63,.31-.8,.67-.05,.12-.18,.17-.22,.32-.04,.16-.02,.33,.09,.45,.16,.18,.37,.14,.58,.08,.48-.15,.9-.47,1.32-.75,.38-.25,.66-.65,1.07-.86-.61,.3-1.22,.92-1.72,1.36-.2,.18-.61,.51-.83,.66-.28,.19-.45,.76-.02,1.02,.37,.23,1.02-.19,1.27-.42,.33-.31,.85-.64,1.16-.96,.14-.15,.28-.29,.45-.42,.29-.24,.53-.5,.85-.7,0,0-1.33,1.13-1.81,1.72-.24,.29-.58,.71-.34,1.06,.43,.64,1.06,.06,1.34-.2,.38-.35,.8-.61,1.17-.97,.57-.56,1.22-1.02,1.9-1.42,.34-.2,.76-.11,1.12-.24-.18,.2-.48,.21-.67,.39-.23,.22-.46,.4-.73,.59-.31,.22-.59,.48-.69,.86-.09,.36-.13,.74,.3,.83,.63,.13,1.13-.33,1.58-.7,.5-.41,1-.88,1.68-.96,.26-.03,.55,0,.81,0,.72,0,1.38,.08,2.11-.04,.51-.09,.92-.35,1.17-.79,.21-.37,.43-.7,.56-1.1,.04-.13,.45-1.26,.57-1.22-.86-.27-1.51-.89-2.31-1.26-.36-.16-.5,.17-.68,.39-.17,.21-.46,.46-.73,.58Z" fill="#fcd4ca"/><path d="M264.57,248.9l2.78,4.86s12.76-5.48,15.49-7.98c2.73-2.5,5.4-8.8,6.26-15.11,.5-3.68-3.59-3.97-3.59-3.97-2.36,3.76-6.96,13.69-7.47,14.43-.51,.74-13.47,7.77-13.47,7.77Z" fill="#ffd066"/><path d="M301.26,302.38s.74,2.16,.75,3.84c0,1.67-.11,3.45-.63,3.87-1.03,.84-14,.95-15.06-.25-1.06-1.2-.35-3.14,2.4-3.81,2.95-.72,4.35,.12,6.21-.58,1.85-.7,.41-3.32,.41-3.32l5.92,.26Z" fill="#1e1e1e"/><path d="M313.89,309.44c1.06-.33,2.14-.47,3.24-.5,.8-.03,2.07,.01,2.65-.63,.55-.62,.47-1.49,.13-2.17-.05-.09-.68-1.24-.79-1.19l5.13-2.22s4.05,4.82,3.69,6.1c-.07,.26-1.09,1.24-2.15,2.23-1.79,1.66-4.1,2.63-6.53,2.77-3.48,.19-6.97,.13-7.53-.43-1.13-1.13-.54-3.11,2.16-3.95Z" fill="#1e1e1e"/><path d="M311.19,248.39s6.52,3.98,5.5,11.81c-1.02,7.84-3.24,17.87-2.7,19.91,.54,2.04,12.07,23.13,12.07,23.13l-6.48,3.61s-13.68-22.2-14.36-24.59c-.68-2.39-.97-16.57-.97-16.57,0,0-8.04,13.53-8.46,15.41-.43,1.87,6.43,22.14,6.43,22.14l-6.9,1.26s-9.35-20.81-8.82-24.3c.34-2.19,8.52-23.23,8.52-23.23l16.17-8.58Z" fill="#454545"/><path d="M295.9,280.77c-.18-.36,1.87-9.31,2.79-10.68,.63-.93,2.98-5.26,3.71-6.6,.89-1.65-.87-6.33-1.09-8.22,.2-.09,.4-.2,.59-.32,.62,3.7,2.36,10.75,2.36,10.75-1.4,2.57-7.47,12.61-8.36,15.08,0,0,0,0,0,0,0,0,0,.02-.01,.03,0-.01,0-.03,0-.04Z" fill="#2b2b2b"/><path d="M289.47,217.92s2.46,5.38,4.41,6.42c0,0-2.29,4.08-7.42,2.64,0,0,.2-2.09-1.54-6.67,0,0,3.39-.95,4.56-2.39Z" fill="#fcd4ca"/><path d="M286.06,223.39s-.09,.01-.14,.02c-.23-.87-.55-1.89-1.01-3.1,0,0,3.39-.95,4.56-2.39,0,0,2.46,5.38,4.41,6.42,0,0-.96,1.69-3,2.51-.61-2.05-2.55-3.5-4.82-3.45Z" fill="#e8a393"/><path d="M284.98,207.55s-3.78,.28-4.21,1.81c-.42,1.54-.52,1.23-.61,2.3-.09,1.07-.14,1.89-.74,3.06-.6,1.17-.76,1.79,.63,1.92,0,0,.49-.07,.28,.43-.21,.5-1.42,3.48,1.12,4.48,2.54,.99,7.84-1.56,8.2-3.29,.36-1.73,1.22-5.7,.04-8.12-1.18-2.42-3.7-2.72-4.72-2.59Z" fill="#fcd4ca"/><path d="M289.17,207.65s-6.07,5.7-10.44,.66c0,0,1.02-2.97,4.26-3.8,3.24-.83,6.24,1.68,6.19,3.13Z" fill="#3d1d00"/><path d="M280.33,216.71c3.79,.17,4.79-1.08,5.72-3.92,.93-2.84,.15-3.35,.15-3.35-1.85-1.43-1.57-2.48-1.57-2.48-.05-1.92,1.51-2.91,3.28-2.93,1.95-.01,4.28,.76,4.84,2.77,.32,1.14-.12,1.76,.24,2.46,.41,.8,1.12,1.24,1.55,2.07,.69,1.36-.19,2.78-.45,3.66-.31,1.07-.25,.96-.23,2.39,.02,1.57-2.41,2.51-4.07,1.15-.22,1.12-3.47,3.62-4.71,4.04-2.89,.96-5.46-.22-5.66-1.92-.2-1.7,.92-3.95,.92-3.95Z" fill="#3d1d00"/><g><g><circle cx="253.86" cy="281.91" r="30.21" transform="translate(-51.91 506.45) rotate(-84.29)" fill="#ffd066"/><circle cx="253.86" cy="281.91" r="24.66" transform="translate(-124.99 262.07) rotate(-45)" fill="#fdac53"/></g><path d="M250.92,269.21c4.95-1.53,10.14-1.2,12.06,3.59l-7.99,3.2c-.77-1.79-2.78-1.44-3.95-.97-.73,.29-3.11,1.24-2.52,2.71,1.31,3.28,14.68-6.02,18.39,3.26,2.23,5.57-1.3,9.39-6.5,11.92l2.71,5.78-4.88,1.95-2.08-6.08c-5.17,1.47-10.73,.99-12.73-4.02l7.99-3.2,.07,.17c.92,2.19,3.56,1.63,4.81,1.13,1.21-.48,3.55-1.52,2.91-3.12-1.36-3.41-14.85,5.59-18.44-3.39-2.07-5.18,1.15-8.78,5.94-11.2l-2.69-5.84,4.88-1.95,2.02,6.06Z" fill="#ffd066"/></g><path d="M270.08,254.01c-.18,.1-.36,.16-.56,.22-.35,.11-.71,.23-1.08,.27-.32,.03-.66,0-.99,0-.5,.01-1-.02-1.48-.12-1.07-.21-1.93-.5-3.03-.55-.07,0-.15,0-.22,0-1.3-.01-2.55,.17-3.77,.63-.57,.21-1.51,.48-1.43,1.26,.03,.35,.31,.41,.61,.39,.55-.03,1.23-.19,1.73-.39,.61-.24,1.76-.84,1.76-.84,0,0-1.09,.38-1.55,.7-.3,.21-.52,.32-.75,.47-.33,.22-.81,.43-.89,.83-.07,.35-.07,.64,.32,.79,.47,.18,1.33-.22,1.72-.47,.37-.23,2.06-1.33,2.6-1.56-.53,.23-1.95,1.23-2.19,1.41-.29,.22-.59,.4-.78,.73-.19,.33-.11,.82,.31,.89,.38,.07,.78-.05,1.13-.15,.65-.19,1.23-.56,1.8-.93,.52-.34,1-.82,1.6-1.01-.35,.11-.97,.54-1.24,.76-.58,.45-1.21,.87-1.36,1.1-.16,.26-.06,.98,.53,.96,.32,0,.69-.13,.96-.25,.35-.16,.7-.33,1.04-.52,.59-.32,.91-.8,1.63-.84,.53-.02,1.06,.12,1.54,.33,.33,.14,.65,.32,1,.39,.17,.03,.35,.06,.53,.09,1.11,.2,2.33-.25,3.14-1,.26-.23,.43-.53,.66-.78,.16-.18,.77-.58,.78-.84,0-.18-.51-.65-.64-.79-.28-.28-.48-.59-.72-.89-.3-.37-.53-.73-.92-1.02-.16-.12-.15-.12-.36-.04-.14,.06-.3,.11-.45,.18-.35,.16-.65,.42-1,.61Z" fill="#fcd4ca"/><path d="M286.36,225.5s4.77,2.95,6.16-2.41c0,0,4.05,.21,9.24,7.33,5.17,7.08,7.5,10.65,12.91,19.41-.79,.88-9.78,10.32-20.4,7.88,0,0-1.05-2.33-1.52-3.41-2-4.69-7.37-17.48-7.98-21.28-.85-5.28,1.59-7.51,1.59-7.51Z" fill="#ffd066"/><g mix-blend-mode="multiply" opacity=".32"><path d="M289.52,239.64c-.49-2.44,.95-15.49,5.43-12.28,2.53,1.81,3.05,6.2,2.28,10.24-.97,5.1-2.16,9.77-4.62,16.43-1.04-2.36-2.81-6.48-4.37-10.47,1.01-.9,1.62-2.25,1.28-3.92Z" fill="#d10056"/></g><path d="M269.35,253.59l2.77,5.2s16.05-6.41,18.72-8.87c2.67-2.46,9.11-21.91,2.81-23.96-6.3-2.04-7.88,18.25-9.26,19.5-1.38,1.25-15.04,8.14-15.04,8.14Z" fill="#ffd066"/></g><path d="M281.1,29.86h-3.66v-3.66c0-.42-.34-.76-.76-.76h-.02c-.42,0-.76,.34-.76,.76v3.66h-3.66c-.42,0-.76,.34-.76,.76v.02c0,.42,.34,.76,.76,.76h3.66v3.66c0,.42,.34,.76,.76,.76h.02c.42,0,.76-.34,.76-.76v-3.66h3.66c.42,0,.76-.34,.76-.76v-.02c0-.42-.34-.76-.76-.76Z" fill="#ededed"/><path d="M17.81,175.75h-3.66v-3.66c0-.42-.34-.76-.76-.76h-.02c-.42,0-.76,.34-.76,.76v3.66h-3.66c-.42,0-.76,.34-.76,.76v.02c0,.42,.34,.76,.76,.76h3.66v3.66c0,.42,.34,.76,.76,.76h.02c.42,0,.76-.34,.76-.76v-3.66h3.66c.42,0,.76-.34,.76-.76v-.02c0-.42-.34-.76-.76-.76Z" fill="#ededed"/><path d="M150.9,6.21h-5.15V1.06c0-.59-.48-1.06-1.06-1.06h-.02c-.59,0-1.06,.48-1.06,1.06V6.21h-5.15c-.59,0-1.06,.48-1.06,1.06v.02c0,.59,.48,1.06,1.06,1.06h5.15v5.15c0,.59,.48,1.06,1.06,1.06h.02c.59,0,1.06-.48,1.06-1.06v-5.15h5.15c.59,0,1.06-.48,1.06-1.06v-.02c0-.59-.48-1.06-1.06-1.06Z" fill="#ededed"/><path d="M366.38,49.32h-5.15v-5.15c0-.59-.48-1.06-1.06-1.06h-.02c-.59,0-1.06,.48-1.06,1.06v5.15h-5.15c-.59,0-1.06,.48-1.06,1.06v.02c0,.59,.48,1.06,1.06,1.06h5.15v5.15c0,.59,.48,1.06,1.06,1.06h.02c.59,0,1.06-.48,1.06-1.06v-5.15h5.15c.59,0,1.06-.48,1.06-1.06v-.02c0-.59-.48-1.06-1.06-1.06Z" fill="#ededed"/><path d="M250.89,73.04h-3.15v-3.15c0-.36-.29-.65-.65-.65h-.01c-.36,0-.65,.29-.65,.65v3.15h-3.15c-.36,0-.65,.29-.65,.65h0c0,.37,.29,.66,.65,.66h3.15v3.15c0,.36,.29,.65,.65,.65h.01c.36,0,.65-.29,.65-.65v-3.15h3.15c.36,0,.65-.29,.65-.65h0c0-.37-.29-.66-.65-.66Z" fill="#ededed"/><path d="M112.36,324.07h-5.15v-5.15c0-.59-.48-1.06-1.06-1.06h-.02c-.59,0-1.06,.48-1.06,1.06v5.15h-5.15c-.59,0-1.06,.48-1.06,1.06v.02c0,.59,.48,1.06,1.06,1.06h5.15v5.15c0,.59,.48,1.06,1.06,1.06h.02c.59,0,1.06-.48,1.06-1.06v-5.15h5.15c.59,0,1.06-.48,1.06-1.06v-.02c0-.59-.48-1.06-1.06-1.06Z" fill="#ededed"/><path d="M408.2,153.55h-3.36v-3.36c0-.38-.31-.69-.69-.69h-.01c-.38,0-.69,.31-.69,.69v3.36h-3.36c-.38,0-.69,.31-.69,.69h0c0,.4,.31,.71,.69,.71h3.36v3.36c0,.38,.31,.69,.69,.69h.01c.38,0,.69-.31,.69-.69v-3.36h3.36c.38,0,.69-.31,.69-.69h0c0-.4-.31-.71-.69-.71Z" fill="#ededed"/><path d="M54.26,56.92h-3.66v-3.66c0-.42-.34-.76-.76-.76h-.02c-.42,0-.76,.34-.76,.76v3.66h-3.66c-.42,0-.76,.34-.76,.76v.02c0,.42,.34,.76,.76,.76h3.66v3.66c0,.42,.34,.76,.76,.76h.02c.42,0,.76-.34,.76-.76v-3.66h3.66c.42,0,.76-.34,.76-.76v-.02c0-.42-.34-.76-.76-.76Z" fill="#ededed"/><path d="M338.5,241.43h-3.66v-3.66c0-.42-.34-.76-.76-.76h-.02c-.42,0-.76,.34-.76,.76v3.66h-3.66c-.42,0-.76,.34-.76,.76v.02c0,.42,.34,.76,.76,.76h3.66v3.66c0,.42,.34,.76,.76,.76h.02c.42,0,.76-.34,.76-.76v-3.66h3.66c.42,0,.76-.34,.76-.76v-.02c0-.42-.34-.76-.76-.76Z" fill="#ededed"/></g></g></svg>