<svg xmlns="http://www.w3.org/2000/svg" width="205.307" height="107.227" viewBox="0 0 205.307 107.227">
  <g id="logo" transform="translate(0.009 0.023)">
    <g id="Сгруппировать_1996" data-name="Сгруппировать 1996" transform="translate(-0.008 -0.023)">
      <g id="Сгруппировать_1965" data-name="Сгруппировать 1965" transform="translate(15.856 32.295)">
        <path id="Контур_2292" data-name="Контур 2292" d="M54.463,111.642c-.209-.641-.414-1.282-.623-1.922-.2-.608-1.01-2.065.2-2.3a4.8,4.8,0,0,1,1.439.206l1.977.317c.408.067.9-.5.314-.6-1.022-.163-2.046-.375-3.074-.49a2.693,2.693,0,0,0-1.65.221,1.169,1.169,0,0,0-.565,1.351,33.266,33.266,0,0,0,1.106,3.455c.124.375,1,.133.877-.236Z" transform="translate(-52.445 -106.817)"/>
      </g>
      <g id="Сгруппировать_1966" data-name="Сгруппировать 1966" transform="translate(10.105 21.009)">
        <path id="Контур_2293" data-name="Контур 2293" d="M37.169,69.519c-2.847,1.137-3.676,4.159-3.736,6.97-.048,2.267-.094,5.861,3.044,5.867,2.551,0,1.808-3.509,1.082-5a5.562,5.562,0,0,1-.617-1.726c-.027-.178-.23-1.339-.039-1.481.429-.314,1.294,1.106,1.59,1.508a4.653,4.653,0,0,0,3.116,2.267c.456.06.88-.6.293-.677-1.786-.236-2.394-1.929-3.458-3.1-.387-.426-1.013-1.143-1.656-1.091-1.442.115-.81,2.92-.5,3.748.435,1.185,1.659,2.778.979,4.12-.738,1.454-2.258.218-2.63-.7a6.308,6.308,0,0,1-.3-2.176c-.1-2.929.057-6.7,3.234-7.968.553-.221.066-.75-.4-.562Z" transform="translate(-33.421 -69.479)"/>
      </g>
      <g id="Сгруппировать_1967" data-name="Сгруппировать 1967" transform="translate(46.712 6.033)">
        <path id="Контур_2294" data-name="Контур 2294" d="M154.883,20.324q1.07,1.129,2.143,2.255c.532.559,1.8,1.363.916,1.98-.62.429-1.487.592-1.33,1.614.236,1.53,2.08.493.7,2.433a22.052,22.052,0,0,0-2.784,4.165c-.1.233.759.139.871-.124a12.57,12.57,0,0,1,2.146-3.364,4.026,4.026,0,0,0,1.215-2.3c.012-.145-.151-.154-.26-.16-1.36-.079-1.022-1.369-.239-1.9.151-.1.408-.033.571-.133.314-.19.568-.209.626-.626.07-.5-.961-1.215-1.227-1.493Q156.97,21.33,155.7,20c-.19-.2-1.019.115-.819.323Z" transform="translate(-154.525 -19.935)"/>
      </g>
      <g id="Сгруппировать_1968" data-name="Сгруппировать 1968" transform="translate(49.74 14.709)">
        <path id="Контур_2295" data-name="Контур 2295" d="M164.544,48.933q1.61,2.253,3.219,4.5c.142.2.928-.163.877-.236q-1.61-2.253-3.219-4.5c-.142-.2-.928.166-.877.236Z" transform="translate(-164.542 -48.639)"/>
      </g>
      <g id="Сгруппировать_1969" data-name="Сгруппировать 1969" transform="translate(80.163 22.868)">
        <path id="Контур_2296" data-name="Контур 2296" d="M265.555,76.294a2.851,2.851,0,0,1,2.835.955,3.675,3.675,0,0,0,1.378,1.149,2.353,2.353,0,0,0,2.509-.405,1.386,1.386,0,0,0-.245-2.222c-.623-.284-1.572.07-1.56.807.006.435.889.284.886-.079.154.112.305.224.459.332q-1.138,1.582-2.01.671a3.268,3.268,0,0,1-.611-.632,3.048,3.048,0,0,0-.995-.931,4.594,4.594,0,0,0-2.554-.248c-.478.048-.7.656-.094.6Z" transform="translate(-265.189 -75.629)"/>
      </g>
      <g id="Сгруппировать_1970" data-name="Сгруппировать 1970" transform="translate(74.738 25.019)">
        <path id="Контур_2297" data-name="Контур 2297" d="M248.057,86.81c1.206-1.36,3.322-4.12,5.414-3.63.2.048.958-.278.722-.336-2.817-.662-5.284,2.182-6.928,4.035-.172.193.65.088.792-.07Z" transform="translate(-247.242 -82.746)"/>
      </g>
      <g id="Сгруппировать_1971" data-name="Сгруппировать 1971" transform="translate(77.584 24.177)">
        <path id="Контур_2298" data-name="Контур 2298" d="M259.248,80.447a9.87,9.87,0,0,1,2.158,1.693c.529.744-.589,1.294-1.152,1.814-1.23,1.134-2.4,2.334-3.515,3.579-.348.387.5.4.707.166a53.957,53.957,0,0,1,5.3-5.148c.064-.054.136-.184.051-.26q-1.383-1.2-2.86-2.282c-.245-.178-1.049.178-.692.438Z" transform="translate(-256.656 -79.961)"/>
      </g>
      <g id="Сгруппировать_1972" data-name="Сгруппировать 1972" transform="translate(72.519 13.624)">
        <path id="Контур_2299" data-name="Контур 2299" d="M239.942,54.767c1.2,1.8,3.621,1.1,5.108.1,1.8-1.218,3.047-2.207,5.4-1.91,1.792.224,3.534.837,5.359.789,2.705-.073,5.042-1.545,7.037-3.256a11.2,11.2,0,0,0,2.615-2.548,1.445,1.445,0,0,0,.148-1.176c-.039-.16-.308-.514-.278-.65.184-.889,1.04.417,1.224.635a12.936,12.936,0,0,1,1.741,2.27c.115.151.233.3.348.453l-.65.985-1.049-.018a10.4,10.4,0,0,0-3.742.9,21.333,21.333,0,0,0-6.789,5.3,9.848,9.848,0,0,1-3.878,2.9,10.359,10.359,0,0,0-3.461,2.415c-1.5,1.478-3.54,4.026-1.019,5.622,1.2.762,3.748.9,3.966,2.681.1.8-.719,1.191-.653,1.977a6.312,6.312,0,0,0,.81,1.944c.481.955,1.106,1.774,1.659,2.681a3.7,3.7,0,0,1,.6,1.212c.142,1.1-.5,1.288-.9,1.974s-.423,1.641.5,1.865c.351.085,1.037-.432.514-.559-1.27-.311.535-1.913.735-2.548a2.8,2.8,0,0,0-.641-2.318,27.093,27.093,0,0,1-1.856-3.092,2.184,2.184,0,0,1-.148-2.176c.112-.363.263-.378.293-.771.1-1.351-1.381-2.219-2.442-2.627-1.179-.456-2.838-.843-2.778-2.473.045-1.276,1.251-2.337,2.086-3.162a9.2,9.2,0,0,1,3.467-2.291,6.6,6.6,0,0,0,2.219-1.276c1.52-1.354,2.751-3,4.31-4.329a12.534,12.534,0,0,1,6.154-3.165c1.735-.251,2.962.472,3.863-1.342a.212.212,0,0,0-.012-.227,26.6,26.6,0,0,0-3.1-3.96,1.615,1.615,0,0,0-1.868-.375.973.973,0,0,0-.444.741c-.082.831.662,1.185.067,2.128a9.349,9.349,0,0,1-1.693,1.617,19.463,19.463,0,0,1-2.427,1.913,8.312,8.312,0,0,1-5.994,1.4,29.577,29.577,0,0,0-4.87-.744,6.116,6.116,0,0,0-3.313,1.025c-1.451.94-3.921,3.331-5.4,1.1-.215-.314-1.055.006-.816.369Z" transform="translate(-239.9 -45.048)"/>
      </g>
      <g id="Сгруппировать_1973" data-name="Сгруппировать 1973" transform="translate(84.798 55.443)">
        <path id="Контур_2300" data-name="Контур 2300" d="M285.6,183.938c.8.532,1.681,1.227,1.3,2.318a5.8,5.8,0,0,1-1.212,1.56c-.865,1.028-.807,1.687-.928,2.962-.124,1.3-1.536,1.792-1.5,3.165a7.8,7.8,0,0,1,.07,2.7,3.558,3.558,0,0,1-2.47,2.451c-.535.151-.387.722.151.568a4.525,4.525,0,0,0,3.183-2.971,5.367,5.367,0,0,0,.048-2.267,2.841,2.841,0,0,1,.819-2.249,2.288,2.288,0,0,0,.435-.641c.469-1.124-.145-2.11.683-3.207a15.728,15.728,0,0,0,1.4-1.7c.777-1.394-.145-2.406-1.3-3.177-.305-.2-1.082.224-.68.49Z" transform="translate(-280.523 -183.395)"/>
      </g>
      <g id="Сгруппировать_1974" data-name="Сгруппировать 1974" transform="translate(92.968 58.218)">
        <path id="Контур_2301" data-name="Контур 2301" d="M309.015,192.744a3.875,3.875,0,0,0-1.451,1.463c-.082.142.308.1.354.094.157-.027.426-.088.511-.245a3.374,3.374,0,0,1,1.257-1.276c.154-.088.1-.184-.054-.2a1.087,1.087,0,0,0-.617.163Z" transform="translate(-307.553 -192.577)"/>
      </g>
      <g id="Сгруппировать_1975" data-name="Сгруппировать 1975" transform="translate(90.539 67.768)">
        <path id="Контур_2302" data-name="Контур 2302" d="M300.236,224.934l.45-.308c.136-.094.239-.29.06-.4a.631.631,0,0,0-.626.067l-.45.308c-.136.094-.239.29-.06.4a.638.638,0,0,0,.626-.066Z" transform="translate(-299.515 -224.169)"/>
      </g>
      <g id="Сгруппировать_1976" data-name="Сгруппировать 1976" transform="translate(103.529 51.319)">
        <path id="Контур_2303" data-name="Контур 2303" d="M342.532,170.239c.248.357.5.71.744,1.067.206.293,1.046-.024.807-.369s-.5-.71-.744-1.067c-.206-.3-1.046.024-.807.369Z" transform="translate(-342.49 -169.754)"/>
      </g>
      <g id="Сгруппировать_1977" data-name="Сгруппировать 1977" transform="translate(105.428 51.946)">
        <path id="Контур_2304" data-name="Контур 2304" d="M349.814,172.258c.592.728,1.17,1.469,1.717,2.231.435.6,1.82,2.125,1.59,2.9l.378-.278c-.5.163-.94.07-1.158.638a.122.122,0,0,0,.033.118c.777.765.958,1.351.112,2.025-.178.142-.387.109-.529.36s.021.493.051.747c.118,1.064.139,1.164-1.088,1.23-.665.36-1.049.278-1.155-.251a.934.934,0,0,1-.036-.949c.091-.317-.789-.193-.877.109-.471,1.638,1.212,2.494,2.609,2.013a2.355,2.355,0,0,0,1.514-1.372c.139-.459-.257-.865-.184-1.212.082-.4.475-.339.771-.547a1.183,1.183,0,0,0,.387-1.542c-.1-.245-.7-.883-.725-.819.027-.063.5-.1.608-.187.52-.447.063-1.016-.224-1.463a43.982,43.982,0,0,0-2.983-4.1c-.19-.239-1.031.073-.81.345Z" transform="translate(-348.772 -171.828)"/>
      </g>
      <g id="Сгруппировать_1978" data-name="Сгруппировать 1978" transform="translate(95.238 46.911)">
        <path id="Контур_2305" data-name="Контур 2305" d="M322.887,155.783a12.6,12.6,0,0,0-1.176,5.308,14.581,14.581,0,0,1-1.669,6.076c-.06.112.206.1.242.1a4.412,4.412,0,0,0,3.358-1.865c-.29.063-.58.13-.871.193.257,4.156-3.63,6.3-7.182,7.028-.024.006-.6.157-.52.278a4.382,4.382,0,0,0,5.187,1.533l-.583-.021c-.157.973-.29,2.334.846,2.775a1.886,1.886,0,0,0,1.678-.3,2.27,2.27,0,0,0,.626-2.246c-.166-1.058-.508-2.025.227-2.95a20.5,20.5,0,0,1,1.669-1.526,9.984,9.984,0,0,0,2.566-7.79,16.341,16.341,0,0,0-1.33-5.145c-.435-1.019-.937-2.013-2.152-2.065-.19-.009-.995.339-.568.357,2.019.088,2.808,4.486,3.05,6.03a10.825,10.825,0,0,1-1.028,6.859,8.784,8.784,0,0,1-2.155,2.548,3.324,3.324,0,0,0-1.369,1.771c-.209.946.3,1.814.284,2.751-.009.5-.305,1.514-1.085,1.155-.75-.342-.484-1.838-.4-2.382.033-.212-.5-.048-.583-.021a3.612,3.612,0,0,1-4.008-1.569c-.172.094-.348.187-.52.278,3.851-.792,8.509-2.923,8.222-7.587-.015-.224-.795.088-.871.193a1.881,1.881,0,0,1-1.638,1.028c.073-.145.145-.29.218-.438a9.665,9.665,0,0,1,.544-1.36,13.467,13.467,0,0,0,.574-2.678c.26-2.222.166-4.465,1.276-6.481.067-.109-.737-.063-.861.16Z" transform="translate(-315.062 -155.169)"/>
      </g>
      <g id="Сгруппировать_1979" data-name="Сгруппировать 1979" transform="translate(42.545 71.371)">
        <path id="Контур_2306" data-name="Контур 2306" d="M186.794,236.417a1.059,1.059,0,0,1,.009,1l.789-.254a3.437,3.437,0,0,0-3.419.735,2.535,2.535,0,0,0-.858,1.765c-.033.541.19,1.07.2,1.605a2.667,2.667,0,0,1-1.608,2.527c-1.3.741-3.824,1.022-4.486,2.636-.363.886.339,1.7.759,2.439q1.093,1.932,2.188,3.863c.133.233.78.006.871-.187,1.052-2.234,2.594-4.522,4.975-5.486a5.715,5.715,0,0,1,1.865-.408c.741-.036,1.406-.2.662.444s-1.578,1.206-2.312,1.889a10.9,10.9,0,0,0-3.246,5.359c-.686,2.594-1.07,5.036-3.361,6.768-1.511,1.143-3.772,1.451-5.051,2.9a5.824,5.824,0,0,0-.913,2.5,4.477,4.477,0,0,1-2.8,2.829c-.907.32-2.191.514-1.844-.671.181-.614.671-.8,1.158-1.146.333-.239.964-.617,1.022-1.085.206-1.629-2.2-.71-2.772-.372l.692.009c.272-1.566,2.279-1.759,3.621-1.593.187.024.7-.063.716-.314.057-1.034.707-3.718-.166-4.483a1.5,1.5,0,0,0-1.076-.287c-.193,0-.384.067-.574.063-.94-.015-1.8-.795-.756-1.526l-.774.039c-.556,1.53,1.862,1.659,2.642.84.23-.239.233-.6.351-.895.26-.659.326-.3.65-.753.868-1.218.849-3.343,1.115-4.794a.067.067,0,0,0-.024-.085,4.922,4.922,0,0,0-4.147-.07,51.863,51.863,0,0,0-6.312,3.122c-1.611.831-2.872,1.424-3.791,3.023a37.261,37.261,0,0,0-3.059,7.079l.789-.254c-1.285-.52-.5-2.85-1.433-3.821-.351-.363-.831-.472-1.01-1a10.761,10.761,0,0,1-.109-1.248c-.085-.405-.187-.768-.653-.861-.747-.151-1.375.725-1.572,1.321-.459,1.384.278,3.455-1.1,4.4.26-.027.52-.057.777-.085a5.008,5.008,0,0,1-.668-1.62c-.157-.81.03-.662-.523-1.182a8.516,8.516,0,0,0-2.711-1.312c-1.711-.614-3.766-1.1-5.514-.354-1.257.541-2.355,2.01-1.493,3.349a8.154,8.154,0,0,0,2.482,1.9q1.859,1.238,3.718,2.479l.254-.281a4.238,4.238,0,0,1-4.2-.453c-.568-.393-.88-.846-1.578-.855a1.25,1.25,0,0,0-.871.275,1.124,1.124,0,0,0-.3.351c-.051.076-.375,1.064-.393.7-.009-.193-.889-.039-.877.236.027.617.7.668,1.2.456.81-.348.553-1.714,1.481-1.27,1.079.517,1.69,1.212,2.98,1.33a5.8,5.8,0,0,0,2.881-.514c.048-.021.4-.181.254-.281l-4.184-2.787c-1.215-.81-2.863-1.693-2.028-3.395.408-.834,1.859-1.155,2.693-1.179a5.59,5.59,0,0,1,1.372.245,14.288,14.288,0,0,1,2.1.7c.831.351,1.962.744,2.321,1.656a12.072,12.072,0,0,0,.728,2.055c.13.218.629.018.777-.085,1.919-1.315.148-4.374,2.016-5.568-.233.051-.466.1-.7.151.795.357.326,1.614.653,2.252.363.7,1.17.789,1.436,1.626.335,1.049-.187,2.536,1.076,3.05.184.076.719-.033.789-.254a39.9,39.9,0,0,1,2.793-6.6,5.763,5.763,0,0,1,2.666-2.669q1.691-.875,3.382-1.744c1.091-.562,2.167-1.191,3.307-1.65,1.182-.475,3.18-1.058,3.292.722a9.446,9.446,0,0,1-.363,1.983,2.921,2.921,0,0,1-.834,1.959c-.145.142-.269.03-.4.275-.073.133-.085.435-.166.535-.608.722-1.514.849-1.1-.281.1-.269-.7-.012-.774.039-.988.692-1.656,1.9-.018,2.1.955.118,2.207-.608,2.584.771.275,1.01-.13,2.609-.187,3.654l.716-.314c-1.823-.227-4.643-.212-5.048,2.128-.045.26.6.067.692.009q2.231-.426.849,1.025l-.3.209c-.284.233-.632.378-.907.629a1.333,1.333,0,0,0-.559,1.028c0,1.14,1.348.907,2.131.759a6.431,6.431,0,0,0,3.047-1.49,4.464,4.464,0,0,0,1.2-1.65c.435-1.1.275-2.116,1.239-3,1.33-1.215,3.388-1.554,4.833-2.693a7.764,7.764,0,0,0,2.633-3.89c.6-1.913.777-3.948,1.82-5.7a17.652,17.652,0,0,1,5.066-4.861c.139-.1.112-.206-.06-.23-4.579-.656-7.917,2.415-9.763,6.333.29-.063.58-.124.871-.187-.907-1.6-1.91-3.18-2.736-4.827-1.112-2.219,2.013-2.811,3.473-3.5a4.231,4.231,0,0,0,2.237-1.968,3.765,3.765,0,0,0,.051-1.974c-.151-1.433.481-3.44,2.606-2.7.19.066.716-.027.789-.254a1.409,1.409,0,0,0,0-1.091c-.066-.245-.934.012-.862.227Z" transform="translate(-140.74 -236.09)"/>
      </g>
      <g id="Сгруппировать_1980" data-name="Сгруппировать 1980" transform="translate(74.556 83.87)">
        <path id="Контур_2307" data-name="Контур 2307" d="M246.889,279.14a2.719,2.719,0,0,1,1.98.532c.583.55.435,1.115.4,1.832a2.249,2.249,0,0,0,.677,2.071,1.619,1.619,0,0,0,2.461-.783,10.131,10.131,0,0,0,.224-2.687,1.351,1.351,0,0,0-.768-1.369c-.106-.051-.251-.006-.354-.057-.5-.245-.462-.453-.738-.728a1.464,1.464,0,0,0-.493-.4,2.769,2.769,0,0,0-1.868.142c-.508.169-.408.608.115.432a1.122,1.122,0,0,1,1.505.32c.311.305-.03.263.342.532.393.284.943.088,1.221.565a3.274,3.274,0,0,1,.085,1.847c-.042.5.106,2.518-1.106,1.687-1.025-.7.009-2.488-.623-3.44a3.036,3.036,0,0,0-2.724-.994c-.32.009-.928.508-.339.5Z" transform="translate(-246.642 -277.437)"/>
      </g>
      <g id="Сгруппировать_1981" data-name="Сгруппировать 1981" transform="translate(76.377 90.491)">
        <path id="Контур_2308" data-name="Контур 2308" d="M253.533,304.689a2.5,2.5,0,0,1,2.059-2.11c.583-.157,1.194-.148,1.774-.342.732-.245,1.578-.725,1.7-1.566.26-1.756-2.473-1.714-2.557-.218-.012.184.858.063.877-.236q.571-.7.768.109a1.146,1.146,0,0,1-.03.771,1.964,1.964,0,0,1-1.647.976,8.937,8.937,0,0,0-1.868.4,3.019,3.019,0,0,0-1.944,2.346c-.048.272.825.121.868-.13Z" transform="translate(-252.664 -299.342)"/>
      </g>
      <g id="Сгруппировать_1982" data-name="Сгруппировать 1982" transform="translate(39.88 92.752)">
        <path id="Контур_2309" data-name="Контур 2309" d="M131.925,307.217q.141.97.284,1.938c.057.384.027.964.5,1.073.487.112.907-.26,1.264-.523l1.817-1.336c.478-.351-.257-.517-.553-.3-.405.3-.807.6-1.212.892-.233.172-.759.729-1.049.744l.351.088c-.3-.239-.26-.985-.311-1.324-.073-.493-.145-.988-.218-1.481-.042-.329-.922-.124-.871.23Z" transform="translate(-131.923 -306.821)"/>
      </g>
      <g id="Сгруппировать_1983" data-name="Сгруппировать 1983" transform="translate(35.278 91.716)">
        <path id="Контур_2310" data-name="Контур 2310" d="M117.038,303.888c.472-.066.514.852.538,1.118a2.12,2.12,0,0,0,.257.958,1.575,1.575,0,0,0,1.345.783c.913,0,2-.895,1.406-1.841-.148-.239-1,.039-.813.339.272.435-.024,1.209-.6.913a1.5,1.5,0,0,1-.7-1.276c-.079-.819-.314-1.608-1.3-1.469-.42.06-.735.562-.127.475Z" transform="translate(-116.699 -303.397)"/>
      </g>
      <g id="Сгруппировать_1984" data-name="Сгруппировать 1984" transform="translate(33.099 98.193)">
        <path id="Контур_2311" data-name="Контур 2311" d="M119.354,326.527c.381-1.874-1.953-2.11-3.056-1.158-.9.777-.892,2.037-1.669,2.866-1.832,1.953-5.16-.079-4.023-2.584.209-.462-.674-.478-.84-.112a2.888,2.888,0,0,0,2.385,4.129,4.362,4.362,0,0,0,3.035-.834,2.646,2.646,0,0,0,.771-1.125c.127-.323.2-.671.342-.991.124-.227.248-.453.372-.683q1.981-1.17,1.8.55c-.091.444.807.345.889-.057Z" transform="translate(-109.491 -324.823)"/>
      </g>
      <g id="Сгруппировать_1985" data-name="Сгруппировать 1985" transform="translate(35.25 98.664)">
        <path id="Контур_2312" data-name="Контур 2312" d="M116.608,326.749c.175,1.835,3.065,1.5,3.225-.175.033-.342-.846-.175-.874.115-.039.423-.317.976-.822.777a1.106,1.106,0,0,1-.653-.952c-.027-.275-.91-.088-.877.236Z" transform="translate(-116.607 -326.38)"/>
      </g>
      <g id="Сгруппировать_1986" data-name="Сгруппировать 1986" transform="translate(0 58.507)">
        <path id="Контур_2313" data-name="Контур 2313" d="M42.243,237.568a3.172,3.172,0,0,1,.326,1.768c-.333,1.034-1.578.345-2.146-.206-.157-.151-.8,0-.843.227a5.99,5.99,0,0,1-.357,1.381c-.393.84-.441.453-1.106.106a2.309,2.309,0,0,0-1.566-.278,1.793,1.793,0,0,0-1.058.753c-.142.166-.245.408-.329.4-.323-.015-.574-1.016-.674-1.248-.523-1.251-1.357-1.363-2.606-1.025a6.691,6.691,0,0,1-1.007.314c-1.381.139-1.127-.813-.626-1.53a20.519,20.519,0,0,0,1.587-2.062c.088-.166-.323-.139-.363-.133-.919.106-3.784,1.294-3.382-.529.224-1.013,1.678-1.829,2.261-2.642.082-.112-.009-.181-.127-.193-.771-.082-1.5.354-2.146-.106-.577-.127-.656-.393-.23-.8.148-.2.3-.387.456-.577a3.618,3.618,0,0,0,.538-.961c.021-.06-.027-.106-.082-.124a3.123,3.123,0,0,1-.991-.378c-.354-.239-.556-.816-.886-1.04a4.966,4.966,0,0,0-2.21-.314,3.2,3.2,0,0,0-3.116,1.517c.29-.045.58-.088.871-.133a5.367,5.367,0,0,1,1.1-1.726c1.013-.886,2.881-.671,4.081-.293a8.581,8.581,0,0,1,2.887,1.614c.771.647,1.194,1.523,1.9,2.207a1.939,1.939,0,0,0,2.53.033c1.233-.858,1.336-3.219.656-4.453a2.046,2.046,0,0,0-1.472-.925,4.793,4.793,0,0,1-2.461-1.185,3.388,3.388,0,0,0-1.789-1.14c-1.058-.187-2.228.32-3.237-.266-.656-.381-.874-1.279-1.587-1.644a3.7,3.7,0,0,0-1.669-.263c-.574-.009-1.505.064-1.829-.565-.242-.466.091-1.121.206-1.575a3.107,3.107,0,0,0-.245-2.5,2.206,2.206,0,0,0-1.611-.958c-.112-.012-.592.1-.689.036-.45-.281-.263-1.366-.227-1.747a3.654,3.654,0,0,0-.094-2.095c-.363-.671-2.337-1.2-1.626-2.207.048-.066.054-.154-.048-.178-1.245-.29-2.763-.55-3.9.242-1.4.973-.907,2.863-1.475,4.262-.952,2.34-3.633,3.5-6.015,3.648a3.449,3.449,0,0,1-3.5-1.623c-.251-.348-.523-.647-.792-.979C1.463,215.408.209,213.4,1.2,213.5c.193.018.71-.057.713-.323a2.765,2.765,0,0,1,.78-2.046l-.813.172c1.221,1.321.662,3.582,2.473,4.462a3.643,3.643,0,0,0,3.044-.039,3.008,3.008,0,0,0,1.457-3.754c-.641-2.264-2.805-3.561-3.866-5.577a8.146,8.146,0,0,1-.166-6.538,14.626,14.626,0,0,1,1.735-3.225c.42-.626.9-1.351.553-2.116-.447-.982-1.783-1.118-2.705-.871-1.572.429-2.261,1.968-2.8,3.358-.085.218.771.121.871-.133a6.38,6.38,0,0,1,1.1-2.149c.71-.744,2.288-1.112,2.72.172.4,1.185-1.279,2.769-1.8,3.815a9.043,9.043,0,0,0-.583,7.521C5,208.691,8,210.251,8.146,213.132c.076,1.548-1.061,3.144-2.99,2.282a2.3,2.3,0,0,1-1.218-1.354c-.435-1.067-.414-2.185-1.236-3.074-.166-.178-.68.021-.813.172a3.261,3.261,0,0,0-.852,2.255c.239-.109.478-.218.713-.323a1.5,1.5,0,0,0-1.69.9,1.606,1.606,0,0,0,.369,1.493,22.152,22.152,0,0,0,1.545,2c1.726,1.913,5.438.976,7.445.006a6.9,6.9,0,0,0,2.838-2.355,5.2,5.2,0,0,0,.771-2.2c.181-1.291.366-3.615,2.687-2.793.789.278.281.459.662,1.091s1.227.686,1.6,1.345c.7,1.257-.4,2.751.456,4.023.07.1.369.042.456.015,1.938-.565,2.255,1.856,1.98,3.089-.148.665-.562,1.381-.015,1.989a1.932,1.932,0,0,0,1.4.441c1.121.063,2-.006,2.793.922a3.136,3.136,0,0,0,1.587,1.288c1.188.305,2.4-.462,3.506.345.632.462,1.031,1.152,1.756,1.508.892.438,2.043.212,2.687,1.061a4.143,4.143,0,0,1,.221,3.579c-1.218,1.814-2.3-.683-3-1.372A8.452,8.452,0,0,0,27.22,227.1c-2.714-.39-4.465.36-5.665,2.778-.1.2.741.094.871-.133a4.446,4.446,0,0,1,2.5-.916,2.808,2.808,0,0,1,.828.109,2.874,2.874,0,0,1,.937.8,3.026,3.026,0,0,0,.583.6c.459.32.559.051.408.583-.073.251-.381.49-.526.707-.825,1.224-.184,1.889,1.173,1.644.559-.1,1.1-.508.789.136-.19.4-.786.753-1.088,1.076-.417.441-1,1.055-.846,1.732.39,1.678,3.231.305,4.15.2-.121-.045-.242-.091-.363-.133-.39.738-3.443,3.452-1.215,3.936.97.209,1.883-.49,2.853-.351.943.136.877.647,1.224,1.393a1.606,1.606,0,0,0,.768.907,1.177,1.177,0,0,0,1.07-.136c.287-.184.375-.58.629-.762.7-.5,1.267.305,1.956.553,1.511.544,2.01-1.623,2.2-2.621l-.843.227a3.094,3.094,0,0,0,3,.816c1.27-.493.874-1.916.52-2.932-.094-.245-.964.012-.883.245Z" transform="translate(0.008 -193.533)"/>
      </g>
      <g id="Сгруппировать_1987" data-name="Сгруппировать 1987" transform="translate(1.63 16.953)">
        <path id="Контур_2314" data-name="Контур 2314" d="M6.265,100.761A10.071,10.071,0,0,1,7.29,97.747c.949-1.557,3.2-2.282,4.156-.329.756,1.533.187,3.277.317,4.9.151,1.868,2.007,4.026,4,2.72,1.134-.744,1.01-2.331,1.04-3.512a13.883,13.883,0,0,0-.7-5.486c-.629-1.605-1.693-3.038-2-4.764a3.693,3.693,0,0,1,.828-3.328,12.053,12.053,0,0,0,1.584-1.533,6.959,6.959,0,0,0,.644-3.376,3.213,3.213,0,0,1,.786-2.149c.466-.475.934-.7,1.013-1.418.224-2.04-2.621-4.214-3.848-5.574a10.637,10.637,0,0,1-2.887-6.112,17.918,17.918,0,0,1,.212-5.254,4.971,4.971,0,0,1,4.706-4.274,6.485,6.485,0,0,1,4.005.42c.834.456,1.53,1.167,2.346,1.663a5.551,5.551,0,0,0,3.908.883,3.379,3.379,0,0,0,2.612-1.907,2.275,2.275,0,0,0-1.333-2.962L28.6,56.7c1.947-1.206,2.334,2.581,2.065,3.549-.36,1.294-1.675,1.366-2.636,2a1.931,1.931,0,0,0-.982,1.475,4.089,4.089,0,0,0,.2,1.264,6.291,6.291,0,0,1,.169.78q-.83,2.176-2.4.308l-.786.269a1.736,1.736,0,0,0,2.467-.735c.692-1.7-1.551-2.6-2.814-2.612-1.533-.018-1.938,1.043-1.759,2.47a4.179,4.179,0,0,0,3.3,3.739,4.822,4.822,0,0,0,3.89-1.375c2.228-1.735,4.4-3.518,6.478-5.429a2.646,2.646,0,0,1,2.237-.858,3.939,3.939,0,0,0,.762-.048,3.8,3.8,0,0,0,1.669-1.182c1.236-1.106,1.95-.405,3.268-.765,1.179-.323,2.1-2.442,3.715-1.254.254.187,1.061-.163.813-.348a2.78,2.78,0,0,0-2.24-.544c-1.309.245-2.028,1.611-3.328,1.672a3.493,3.493,0,0,0-2.421.577c-.647.517-.979,1.257-1.9,1.381-.638.088-1.118-.151-1.75.085-1.152.429-2.028,1.641-2.923,2.427-1.415,1.242-2.908,2.394-4.377,3.57-1.161.928-2.231,2-3.917,1.445a3.531,3.531,0,0,1-2.122-2.176c-.278-.725-.617-2.071,0-2.639.438-.4,1.182-.172,1.675.1.193.157.387.311.58.469q.893,1.011-.614,1.605c-.193-.121-.747.006-.786.269-.278,1.82,2.418,1.433,3.376.88a1.488,1.488,0,0,0,.78-1.526c-.039-.656-.429-1.273-.326-1.941.148-.949.922-1.221,1.7-1.584a3.225,3.225,0,0,0,1.892-4,2.274,2.274,0,0,0-3.506-1.584c-.1.063-.281.281-.073.354a1.876,1.876,0,0,1,1.264,1.986c-.118,1.929-2.282,2.273-3.806,1.741-1.678-.586-2.814-2.146-4.492-2.678a9.385,9.385,0,0,0-7.466,1.264c-2.255,1.759-2.325,5.287-2.216,7.9A10.659,10.659,0,0,0,13.4,73.2c1.276,1.666,3.014,3,4.117,4.8.544.889.807,1.523.045,2.509-.145.19-.438.342-.6.538a2.936,2.936,0,0,0-.553,1.2c-.417,1.681.166,3.367-1.212,4.725-.943.928-1.8,1.5-2.016,2.9a7.824,7.824,0,0,0,1.182,4.6A13.076,13.076,0,0,1,15.9,99.479a23.844,23.844,0,0,1-.021,3.286c-.021.311.03,1.037-.178,1.294l-1.56.662a2.473,2.473,0,0,1-.828-.623c-1.826-2.122,1.091-7.711-2.911-8.418-3.119-.55-4.459,2.814-5.018,5.2-.079.317.8.187.877-.121Z" transform="translate(-5.384 -56.06)"/>
      </g>
      <g id="Сгруппировать_1988" data-name="Сгруппировать 1988" transform="translate(5.943 66.891)">
        <path id="Контур_2315" data-name="Контур 2315" d="M20.115,221.43c-1.354,1.569.553,2.947,2.1,2.941.26,0,.565-.1.819-.073a1.14,1.14,0,0,1,1.022,1.179c-.048.716-.762,1.409-.919,2.122a1.267,1.267,0,0,0,.1.97c.487,1.007,1.251,1.469.771,2.748-.172.456.7.423.831.082a2.532,2.532,0,0,0-.136-2.34,2.442,2.442,0,0,1-.154-2.73,4.593,4.593,0,0,0,.626-1.684c-.009-.58-.372-.858-.934-.973a4.079,4.079,0,0,0-1.118.024,2.71,2.71,0,0,1-1.681-.215c-.656-.308-1.336-.967-.6-1.82.36-.414-.481-.517-.722-.233Z" transform="translate(-19.653 -221.269)"/>
      </g>
      <g id="Сгруппировать_1989" data-name="Сгруппировать 1989" transform="translate(11.783 66.635)">
        <path id="Контур_2316" data-name="Контур 2316" d="M39.377,220.594a.825.825,0,0,0-.263,1.176,1.952,1.952,0,0,0,1.508.65,1.137,1.137,0,0,0,.614-.112c.057-.03.311-.2.109-.227a1.954,1.954,0,0,1-1.294-.472c-.209-.242-.336-.795,0-.994.148-.088.1-.175-.051-.19a1.134,1.134,0,0,0-.62.169Z" transform="translate(-38.973 -220.422)"/>
      </g>
      <g id="Сгруппировать_1990" data-name="Сгруппировать 1990" transform="translate(12.51 69.23)">
        <path id="Контур_2317" data-name="Контур 2317" d="M42.04,229.213a1.446,1.446,0,0,0-.544,1.7c.326.571,1.445-.145,1.545.4.03.166.913-.03.877-.236-.1-.535-.834-.323-1.185-.281-.438.051-.493-.39-.447-.735a1.381,1.381,0,0,1,.547-.922c.16-.124-.142-.136-.2-.13a1.109,1.109,0,0,0-.589.206Z" transform="translate(-41.378 -229.006)"/>
      </g>
      <g id="Сгруппировать_1991" data-name="Сгруппировать 1991" transform="translate(14.184 72.134)">
        <path id="Контур_2318" data-name="Контур 2318" d="M47.472,238.686a.811.811,0,0,0-.423,1.218c.348.547,1.17.49,1.723.411.166-.024.462-.112.493-.314s-.248-.236-.387-.218c-.308.042-.728.118-.961-.148a.557.557,0,0,1-.127-.354,1.412,1.412,0,0,0,.024-.157.146.146,0,0,0,.024-.048c-.076.039-.079.042-.009.015.139-.051.342-.224.227-.381s-.432-.079-.583-.024Z" transform="translate(-46.914 -238.615)"/>
      </g>
      <g id="Сгруппировать_1992" data-name="Сгруппировать 1992" transform="translate(43.965 0)">
        <path id="Контур_2319" data-name="Контур 2319" d="M146.307,18.74c2.04-2.642,4.368-5.855,3.349-9.392a4.964,4.964,0,0,0-.934-1.786c-.565-.692-1.4-1.191-1.741-2.055-.656-1.663.342-3.648.169-5.393-.2.121-.405.242-.611.363.967-.03,1.152,2.763,1.508,3.425a5.382,5.382,0,0,0,2.814,2.382,9.557,9.557,0,0,1,2.255,1.1,9.341,9.341,0,0,1,1.69,2.031c.9,1.26,3.21,3.494,2.835,5.127.263-.088.526-.178.786-.266a32.414,32.414,0,0,1-4.486-2.424.689.689,0,0,0-.756.2c-.738,1.236.532,2.581,1.176,3.606.813,1.3,1.566,3.153,2.947,3.939a9.182,9.182,0,0,0,4.38,1.221,10.561,10.561,0,0,1,2.591-.124c1.134.215.874.3,1.412,1.061a3.839,3.839,0,0,0,.647.738,27.447,27.447,0,0,0,4.631,2.714c1.206.68,2.6,1.8,4.06,1.744a4.456,4.456,0,0,0,2.675-1.381c1.542-1.345,3.05-2.733,4.573-4.1.375-.336-.49-.329-.7-.139q-1.664,1.492-3.328,2.98c-.52.466-1.028.955-1.566,1.4a2.813,2.813,0,0,1-3.192.1c-1.4-.762-2.784-1.569-4.177-2.352a12.029,12.029,0,0,1-2.167-1.312,10.113,10.113,0,0,1-1.049-1.472,1.89,1.89,0,0,0-1.8-.792,11.128,11.128,0,0,0-1.294.257,6.9,6.9,0,0,1-3.772-.441,5.356,5.356,0,0,1-2.977-2.639c-.674-1.076-3.032-3.715-2.27-5l-.756.2a32.587,32.587,0,0,0,4.486,2.424c.209.094.725,0,.786-.266.369-1.6-1.393-3.249-2.243-4.44-1.185-1.666-2.128-3.05-4.054-3.857-2.013-.843-3.392-1.859-3.836-4.108-.184-.934-.329-2.074-1.5-2.037-.19.006-.635.094-.611.363.157,1.605-.571,3.177-.323,4.767.251,1.605,1.835,2.267,2.515,3.651,1.756,3.576-.874,7.233-2.977,9.96-.215.311.662.245.834.021Z" transform="translate(-145.439 0.023)"/>
      </g>
      <g id="Сгруппировать_1993" data-name="Сгруппировать 1993" transform="translate(50.475 0.472)">
        <path id="Контур_2320" data-name="Контур 2320" d="M169.682,1.9c-1.321-.71-2.454.517-2.63,1.765a2.837,2.837,0,0,0,.333,2.252,2.743,2.743,0,0,0,1.8.738,2.261,2.261,0,0,0,1.78-.3A3.113,3.113,0,0,0,171.7,4.2c.091-1.572-.952-2.99-2.627-2.594-.538.127-.4.653.142.526,1.306-.308,1.663,1.442,1.6,2.3a4.877,4.877,0,0,1-.215,1.118c-.172.517-.5.553-.979.538a1.615,1.615,0,0,1-1.729-1.236c-.085-.529.018-3.08,1.106-2.494.293.166,1.082-.248.683-.462Z" transform="translate(-166.975 -1.538)"/>
      </g>
      <g id="Сгруппировать_1994" data-name="Сгруппировать 1994" transform="translate(15.504 22.3)">
        <path id="Контур_2321" data-name="Контур 2321" d="M121.8,101.663a27.586,27.586,0,0,1-.39,13.345,33.882,33.882,0,0,1-6.493,11.692,50.258,50.258,0,0,1-9.337,9.649,30.209,30.209,0,0,1-12.626,5.272c-8.663,1.511-17.586-.635-25.14-4.982-6.369-3.667-10.586-9.594-13.288-16.341a30.689,30.689,0,0,1-2.382-10.791c-.051-3.494-.088-7.391.931-10.761A27.805,27.805,0,0,1,56.195,92.8a55.31,55.31,0,0,1,3.981-5.882A35.017,35.017,0,0,1,69.431,78.7a29.423,29.423,0,0,1,25.663-2.648,47.82,47.82,0,0,1,11.1,6.429c3.537,2.66,5.568,6.079,7.164,10.147,1.569,4,3.2,8.086,3.431,12.421a29.649,29.649,0,0,1-2.545,12.88,43.911,43.911,0,0,1-6.732,11.4,21.81,21.81,0,0,1-11.471,6.877,34.118,34.118,0,0,1-24.206-2.784c-6.457-3.37-12.318-9.316-13.7-16.655-1.578-8.391-.387-18.333,5.263-25.059A31.249,31.249,0,0,1,74.47,83.653a27.64,27.64,0,0,1,14.422-2.8c7.3.792,14.978,4.48,18.569,11.148,3.525,6.547,4.939,14.688,3.071,21.924-2.031,7.874-7.911,15.827-16.3,17.372a30.086,30.086,0,0,1-22.1-4.948,25.566,25.566,0,0,1-7.282-8,18.229,18.229,0,0,1-1.98-12.073C64.03,98.02,71.106,90.4,79.361,88.834a23.053,23.053,0,0,1,13.584,1.907c.245.109,1.049-.254.7-.408-7.823-3.482-16.716-3.029-23.493,2.448-6.708,5.42-10.543,14.718-7.427,23.1,2.766,7.442,9.709,12.662,17.124,14.872,7.288,2.173,16,2.3,22.269-2.536a27.082,27.082,0,0,0,10.12-22.266c-.323-7.581-3.225-15.969-9.543-20.531a27.171,27.171,0,0,0-24.185-3.778C70.19,84.294,62.05,89.675,58.855,98.123s-3.546,19.4,1.974,26.963A32.062,32.062,0,0,0,80.1,137.1c7.88,1.572,17.423.6,24.155-4.047,3.745-2.581,6.3-6.408,8.473-10.329a38,38,0,0,0,4.758-13.373c.635-4.876-.42-9.419-2.113-13.974-1.593-4.286-3.171-8.657-6.638-11.813a35.567,35.567,0,0,0-5.3-3.809,55.871,55.871,0,0,0-6.2-3.506,28.867,28.867,0,0,0-13.312-2.461A33.446,33.446,0,0,0,61.684,84.264a56.963,56.963,0,0,0-8.044,11.517c-2.137,3.754-2.231,7.868-2.346,12.085A31.4,31.4,0,0,0,53.26,119.5a36.87,36.87,0,0,0,5.326,10.02,29.136,29.136,0,0,0,8.76,7.666,41.637,41.637,0,0,0,12.989,4.794,33.982,33.982,0,0,0,25.034-4.858,46.669,46.669,0,0,0,9.839-9.754c3.044-3.781,5.74-7.75,7.079-12.469a27.882,27.882,0,0,0,.393-13.463c-.06-.287-.94-.07-.877.23Z" transform="translate(-51.284 -73.751)"/>
      </g>
      <g id="Сгруппировать_1995" data-name="Сгруппировать 1995" transform="translate(30.788 38.681)">
        <path id="Контур_2322" data-name="Контур 2322" d="M128.227,128.429c3.842,2.433,7.327,5.356,9.507,9.416a23.449,23.449,0,0,1,2.757,11.719,19.287,19.287,0,0,1-3,9.954,14,14,0,0,1-11.06,6.145c-4.347.32-9.464-.263-13.327-2.367a22.888,22.888,0,0,1-8.969-9.062c-2.019-3.86-1.669-8.639-.384-12.7a13.838,13.838,0,0,1,8.367-9.092c4.643-1.714,9.794-.919,14.21,1.085a12.9,12.9,0,0,1,5.033,3.624,17.358,17.358,0,0,1,3.02,6.686,14.556,14.556,0,0,1-2.276,12.133c-2.986,3.927-7.908,5.066-12.578,4.1-4.316-.889-8.615-3.135-10.444-7.354-1.641-3.791-1.956-9.029.5-12.514a10.171,10.171,0,0,1,12.856-2.908,11.734,11.734,0,0,1,4.51,3.685,10.769,10.769,0,0,1,1.46,6.511,9.225,9.225,0,0,1-2.164,6.221,8.177,8.177,0,0,1-7.3,2.331,8.429,8.429,0,0,1-6.4-10.438,6.5,6.5,0,0,1,2.406-3.836,7.888,7.888,0,0,1,5.338-.765,5.752,5.752,0,0,1,4.507,4.7c.426,2.781-1.566,6.26-4.679,6.157a3.363,3.363,0,0,1-2.66-5.22q.667-1.374,2.037-.073c-.1.32.777.209.877-.1.574-1.783-1.835-1.533-2.736-.9a3.77,3.77,0,0,0-.91,5.257c2.587,3.525,7.717.644,8.745-2.711a5.974,5.974,0,0,0-1.663-6.1,7.468,7.468,0,0,0-6.384-1.53,6.241,6.241,0,0,0-5.057,3.37,9.125,9.125,0,0,0-.58,6.828,8.843,8.843,0,0,0,10.166,5.822,9.54,9.54,0,0,0,5.311-2.987,10.032,10.032,0,0,0,2.022-6.635c-.006-2.364-.3-4.725-1.8-6.632a12.668,12.668,0,0,0-5.816-4.011,11.42,11.42,0,0,0-12.363,3.21c-3.307,3.939-2.974,10.571-.417,14.833,2.606,4.341,8.21,6.466,13.082,6.635a12.922,12.922,0,0,0,11.6-5.891c2.99-4.785,2.566-10.815.121-15.73-2.467-4.951-7.744-7.363-13.04-8.134a16.78,16.78,0,0,0-13.542,3.627c-3.893,3.464-5.317,8.941-5.266,13.992.057,5.6,4.066,10.35,8.385,13.53,4.253,3.132,9.863,4.069,15.059,3.9,4.685-.157,9.156-1.78,12.158-5.507,6.36-7.9,4.619-20.534-2.086-27.637a32.919,32.919,0,0,0-6.445-5.093c-.257-.151-1.061.221-.692.45Z" transform="translate(-101.846 -127.944)"/>
      </g>
    </g>
    <g id="Сгруппировать_1997" data-name="Сгруппировать 1997" transform="translate(124.568 27.225)">
      <path id="Контур_2323" data-name="Контур 2323" d="M413.913,90.12h1.605v5.115h.6l2.059-5.115h1.605L417.5,95.588l2.557,6.039h-1.605l-2.331-5.61h-.611v5.61H413.91V90.12Z" transform="translate(-413.369 -90.12)"/>
      <path id="Контур_2324" data-name="Контур 2324" d="M445.84,90.12H448.7a2.665,2.665,0,0,1,2.167.81,3.623,3.623,0,0,1,.674,2.373,3.1,3.1,0,0,1-.725,2.188,2.733,2.733,0,0,1-2.1.78h-1.263v5.356H445.84Zm2.343,5a3.02,3.02,0,0,0,1.1-.157,1,1,0,0,0,.562-.541,2.814,2.814,0,0,0,.169-1.109,4.79,4.79,0,0,0-.127-1.294.9.9,0,0,0-.5-.583,3.038,3.038,0,0,0-1.185-.169h-.753V95.12h.738Z" transform="translate(-435.647 -90.12)"/>
      <path id="Контур_2325" data-name="Контур 2325" d="M476.39,90.12h4.462v1.194H478v3.809h2.315v1.137H478v4.22h2.884v1.152H476.39Z" transform="translate(-456.963 -90.12)"/>
      <path id="Контур_2326" data-name="Контур 2326" d="M503.847,90.12h1.536l2.473,11.508H506.32l-.526-2.9h-2.343l-.541,2.9h-1.52Zm1.735,7.46L504.63,92.4l-.967,5.184Z" transform="translate(-474.406 -90.12)"/>
      <path id="Контур_2327" data-name="Контур 2327" d="M540.829,101.628H534.62V90.12h1.605v10.356h3.268V90.12H541.1v10.356h1.094v3.24h-1.236Z" transform="translate(-497.591 -90.12)"/>
      <path id="Контур_2328" data-name="Контур 2328" d="M571.89,90.12h4.462v1.194h-2.857v3.809h2.316v1.137h-2.316v4.22h2.884v1.152H571.89Z" transform="translate(-523.595 -90.12)"/>
      <path id="Контур_2329" data-name="Контур 2329" d="M599.01,90.12h1.605v4.972h2.956V90.12h1.605v11.508h-1.605V96.244h-2.956v5.384H599.01Z" transform="translate(-542.518 -90.12)"/>
      <path id="Контур_2330" data-name="Контур 2330" d="M632.594,91.314h-2.1V90.12h5.725v1.194H634.2v10.314h-1.605Z" transform="translate(-564.482 -90.12)"/>
      <path id="Контур_2331" data-name="Контур 2331" d="M660.34,90.12H663.2a2.665,2.665,0,0,1,2.167.81,3.623,3.623,0,0,1,.674,2.373,3.1,3.1,0,0,1-.725,2.188,2.733,2.733,0,0,1-2.1.78h-1.264v5.356h-1.6Zm2.346,5a3.02,3.02,0,0,0,1.1-.157,1,1,0,0,0,.562-.541,2.816,2.816,0,0,0,.169-1.109,4.789,4.789,0,0,0-.127-1.294.9.9,0,0,0-.5-.583,3.038,3.038,0,0,0-1.185-.169h-.753V95.12h.738Z" transform="translate(-585.309 -90.12)"/>
      <path id="Контур_2332" data-name="Контур 2332" d="M413.92,158.12h6.336v11.508h-1.605V159.272h-3.126v10.356H413.92Z" transform="translate(-413.376 -137.565)"/>
      <path id="Контур_2333" data-name="Контур 2333" d="M445.98,168.434a1.567,1.567,0,0,0,.952-.227,2.015,2.015,0,0,0,.568-1.137,17.257,17.257,0,0,0,.354-2.826l.384-6.124H453.3v11.508H451.69V159.314h-2.074l-.269,4.93a18.379,18.379,0,0,1-.384,3.068,3.5,3.5,0,0,1-.88,1.732,2.373,2.373,0,0,1-1.732.6,3.65,3.65,0,0,1-.369-.015v-1.191Z" transform="translate(-435.745 -137.565)"/>
      <path id="Контур_2334" data-name="Контур 2334" d="M484.537,158.12h1.536l2.473,11.508H487.01l-.526-2.9h-2.343l-.541,2.9H482.08Zm1.732,7.46-.952-5.184-.967,5.184Z" transform="translate(-460.933 -137.565)"/>
      <path id="Контур_2335" data-name="Контур 2335" d="M515.3,158.12h1.605v4.972h2.956V158.12h1.605v11.508h-1.605v-5.384h-2.956v5.384H515.3Z" transform="translate(-484.111 -137.565)"/>
      <path id="Контур_2336" data-name="Контур 2336" d="M549.71,158.12h4.462v1.194h-2.857v3.809h2.315v1.137h-2.315v4.22H554.2v1.152H549.71Z" transform="translate(-508.12 -137.565)"/>
      <path id="Контур_2337" data-name="Контур 2337" d="M576.014,159.314h-2.1V158.12h5.725v1.194h-2.016v10.314h-1.605Z" transform="translate(-525.005 -137.565)"/>
      <path id="Контур_2338" data-name="Контур 2338" d="M604.1,158.12h1.536l2.473,11.508H606.57l-.526-2.9H603.7l-.541,2.9h-1.52Zm1.735,7.46-.952-5.184-.967,5.184Z" transform="translate(-544.353 -137.565)"/>
      <path id="Контур_2339" data-name="Контур 2339" d="M413.084,236.751a3.09,3.09,0,0,1-.716-2.179v-.384h1.505a3.791,3.791,0,0,0,.015.4,2.464,2.464,0,0,0,.305,1.242,1.32,1.32,0,0,0,2.031-.094,3.5,3.5,0,0,0,.278-1.578,2.472,2.472,0,0,0-.426-1.536A1.937,1.937,0,0,0,414.6,232a4.4,4.4,0,0,0-.441-.015v-1.221a3.04,3.04,0,0,0,.411-.015,2.08,2.08,0,0,0,1.5-.547,2.108,2.108,0,0,0,.432-1.442,2.161,2.161,0,0,0-.326-1.279,1.226,1.226,0,0,0-1.067-.453,1.256,1.256,0,0,0-1.067.447,2.359,2.359,0,0,0-.4,1.273v.369h-1.52v-.384a2.948,2.948,0,0,1,.768-2.158,2.889,2.889,0,0,1,2.158-.78,2.938,2.938,0,0,1,2.188.795,3.424,3.424,0,0,1,.339,3.857,2.065,2.065,0,0,1-1.209.874,2.175,2.175,0,0,1,1.215.973,3.561,3.561,0,0,1,.432,1.868q0,3.369-2.841,3.367A2.7,2.7,0,0,1,413.084,236.751Z" transform="translate(-412.12 -184.78)"/>
      <path id="Контур_2340" data-name="Контур 2340" d="M444.52,226.12h4.462v1.194h-2.857v3.809h2.315v1.137h-2.315v4.22h2.884v1.152H444.52Z" transform="translate(-434.726 -185.01)"/>
      <path id="Контур_2341" data-name="Контур 2341" d="M471.755,226.12H473.2l2.158,8.866,2.158-8.866h1.448l.215,11.508h-1.263l-.085-7.744-2.016,7.744h-.91l-2-7.744-.085,7.744H471.54Z" transform="translate(-453.579 -185.01)"/>
      <path id="Контур_2342" data-name="Контур 2342" d="M507.83,236.434a1.568,1.568,0,0,0,.952-.227,2.016,2.016,0,0,0,.568-1.137,17.271,17.271,0,0,0,.354-2.826l.384-6.124h5.057v11.508H513.54V227.314h-2.074l-.269,4.93a18.371,18.371,0,0,1-.384,3.068,3.5,3.5,0,0,1-.88,1.732,2.373,2.373,0,0,1-1.732.6,3.643,3.643,0,0,1-.369-.015v-1.191Z" transform="translate(-478.899 -185.01)"/>
      <path id="Контур_2343" data-name="Контур 2343" d="M546.112,232.449a2.618,2.618,0,0,1-1.242-1.152,4.031,4.031,0,0,1-.447-2q0-3.183,3.609-3.183h2.331v11.508h-1.605v-4.77h-.91l-.369-.015-1.989,4.788H543.7Zm2.642-.753v-4.431h-.641a2.429,2.429,0,0,0-1.641.475,1.968,1.968,0,0,0-.532,1.542,2.723,2.723,0,0,0,.511,1.832,2.165,2.165,0,0,0,1.7.583Z" transform="translate(-503.927 -185.004)"/>
    </g>
  </g>
</svg>
