<svg xmlns="http://www.w3.org/2000/svg" width="11.3" height="12.109" viewBox="0 0 11.3 12.109"><path d="M1.578,1.208a.328.328,0,0,1-.465,0L.571.667A.328.328,0,0,1,.571.2L5.512-4.75.571-9.7a.328.328,0,0,1,0-.465l.541-.541a.328.328,0,0,1,.465,0L7.3-4.982a.328.328,0,0,1,0,.465Zm3.91,0L4.946.667a.328.328,0,0,1,0-.465L9.887-4.75,4.946-9.7a.328.328,0,0,1,0-.465l.541-.541a.328.328,0,0,1,.465,0l5.726,5.726a.328.328,0,0,1,0,.465L5.953,1.208A.328.328,0,0,1,5.488,1.208Z" transform="translate(11.775 1.305) rotate(180)" fill="#fdac53"/></svg>