<svg xmlns="http://www.w3.org/2000/svg" width="38.75" height="38.75" viewBox="0 0 38.75 38.75"><path d="M20-34.375A19.378,19.378,0,0,0,.625-15,19.374,19.374,0,0,0,20,4.375,19.374,19.374,0,0,0,39.375-15,19.378,19.378,0,0,0,20-34.375Zm0,8.594A3.281,3.281,0,0,1,23.281-22.5,3.281,3.281,0,0,1,20-19.219,3.281,3.281,0,0,1,16.719-22.5,3.281,3.281,0,0,1,20-25.781ZM24.375-5.937A.938.938,0,0,1,23.438-5H16.563a.938.938,0,0,1-.937-.937V-7.812a.938.938,0,0,1,.938-.937H17.5v-5h-.937a.938.938,0,0,1-.937-.937v-1.875a.938.938,0,0,1,.938-.937h5a.938.938,0,0,1,.938.938V-8.75h.938a.938.938,0,0,1,.938.938Z" transform="translate(-0.625 34.375)"/></svg>