<svg xmlns="http://www.w3.org/2000/svg" width="22.5" height="15" viewBox="0 0 22.5 15"><path d="M21.246-13.75a1.251,1.251,0,0,0-.711.223L16.25-10.855v-2.277A1.95,1.95,0,0,0,14.227-15H2.023A1.95,1.95,0,0,0,0-13.133V-1.867A1.95,1.95,0,0,0,2.023,0h12.2A1.95,1.95,0,0,0,16.25-1.867V-4.145l4.285,2.668a1.231,1.231,0,0,0,.711.223A1.242,1.242,0,0,0,22.5-2.484V-12.52A1.242,1.242,0,0,0,21.246-13.75ZM14.375-9.687v7.77a.255.255,0,0,1-.148.043H2.023a.229.229,0,0,1-.148-.043V-13.082a.255.255,0,0,1,.148-.043h12.2a.229.229,0,0,1,.148.043Zm6.25,6.063L16.25-6.352V-8.645l4.375-2.727Z" transform="translate(0 15)" fill="#454545"/></svg>