<svg xmlns="http://www.w3.org/2000/svg" width="568.316" height="550.295" viewBox="0 0 568.316 550.295"><g transform="translate(0.008 0.022)" opacity="0.2"><g transform="translate(-0.008 -0.023)"><g transform="translate(81.373 165.743)"><path d="M62.8,131.581c-1.07-3.289-2.125-6.578-3.2-9.866-1.008-3.118-5.181-10.6,1.024-11.821,2.125-.419,5.29.714,7.384,1.055l10.146,1.629c2.094.341,4.623-2.591,1.613-3.072-5.243-.838-10.5-1.924-15.777-2.513-2.823-.326-5.926-.326-8.47,1.132-2.637,1.52-3.49,3.987-2.9,6.934,1.21,5.973,3.816,11.945,5.678,17.732.636,1.924,5.119.683,4.5-1.21Z" transform="translate(-52.445 -106.817)" fill="#fff"/></g><g transform="translate(51.86 107.82)"><path d="M52.656,69.682c-14.613,5.833-18.864,21.346-19.174,35.773C33.233,117.09,33,135.536,49.1,135.567c13.093.016,9.277-18.011,5.554-25.659a28.543,28.543,0,0,1-3.165-8.858c-.14-.915-1.179-6.872-.2-7.6,2.2-1.613,6.64,5.678,8.16,7.741,4.235,5.755,8.61,10.658,15.994,11.635,2.342.31,4.514-3.072,1.5-3.475-9.168-1.21-12.286-9.9-17.747-15.917-1.986-2.187-5.2-5.864-8.5-5.6-7.4.589-4.158,14.986-2.591,19.236,2.234,6.081,8.517,14.257,5.026,21.145-3.785,7.462-11.588,1.117-13.5-3.584-1.427-3.506-1.4-7.462-1.52-11.17-.527-15.032.295-34.393,16.6-40.893,2.839-1.132.341-3.847-2.063-2.885Z" transform="translate(-33.421 -69.479)" fill="#fff"/></g><g transform="translate(239.731 30.961)"><path d="M156.363,21.928q5.492,5.794,11,11.573c2.73,2.87,9.261,7,4.7,10.161-3.18,2.2-7.633,3.041-6.826,8.284,1.21,7.85,10.673,2.529,3.615,12.488-5.166,7.291-10.735,12.985-14.288,21.377-.5,1.195,3.894.714,4.468-.636a64.514,64.514,0,0,1,11.014-17.266c3.118-3.646,5.771-6.857,6.236-11.821.062-.745-.776-.791-1.334-.822-6.981-.4-5.243-7.027-1.226-9.773.776-.527,2.094-.171,2.932-.683,1.613-.977,2.917-1.07,3.211-3.211.357-2.591-4.933-6.236-6.3-7.664q-6.492-6.841-13-13.667c-.977-1.039-5.228.59-4.2,1.66Z" transform="translate(-154.525 -19.935)" fill="#fff"/></g><g transform="translate(255.271 75.49)"><path d="M164.554,50.145q8.261,11.565,16.522,23.115c.729,1.024,4.763-.838,4.5-1.21q-8.261-11.565-16.522-23.115c-.729-1.008-4.763.853-4.5,1.21Z" transform="translate(-164.542 -48.639)" fill="#fff"/></g><g transform="translate(411.406 117.36)"><path d="M267.068,79.043c6.128-.574,10.347,0,14.551,4.9,2.094,2.451,4.018,4.623,7.074,5.9,4.142,1.722,9.587,1.226,12.876-2.079,3.149-3.149,3.273-9.339-1.257-11.4-3.2-1.458-8.067.357-8,4.142.031,2.234,4.561,1.458,4.545-.4.791.574,1.567,1.148,2.358,1.706q-5.841,8.121-10.316,3.444a16.77,16.77,0,0,1-3.134-3.242c-1.629-1.986-2.777-3.584-5.1-4.778-4-2.063-8.781-1.691-13.109-1.272-2.451.248-3.568,3.366-.481,3.087Z" transform="translate(-265.189 -75.629)" fill="#fff"/></g><g transform="translate(383.565 128.401)"><path d="M251.428,103.6c6.19-6.981,17.049-21.145,27.784-18.631,1.024.248,4.918-1.427,3.708-1.722-14.458-3.4-27.117,11.2-35.556,20.71-.884.993,3.335.45,4.064-.357Z" transform="translate(-247.242 -82.746)" fill="#fff"/></g><g transform="translate(398.169 124.081)"><path d="M269.957,82.457c3.258,2.389,8.656,5.29,11.076,8.687,2.715,3.816-3.025,6.64-5.911,9.308-6.314,5.817-12.3,11.976-18.042,18.368-1.784,1.986,2.56,2.048,3.63.853a276.935,276.935,0,0,1,27.21-26.419c.326-.279.7-.946.264-1.334q-7.1-6.167-14.676-11.712c-1.257-.915-5.383.915-3.553,2.249Z" transform="translate(-256.656 -79.961)" fill="#fff"/></g><g transform="translate(372.175 69.919)"><path d="M240.117,94.926c6.143,9.261,18.585,5.662,26.217.512,9.261-6.252,15.637-11.325,27.707-9.8,9.2,1.148,18.135,4.3,27.5,4.049,13.884-.372,25.876-7.927,36.115-16.708,4.266-3.661,10.72-8.082,13.419-13.078a7.415,7.415,0,0,0,.76-6.035c-.2-.822-1.582-2.637-1.427-3.335.946-4.561,5.337,2.141,6.283,3.258,2.792,3.335,7.012,7.664,8.936,11.65.59.776,1.195,1.551,1.784,2.327-1.117,1.691-2.218,3.366-3.335,5.057,0,0-5.306-.093-5.383-.093a53.38,53.38,0,0,0-19.205,4.607c-13.621,5.926-24.837,16.491-34.843,27.226-6.391,6.841-10.983,11.309-19.9,14.877-6.965,2.777-12.457,7.152-17.763,12.4-7.679,7.586-18.166,20.664-5.228,28.855,6.174,3.909,19.236,4.607,20.353,13.76.5,4.111-3.692,6.112-3.351,10.146.279,3.227,2.761,7.214,4.158,9.975,2.467,4.9,5.678,9.106,8.517,13.76,1.039,1.706,2.823,4.158,3.087,6.221.729,5.662-2.591,6.609-4.638,10.13-2.079,3.568-2.172,8.424,2.56,9.572,1.8.434,5.321-2.218,2.637-2.87-6.516-1.6,2.746-9.82,3.77-13.078,1.365-4.359-1.024-8.331-3.289-11.9-3.351-5.274-6.872-10.161-9.525-15.87-2.172-4.7-2.513-5.445-.76-11.17.574-1.862,1.35-1.939,1.5-3.956.527-6.934-7.09-11.387-12.535-13.481-6.05-2.342-14.567-4.328-14.257-12.69.233-6.547,6.422-11.992,10.7-16.227,5.492-5.43,10.533-9.06,17.794-11.759a33.864,33.864,0,0,0,11.387-6.547c7.8-6.95,14.117-15.389,22.122-22.215,9.044-7.726,19.609-14.5,31.585-16.242,8.9-1.288,15.2,2.42,19.826-6.888a1.088,1.088,0,0,0-.062-1.163c-5.011-6.531-9.7-14.908-15.9-20.322-2.436-2.125-6.484-4-9.587-1.924a4.993,4.993,0,0,0-2.28,3.8c-.419,4.266,3.4,6.081.341,10.921-1.97,3.134-5.942,5.817-8.687,8.3a99.911,99.911,0,0,1-12.457,9.82c-9.525,6.159-19.438,8.889-30.763,7.167-8.3-1.272-16.522-3.94-24.992-3.816a31.387,31.387,0,0,0-17,5.259c-7.446,4.825-20.121,17.1-27.707,5.631-1.1-1.613-5.414.031-4.189,1.893Z" transform="translate(-239.9 -45.048)" fill="#fff"/></g><g transform="translate(435.195 284.54)"><path d="M306.565,186.18c4.1,2.73,8.625,6.3,6.655,11.9-1.1,3.118-4.158,5.538-6.221,8-4.437,5.274-4.142,8.656-4.763,15.2-.636,6.686-7.881,9.2-7.679,16.242.14,4.856,1.831,8.967.357,13.869a18.258,18.258,0,0,1-12.674,12.581c-2.746.776-1.986,3.708.776,2.916,7.648-2.172,13.915-7.508,16.335-15.249,1.4-4.421.512-7.291.248-11.635-.295-4.809,1.117-8.02,4.2-11.542a11.741,11.741,0,0,0,2.234-3.289c2.4-5.771-.745-10.828,3.506-16.46,2.265-2.994,5.352-5.43,7.2-8.749,3.987-7.152-.745-12.349-6.686-16.3-1.567-1.039-5.554,1.148-3.49,2.513Z" transform="translate(-280.523 -183.395)" fill="#fff"/></g><g transform="translate(477.126 298.783)"><path d="M315.057,193.435a19.887,19.887,0,0,0-7.446,7.508c-.419.729,1.582.512,1.815.481.807-.14,2.187-.45,2.622-1.257a17.316,17.316,0,0,1,6.453-6.547c.791-.45.5-.946-.279-1.024a5.58,5.58,0,0,0-3.165.838Z" transform="translate(-307.553 -192.577)" fill="#fff"/></g><g transform="translate(464.657 347.794)"><path d="M303.215,228.1c.776-.527,1.536-1.055,2.311-1.582.7-.481,1.226-1.489.31-2.048a3.239,3.239,0,0,0-3.211.341c-.776.527-1.536,1.055-2.311,1.582-.7.481-1.226,1.489-.31,2.048a3.273,3.273,0,0,0,3.211-.341Z" transform="translate(-299.515 -224.169)" fill="#fff"/></g><g transform="translate(531.325 263.378)"><path d="M342.707,172.246c1.272,1.831,2.544,3.646,3.816,5.476,1.055,1.5,5.368-.124,4.142-1.893-1.272-1.831-2.544-3.646-3.816-5.476-1.055-1.52-5.368.124-4.142,1.893Z" transform="translate(-342.49 -169.754)" fill="#fff"/></g><g transform="translate(541.071 266.596)"><path d="M354.121,174.034c3.041,3.739,6,7.539,8.811,11.449,2.234,3.1,9.339,10.906,8.16,14.893.652-.481,1.288-.946,1.939-1.427-2.56.838-4.825.357-5.942,3.273a.626.626,0,0,0,.171.605c3.987,3.925,4.918,6.934.574,10.394-.915.729-1.986.559-2.715,1.846-.729,1.3.109,2.529.264,3.832.605,5.461.714,5.973-5.585,6.314-3.413,1.846-5.383,1.427-5.926-1.288a4.792,4.792,0,0,1-.186-4.871c.465-1.629-4.049-.993-4.5.558-2.42,8.408,6.221,12.8,13.388,10.332,3.227-1.1,6.748-3.63,7.772-7.043.714-2.358-1.319-4.437-.946-6.221.419-2.032,2.436-1.737,3.956-2.808,2.746-1.939,3.289-4.871,1.986-7.912-.527-1.257-3.584-4.53-3.723-4.2.14-.326,2.591-.512,3.118-.962,2.668-2.3.326-5.212-1.148-7.508a225.81,225.81,0,0,0-15.312-21.02c-.977-1.226-5.29.372-4.158,1.768Z" transform="translate(-348.772 -171.828)" fill="#fff"/></g><g transform="translate(488.775 240.753)"><path d="M355.223,158.319c-4.685,8.532-5.29,17.716-6.035,27.241-.869,11.185-3.165,21.3-8.563,31.182-.31.574,1.055.527,1.241.512,7.167-.76,13.031-3.568,17.235-9.572-1.489.326-2.979.667-4.468.993,1.319,21.331-18.631,32.314-36.859,36.068-.124.031-3.1.807-2.668,1.427,6.283,9,16.6,11.092,26.621,7.865-.993-.031-2-.078-2.994-.109-.807,5-1.489,11.976,4.344,14.241,2.653,1.039,6.407.186,8.61-1.52,3.568-2.746,3.847-7.446,3.211-11.526-.853-5.43-2.606-10.394,1.164-15.141,2.4-3.041,5.848-5.088,8.563-7.834,10.332-10.471,14.241-25.581,13.171-39.978a83.857,83.857,0,0,0-6.826-26.4c-2.234-5.228-4.809-10.332-11.045-10.6-.977-.047-5.1,1.737-2.917,1.831,10.363.45,14.412,23.022,15.653,30.949,1.862,11.976.574,24.449-5.274,35.2a45.083,45.083,0,0,1-11.061,13.078c-3.087,2.606-6.112,4.949-7.027,9.091-1.07,4.856,1.551,9.308,1.458,14.117-.047,2.591-1.567,7.772-5.569,5.926-3.847-1.753-2.482-9.432-2.032-12.224.171-1.086-2.575-.248-2.994-.109-8.067,2.591-16.056-1.582-20.57-8.051-.884.481-1.784.962-2.668,1.427,19.764-4.064,43.67-15,42.2-38.938-.078-1.148-4.08.45-4.468.993a9.655,9.655,0,0,1-8.408,5.275c.372-.745.745-1.489,1.117-2.249.341-2.249,2.048-4.747,2.792-6.981a69.105,69.105,0,0,0,2.948-13.745c1.334-11.4.853-22.913,6.547-33.26.341-.558-3.785-.326-4.421.822Z" transform="translate(-315.062 -155.169)" fill="#fff"/></g><g transform="translate(218.345 366.287)"><path d="M377.1,237.765a5.434,5.434,0,0,1,.047,5.119l4.049-1.3a17.638,17.638,0,0,0-17.545,3.77,13.009,13.009,0,0,0-4.406,9.06c-.171,2.777.977,5.492,1.039,8.238.14,6.159-2.932,9.959-8.253,12.969-6.686,3.8-19.624,5.243-23.022,13.528-1.862,4.545,1.737,8.718,3.894,12.519q5.608,9.913,11.232,19.826c.683,1.195,4,.031,4.468-.962,5.4-11.464,13.31-23.208,25.535-28.156a29.332,29.332,0,0,1,9.572-2.094c3.8-.186,7.214-1.024,3.4,2.28-3.878,3.351-8.1,6.19-11.868,9.7a55.964,55.964,0,0,0-16.661,27.5c-3.521,13.31-5.492,25.845-17.251,34.734-7.757,5.864-19.361,7.446-25.923,14.877-3.3,3.739-3.32,8.253-4.685,12.814a22.978,22.978,0,0,1-14.365,14.52c-4.654,1.644-11.247,2.637-9.463-3.444.931-3.149,3.444-4.1,5.942-5.88,1.706-1.226,4.949-3.165,5.243-5.569,1.055-8.362-11.294-3.646-14.226-1.908l3.553.047c1.4-8.036,11.7-9.029,18.585-8.175.962.124,3.615-.326,3.677-1.613.295-5.306,3.63-19.081-.853-23.006-1.6-1.4-3.475-1.474-5.523-1.474-.993,0-1.97.341-2.948.326-4.825-.078-9.23-4.08-3.878-7.834-1.319.062-2.653.14-3.971.2-2.854,7.85,9.556,8.517,13.559,4.313,1.179-1.226,1.195-3.056,1.8-4.592,1.334-3.382,1.675-1.536,3.335-3.863,4.452-6.252,4.359-17.158,5.724-24.6a.343.343,0,0,0-.124-.434c-6.888-3.723-14.086-2.9-21.284-.357-11.247,3.971-21.827,10.565-32.392,16.025-8.269,4.266-14.738,7.307-19.454,15.513a191.242,191.242,0,0,0-15.7,36.332L232,385.4c-6.593-2.668-2.56-14.629-7.353-19.609-1.8-1.862-4.266-2.42-5.181-5.15-.683-2.048-.124-4.328-.558-6.407s-.962-3.94-3.351-4.421c-3.832-.776-7.059,3.723-8.067,6.779-2.358,7.105,1.427,17.732-5.662,22.6,1.334-.14,2.668-.295,3.987-.434a25.7,25.7,0,0,1-3.428-8.315c-.807-4.158.155-3.4-2.684-6.066-3.335-3.134-9.665-5.2-13.915-6.733-8.78-3.149-19.329-5.662-28.3-1.815-6.453,2.777-12.085,10.316-7.664,17.189,2.792,4.328,8.594,6.965,12.736,9.727q9.541,6.353,19.081,12.721l1.3-1.443a21.751,21.751,0,0,1-21.579-2.327c-2.916-2.017-4.514-4.344-8.1-4.39a6.413,6.413,0,0,0-4.468,1.412,5.767,5.767,0,0,0-1.551,1.8c-.264.388-1.924,5.461-2.017,3.584-.047-.993-4.561-.2-4.5,1.21.14,3.165,3.615,3.428,6.143,2.343,4.158-1.784,2.839-8.8,7.6-6.516,5.538,2.653,8.672,6.221,15.3,6.826a29.782,29.782,0,0,0,14.784-2.637c.248-.109,2.063-.931,1.3-1.443q-10.727-7.144-21.47-14.3c-6.236-4.158-14.691-8.687-10.409-17.421,2.094-4.282,9.541-5.926,13.822-6.05a28.7,28.7,0,0,1,7.043,1.257,73.324,73.324,0,0,1,10.8,3.568c4.266,1.8,10.068,3.816,11.914,8.5,1.443,3.661,1.629,7.027,3.739,10.549.667,1.117,3.227.093,3.987-.434,9.851-6.748.76-22.448,10.347-28.575-1.195.264-2.389.512-3.568.776,4.08,1.831,1.675,8.284,3.351,11.557,1.862,3.6,6,4.049,7.369,8.346,1.722,5.383-.962,13.016,5.523,15.653.946.388,3.692-.171,4.049-1.3A204.775,204.775,0,0,1,246.7,352.16c3.475-6.438,7.074-10.27,13.683-13.7q8.68-4.491,17.359-8.951c5.6-2.885,11.123-6.112,16.971-8.47,6.066-2.436,16.32-5.43,16.894,3.708.186,3.1-1.3,7.1-1.862,10.177-.76,4.158-.884,6.717-4.282,10.053-.745.729-1.381.155-2.063,1.412-.372.683-.434,2.234-.853,2.746-3.118,3.708-7.772,4.359-5.662-1.443.5-1.381-3.6-.062-3.971.2-5.073,3.553-8.5,9.727-.093,10.782,4.9.605,11.325-3.118,13.264,3.956,1.412,5.181-.667,13.388-.962,18.755,1.226-.543,2.451-1.07,3.677-1.613-9.354-1.164-23.828-1.086-25.907,10.921-.233,1.334,3.072.341,3.553.047q11.449-2.187,4.359,5.259c-.512.357-1.008.714-1.52,1.07-1.458,1.195-3.242,1.939-4.654,3.227-1.691,1.551-2.854,2.932-2.87,5.274-.016,5.848,6.919,4.654,10.937,3.894a33.01,33.01,0,0,0,15.637-7.648,22.916,22.916,0,0,0,6.174-8.47c2.234-5.662,1.412-10.859,6.36-15.374,6.826-6.236,17.39-7.974,24.806-13.822a39.848,39.848,0,0,0,13.512-19.966c3.087-9.82,3.987-20.26,9.339-29.273,6.221-10.471,16.351-17.871,26-24.945.714-.527.574-1.055-.31-1.179-23.5-3.366-40.629,12.4-50.108,32.5,1.489-.326,2.979-.636,4.468-.962-4.654-8.222-9.8-16.32-14.039-24.775-5.709-11.387,10.332-14.427,17.825-17.949,4.592-2.156,9.432-5.243,11.48-10.1,1.427-3.428.636-6.547.264-10.13-.776-7.353,2.467-17.654,13.372-13.869.977.341,3.677-.14,4.049-1.3a7.229,7.229,0,0,0,0-5.6c-.341-1.257-4.794.062-4.421,1.163Z" transform="translate(-140.74 -236.09)" fill="#fff"/></g><g transform="translate(382.633 430.43)"><path d="M247.911,286.175c3.537-.062,7.446.171,10.161,2.73,2.994,2.823,2.234,5.724,2.063,9.4-.171,3.8.047,8.206,3.475,10.627,4.313,3.041,11.263,1.226,12.628-4.018a52.011,52.011,0,0,0,1.148-13.791c-.109-3.289-.931-5.6-3.94-7.027-.543-.264-1.288-.031-1.815-.295-2.591-1.257-2.374-2.327-3.785-3.739a7.513,7.513,0,0,0-2.529-2.032c-2.948-1.288-6.733-.217-9.587.729-2.606.869-2.094,3.118.59,2.218,3.227-1.07,4.5-1.536,7.726,1.644,1.6,1.567-.155,1.35,1.753,2.73,2.017,1.458,4.84.45,6.267,2.9,1.567,2.684.683,6.578.434,9.479-.217,2.56.543,12.922-5.678,8.656-5.259-3.6.047-12.767-3.2-17.654-3.041-4.576-8.982-5.181-13.977-5.1-1.644.047-4.763,2.606-1.738,2.544Z" transform="translate(-246.642 -277.437)" fill="#fff"/></g><g transform="translate(391.975 464.411)"><path d="M257.126,326.782c1.039-5.988,4.623-9.215,10.565-10.828,2.994-.807,6.128-.76,9.106-1.753,3.754-1.257,8.1-3.723,8.734-8.036,1.334-9.013-12.69-8.8-13.124-1.117-.062.946,4.406.326,4.5-1.21q2.932-3.584,3.94.558a5.883,5.883,0,0,1-.155,3.956c-1.3,3.351-5.228,4.483-8.455,5.011-3.242.543-6.5.822-9.587,2.048a15.5,15.5,0,0,0-9.975,12.038c-.248,1.4,4.235.62,4.452-.667Z" transform="translate(-252.664 -299.342)" fill="#fff"/></g><g transform="translate(204.668 476.013)"><path d="M131.934,308.852q.721,4.98,1.458,9.944c.295,1.97.14,4.949,2.56,5.507,2.5.574,4.654-1.334,6.485-2.684,3.1-2.28,6.221-4.576,9.323-6.857,2.451-1.8-1.319-2.653-2.839-1.536-2.079,1.52-4.142,3.056-6.221,4.576-1.195.884-3.894,3.739-5.383,3.816.605.155,1.195.295,1.8.45-1.52-1.226-1.334-5.057-1.6-6.795-.372-2.529-.745-5.073-1.117-7.6-.217-1.691-4.732-.636-4.468,1.179Z" transform="translate(-131.923 -306.821)" fill="#fff"/></g><g transform="translate(181.051 470.701)"><path d="M118.438,305.915c2.42-.341,2.637,4.375,2.761,5.74a10.879,10.879,0,0,0,1.319,4.918,8.082,8.082,0,0,0,6.9,4.018c4.685.016,10.239-4.592,7.214-9.448-.76-1.226-5.135.2-4.173,1.737,1.4,2.234-.124,6.205-3.1,4.685-2.467-1.257-3.366-3.987-3.6-6.547-.4-4.2-1.613-8.253-6.671-7.539-2.156.31-3.77,2.885-.652,2.436Z" transform="translate(-116.699 -303.397)" fill="#fff"/></g><g transform="translate(169.869 503.94)"><path d="M160.109,333.568c1.955-9.618-10.022-10.828-15.684-5.942-4.607,3.987-4.576,10.456-8.563,14.707-9.4,10.021-26.481-.4-20.648-13.264,1.07-2.374-3.459-2.451-4.313-.574a14.824,14.824,0,0,0,12.24,21.191c5.212.419,11.48-.838,15.575-4.282a13.577,13.577,0,0,0,3.956-5.771c.652-1.66,1.024-3.444,1.753-5.088.636-1.164,1.272-2.327,1.908-3.506q10.169-6,9.215,2.823c-.465,2.28,4.142,1.768,4.561-.295Z" transform="translate(-109.491 -324.823)" fill="#fff"/></g><g transform="translate(180.908 506.355)"><path d="M116.612,328.273c.9,9.417,15.73,7.71,16.553-.9.171-1.753-4.344-.9-4.483.589-.2,2.172-1.629,5.011-4.22,3.987a5.677,5.677,0,0,1-3.351-4.887c-.14-1.412-4.669-.45-4.5,1.21Z" transform="translate(-116.607 -326.38)" fill="#fff"/></g><g transform="translate(0 300.268)"><path d="M216.833,419.525c.9,2.591,2.56,6.345,1.675,9.075-1.706,5.306-8.1,1.769-11.014-1.055-.807-.776-4.111,0-4.328,1.163a30.742,30.742,0,0,1-1.831,7.09c-2.017,4.313-2.265,2.327-5.678.543a11.849,11.849,0,0,0-8.036-1.427c-2.575.574-3.785,1.908-5.43,3.863-.729.853-1.257,2.094-1.691,2.063-1.66-.078-2.948-5.212-3.459-6.407-2.684-6.422-6.965-7-13.372-5.259-1.66.45-3.444,1.443-5.166,1.613-7.09.714-5.786-4.173-3.211-7.85,2.575-3.692,6.019-6.547,8.144-10.58.45-.853-1.66-.714-1.862-.683-4.716.543-19.423,6.64-17.359-2.715,1.148-5.2,8.61-9.385,11.6-13.559.419-.574-.047-.931-.652-.993-3.956-.419-7.679,1.815-11.014-.543-2.963-.652-3.366-2.017-1.179-4.111.76-1.008,1.536-1.986,2.342-2.963a18.567,18.567,0,0,0,2.761-4.933c.109-.31-.14-.543-.419-.636-2.032-.636-3.335-.745-5.088-1.939-1.815-1.226-2.854-4.189-4.545-5.337-2.544-1.722-8.238-1.567-11.34-1.613-6.733-.093-12.55,1.722-15.994,7.788,1.489-.233,2.979-.45,4.468-.683,1.536-3.087,2.994-6.547,5.631-8.858,5.2-4.545,14.784-3.444,20.943-1.5a44.039,44.039,0,0,1,14.815,8.284c3.956,3.32,6.128,7.819,9.727,11.325,3.708,3.615,8.967,2.979,12.985.171,6.329-4.406,6.857-16.522,3.366-22.851-1.66-2.994-4.39-3.94-7.555-4.747-5.2-1.334-8.7-2.342-12.628-6.081-2.885-2.746-5.15-5.135-9.184-5.848-5.43-.962-11.433,1.644-16.615-1.365-3.366-1.955-4.483-6.562-8.144-8.439-2.653-1.365-5.678-1.3-8.563-1.35-2.948-.047-7.726.326-9.385-2.9-1.241-2.389.465-5.755,1.055-8.082,1.07-4.266,1.288-9-1.257-12.845a11.323,11.323,0,0,0-8.269-4.918c-.574-.062-3.041.5-3.537.186-2.311-1.443-1.35-7.012-1.163-8.967.341-3.475,1.272-7.508-.481-10.751-1.862-3.444-11.992-6.159-8.346-11.325.248-.341.279-.791-.248-.915-6.391-1.489-14.179-2.823-20,1.241-7.183,5-4.654,14.691-7.57,21.874C55.852,312.778,42.092,318.72,29.868,319.5c-8.424.527-13.093-1.582-17.98-8.331-1.288-1.784-2.684-3.32-4.064-5.026-.279-.341-6.717-10.658-1.613-10.146.993.093,3.646-.295,3.661-1.66a14.189,14.189,0,0,1,4-10.5c-1.4.295-2.777.59-4.173.884,6.267,6.779,3.4,18.383,12.69,22.9a18.7,18.7,0,0,0,15.622-.2c7.555-3.521,9.649-11.557,7.477-19.267-3.289-11.619-14.4-18.275-19.841-28.622-5.492-10.44-4.732-22.711-.853-33.555a75.064,75.064,0,0,1,8.9-16.553c2.156-3.211,4.623-6.934,2.839-10.859-2.3-5.042-9.153-5.74-13.884-4.468-8.067,2.2-11.6,10.1-14.365,17.235-.434,1.117,3.956.621,4.468-.683,1.427-3.708,2.839-8.113,5.631-11.03,3.646-3.816,11.743-5.709,13.962.884,2.032,6.081-6.562,14.21-9.215,19.578-5.817,11.759-8.439,26.2-2.994,38.6,5.569,12.659,20.974,20.664,21.7,35.448.388,7.943-5.445,16.134-15.343,11.712-3.165-1.412-4.949-3.754-6.252-6.95C18.015,293.4,18.124,287.662,13.9,283.1c-.853-.915-3.49.109-4.173.884a16.734,16.734,0,0,0-4.375,11.573c1.226-.558,2.451-1.117,3.661-1.66-3.6-.357-7.353.853-8.672,4.623-.993,2.823.248,5.352,1.893,7.664a113.71,113.71,0,0,0,7.927,10.27c8.858,9.82,27.908,5.011,38.209.031,5.74-2.761,11.045-6.7,14.567-12.085A26.712,26.712,0,0,0,66.9,293.123c.931-6.624,1.877-18.554,13.791-14.334,4.049,1.427,1.443,2.358,3.4,5.6,1.939,3.242,6.3,3.522,8.191,6.9,3.615,6.453-2.032,14.117,2.342,20.648.357.527,1.893.217,2.342.078,9.944-2.9,11.573,9.525,10.161,15.854-.76,3.413-2.885,7.09-.078,10.208,1.784,1.986,4.716,2.141,7.183,2.265,5.755.326,10.27-.031,14.334,4.732,2.482,2.9,4.3,5.616,8.144,6.609,6.1,1.567,12.333-2.374,18,1.769,3.242,2.374,5.29,5.911,9.013,7.741,4.576,2.249,10.487,1.086,13.791,5.445,2.808,3.708,3.894,14.257,1.132,18.368-6.252,9.308-11.806-3.506-15.389-7.043-6.236-6.174-14.784-10.89-23.518-12.147-13.931-2-22.913,1.846-29.072,14.257-.512,1.039,3.8.481,4.468-.683,1.334-2.358,10.037-4.778,12.814-4.7a14.414,14.414,0,0,1,4.251.558c1.768.7,3.615,2.7,4.809,4.111a15.528,15.528,0,0,0,2.994,3.1c2.358,1.644,2.87.264,2.094,2.994-.372,1.288-1.955,2.513-2.7,3.63-4.235,6.283-.946,9.7,6.019,8.439,2.87-.512,5.647-2.606,4.049.7-.977,2.048-4.033,3.863-5.585,5.523-2.141,2.265-5.15,5.414-4.344,8.889,2,8.61,16.584,1.567,21.3,1.024-.621-.233-1.241-.465-1.862-.683-2,3.785-17.67,17.716-6.236,20.2,4.98,1.07,9.665-2.513,14.644-1.8,4.84.7,4.5,3.32,6.283,7.152.869,1.877,1.908,3.816,3.94,4.654a6.038,6.038,0,0,0,5.492-.7c1.474-.946,1.924-2.979,3.227-3.909,3.6-2.591,6.5,1.567,10.037,2.839,7.757,2.792,10.316-8.331,11.294-13.45l-4.328,1.163c3.661,3.537,10.239,6.174,15.374,4.189,6.516-2.529,4.483-9.835,2.668-15.048-.481-1.256-4.949.062-4.53,1.257Z" transform="translate(0.008 -193.533)" fill="#fff"/></g><g transform="translate(8.365 87.003)"><path d="M9.908,285.469c1.226-5.274,2.4-10.782,5.259-15.467,4.871-7.989,16.4-11.712,21.331-1.691,3.878,7.865.962,16.816,1.629,25.131.776,9.587,10.3,20.664,20.508,13.962,5.817-3.816,5.181-11.961,5.337-18.026.248-9.556-.093-19.143-3.615-28.156-3.227-8.238-8.687-15.591-10.239-24.449-1.1-6.221-.233-12.349,4.251-17.08,2.606-2.746,6.019-4.638,8.129-7.865,3.351-5.166,2.823-11.464,3.3-17.328.341-4.142,1.008-7.943,4.033-11.03,2.389-2.436,4.794-3.568,5.2-7.276,1.148-10.471-13.45-21.625-19.748-28.606C47.077,138.5,41.85,128.522,40.469,116.22a91.957,91.957,0,0,1,1.086-26.962c2.529-13.2,10.906-20.245,24.154-21.936,6.965-.884,14.226-1.3,20.555,2.156,4.282,2.342,7.85,5.988,12.038,8.532,6.05,3.661,12.954,5.88,20.059,4.53,5.476-1.055,11.371-4.266,13.4-9.789a11.678,11.678,0,0,0-6.841-15.2l-.372,1.815c9.991-6.19,11.976,13.248,10.6,18.213-1.846,6.64-8.594,7.012-13.528,10.27-2.808,1.862-4.7,4.1-5.042,7.57-.217,2.2.558,4.375,1.024,6.485a32.288,32.288,0,0,1,.869,4q-4.258,11.17-12.333,1.582c-1.35.465-2.684.915-4.033,1.381,4.189,2.653,10.673,1.07,12.659-3.77,3.553-8.7-7.958-13.326-14.443-13.4-7.865-.093-9.944,5.352-9.029,12.674,1.148,9.323,7.446,17.483,16.956,19.19,7.865,1.412,14.024-2.42,19.965-7.059,11.433-8.9,22.587-18.057,33.245-27.862,4.049-3.723,6.019-4.344,11.48-4.406a20.214,20.214,0,0,0,3.909-.248c3.816-.884,5.786-3.568,8.563-6.066,6.345-5.678,10.006-2.079,16.77-3.925,6.05-1.66,10.782-12.535,19.066-6.438,1.3.962,5.445-.838,4.173-1.784a14.266,14.266,0,0,0-11.5-2.792c-6.717,1.257-10.409,8.269-17.08,8.579-4.887.233-8.315-.31-12.426,2.963-3.32,2.653-5.026,6.453-9.742,7.09-3.273.45-5.74-.776-8.982.434-5.911,2.2-10.409,8.424-15,12.457-7.26,6.376-14.924,12.286-22.463,18.321-5.957,4.763-11.449,10.285-20.105,7.415-5.274-1.753-8.936-6.081-10.89-11.17-1.427-3.723-3.165-10.627.016-13.543,2.249-2.048,6.066-.884,8.594.527.993.807,1.986,1.6,2.979,2.4q4.584,5.189-3.149,8.238c-.993-.621-3.832.031-4.033,1.381-1.427,9.339,12.411,7.353,17.328,4.514,3.1-1.8,4.22-4.359,4-7.834-.2-3.366-2.2-6.531-1.675-9.959.76-4.871,4.732-6.267,8.734-8.129,8.61-4.018,11.775-10.968,9.711-20.524-1.862-8.672-10.409-12.814-18-8.129-.527.326-1.443,1.443-.372,1.815,4.5,1.582,6.764,5.538,6.485,10.192-.605,9.9-11.712,11.666-19.531,8.936-8.61-3.01-14.443-11.014-23.053-13.745-11.076-3.521-29.041-.76-38.318,6.485-11.573,9.029-11.93,27.133-11.371,40.521.481,11.681,3.785,22.479,10.921,31.8,6.547,8.548,15.467,15.374,21.129,24.619,2.792,4.561,4.142,7.819.233,12.876-.745.977-2.249,1.753-3.072,2.761a15.07,15.07,0,0,0-2.839,6.174c-2.141,8.625.853,17.282-6.221,24.247-4.84,4.763-9.246,7.71-10.347,14.893-1.288,8.408,2.42,16.3,6.066,23.611,4.158,8.331,7.245,16.32,7.927,25.69a122.369,122.369,0,0,1-.109,16.863c-.109,1.6.155,5.321-.915,6.64l-8,3.4a12.7,12.7,0,0,1-4.251-3.2c-9.37-10.89,5.6-39.574-14.939-43.2-16.01-2.823-22.882,14.443-25.752,26.7-.4,1.629,4.126.962,4.5-.621Z" transform="translate(-5.384 -56.06)" fill="#fff"/></g><g transform="translate(30.502 343.295)"><path d="M22.022,222.093c-6.95,8.051,2.839,15.125,10.782,15.094,1.334,0,2.9-.512,4.2-.372a5.851,5.851,0,0,1,5.243,6.05c-.248,3.677-3.909,7.229-4.716,10.89a6.5,6.5,0,0,0,.5,4.98c2.5,5.166,6.422,7.539,3.956,14.1-.884,2.342,3.615,2.172,4.266.419,1.551-4.127,1.675-8.16-.7-12.007-3.289-5.352-3.227-8.47-.791-14.008,1.132-2.575,3.258-5.755,3.211-8.641-.047-2.979-1.908-4.406-4.794-5a20.935,20.935,0,0,0-5.74.124c-3.553.264-5.29.481-8.625-1.1-3.366-1.582-6.857-4.964-3.087-9.339,1.846-2.125-2.467-2.653-3.708-1.194Z" transform="translate(-19.653 -221.269)" fill="#fff"/></g><g transform="translate(60.473 341.98)"><path d="M41.047,221.3a4.236,4.236,0,0,0-1.35,6.035c1.6,2.544,5.026,3.01,7.741,3.335a5.836,5.836,0,0,0,3.149-.574c.295-.155,1.6-1.039.558-1.163-2.28-.279-5.026-.558-6.64-2.42-1.07-1.241-1.722-4.08-.016-5.1.76-.45.527-.9-.264-.977a5.82,5.82,0,0,0-3.18.869Z" transform="translate(-38.973 -220.422)" fill="#fff"/></g><g transform="translate(64.203 355.297)"><path d="M44.779,230.067c-2.358,1.815-4.483,5.771-2.792,8.7,1.675,2.932,7.415-.745,7.927,2.063.155.853,4.685-.155,4.5-1.21-.5-2.746-4.282-1.66-6.081-1.443-2.249.264-2.529-2-2.3-3.77a7.087,7.087,0,0,1,2.808-4.732c.822-.636-.729-.7-1.039-.667a5.692,5.692,0,0,0-3.025,1.055Z" transform="translate(-41.378 -229.006)" fill="#fff"/></g><g transform="translate(72.793 370.204)"><path d="M49.777,238.98a4.163,4.163,0,0,0-2.172,6.252c1.784,2.808,6,2.513,8.843,2.11.853-.124,2.374-.574,2.529-1.613.155-1.024-1.272-1.21-1.986-1.117-1.582.217-3.739.605-4.933-.76a2.859,2.859,0,0,1-.652-1.815,7.247,7.247,0,0,0,.124-.807.746.746,0,0,0,.124-.248c-.388.2-.4.217-.047.078.714-.264,1.753-1.148,1.163-1.955-.621-.838-2.218-.4-2.994-.124Z" transform="translate(-46.914 -238.615)" fill="#fff"/></g><g transform="translate(225.635)"><path d="M149.893,96.272c10.471-13.559,22.417-30.049,17.189-48.2a25.472,25.472,0,0,0-4.794-9.168c-2.9-3.553-7.183-6.112-8.936-10.549-3.366-8.532,1.753-18.724.869-27.676-1.039.621-2.079,1.241-3.134,1.862,4.964-.155,5.911,14.179,7.741,17.576,3.242,5.988,8.3,9.618,14.443,12.224,3.925,1.66,8.16,2.963,11.573,5.631,3.568,2.792,6.066,6.779,8.672,10.425,4.623,6.469,16.475,17.933,14.551,26.31,1.35-.45,2.7-.915,4.033-1.365A166.352,166.352,0,0,1,189.079,60.9c-.993-.636-3.3.062-3.878,1.039-3.785,6.345,2.73,13.248,6.035,18.507,4.173,6.671,8.036,16.18,15.125,20.214,6.329,3.6,15.156,6.453,22.479,6.267,4.918-.124,8.191-1.6,13.295-.636,5.817,1.1,4.483,1.536,7.245,5.445a19.71,19.71,0,0,0,3.32,3.785c6.717,5.848,16.056,9.587,23.766,13.931,6.19,3.49,13.326,9.23,20.834,8.951,5.461-.186,9.8-3.661,13.729-7.09,7.912-6.9,15.653-14.024,23.471-21.036,1.924-1.722-2.513-1.691-3.6-.714q-8.54,7.656-17.08,15.3c-2.668,2.389-5.274,4.9-8.036,7.167-4.825,3.956-11.154,3.366-16.382.527-7.2-3.909-14.288-8.051-21.439-12.069-3.646-2.048-7.989-3.925-11.123-6.733-2.451-2.187-3.413-5.088-5.383-7.555-2.529-3.165-5.073-4.3-9.215-4.064-2.28.124-4.406.931-6.64,1.319-7.09,1.241-12.767.109-19.36-2.265-7.679-2.777-11.061-6.826-15.281-13.543-3.459-5.523-15.56-19.066-11.65-25.659-1.288.341-2.591.7-3.878,1.039a167.248,167.248,0,0,0,23.022,12.442c1.07.481,3.723.016,4.033-1.365,1.893-8.222-7.152-16.677-11.511-22.789-6.081-8.548-10.921-15.653-20.8-19.795-10.332-4.328-17.406-9.541-19.686-21.082C159.542,5.644,158.8-.2,152.778-.018c-.977.031-3.258.481-3.134,1.862.807,8.238-2.932,16.3-1.66,24.464,1.288,8.238,9.417,11.635,12.907,18.74,9.013,18.352-4.483,37.123-15.281,51.116-1.1,1.6,3.4,1.257,4.282.109Z" transform="translate(-145.439 0.023)" fill="#fff"/></g><g transform="translate(259.044 2.421)"><path d="M180.867,3.387c-6.779-3.646-12.6,2.653-13.5,9.06-.527,3.739-.962,8.5,1.706,11.557,2.265,2.606,5.957,3.4,9.23,3.785,3.1.372,6.593.621,9.137-1.52,2.963-2.482,3.6-7.508,3.8-11.076.465-8.067-4.887-15.343-13.481-13.31-2.761.652-2.032,3.351.729,2.7,6.7-1.582,8.532,7.4,8.191,11.821a25.031,25.031,0,0,1-1.1,5.74c-.884,2.653-2.56,2.839-5.026,2.761-4.111-.124-8.16-1.939-8.874-6.345-.434-2.715.093-15.808,5.678-12.8,1.5.853,5.554-1.272,3.506-2.374Z" transform="translate(-166.975 -1.538)" fill="#fff"/></g><g transform="translate(79.571 114.447)"><path d="M413.2,217a141.577,141.577,0,0,1-2,68.491c-6.407,22.541-18.9,41.808-33.322,60.005-14.257,17.98-29.289,35.882-47.92,49.518-19.066,13.962-41.56,22.991-64.8,27.055C220.7,429.824,174.9,418.81,136.135,396.5c-32.686-18.818-54.327-49.239-68.2-83.864-7-17.483-11.945-36.487-12.224-55.382-.264-17.933-.45-37.93,4.778-55.227,3.273-10.859,10.208-20.834,15.994-30.5A283.864,283.864,0,0,1,96.918,141.34a179.715,179.715,0,0,1,47.5-42.211c39.295-23.859,88.41-30.3,131.707-13.59,20.028,7.726,39.869,20.136,56.965,33,18.15,13.652,28.575,31.2,36.766,52.078,8.051,20.508,16.428,41.5,17.607,63.744,1.21,22.7-4.375,45.268-13.062,66.1-8.61,20.648-20.028,41.389-34.548,58.531-15.312,18.073-36.068,29.491-58.873,35.293A175.1,175.1,0,0,1,156.752,380c-33.136-17.3-63.216-47.812-70.306-85.478-8.1-43.065-1.986-94.088,27.008-128.6,15.281-18.181,35.355-31.507,56.825-41.343,23.13-10.611,48.479-17.127,74.014-14.35,37.48,4.064,76.868,22.991,95.3,57.213,18.088,33.6,25.349,75.379,15.761,112.517-10.425,40.412-40.6,81.227-83.663,89.154-38.054,7-81.941-2.839-113.417-25.4-14.893-10.673-28.343-25.054-37.371-41.048-11.169-19.81-13.264-39.791-10.161-61.96,5.957-42.4,42.273-81.506,84.64-89.542,23.627-4.483,47.967.109,69.716,9.789,1.257.558,5.383-1.3,3.6-2.094-40.148-17.871-85.788-15.544-120.569,12.566-34.424,27.815-54.11,75.534-38.116,118.567,14.195,38.193,49.828,64.985,87.882,76.325,37.4,11.154,82.127,11.821,114.286-13.016,34.47-26.621,53.784-71.035,51.938-114.27-1.66-38.907-16.553-81.956-48.975-105.366-35.991-25.985-82-32.795-124.121-19.392-42.708,13.59-84.485,41.2-100.882,84.562-16.382,43.344-18.2,99.564,10.13,138.378,23.115,31.693,60.657,54.032,98.9,61.649,40.443,8.067,89.418,3.056,123.966-20.772,19.221-13.248,32.314-32.888,43.484-53.009,11.806-21.269,21.253-44.352,24.418-68.63,3.258-25.023-2.156-48.339-10.844-71.718-8.175-22-16.273-44.43-34.067-60.626-8.284-7.539-17.716-13.667-27.21-19.547-10.347-6.407-20.726-12.954-31.818-18a148.15,148.15,0,0,0-68.32-12.628c-43.406,2.125-84.206,22.6-114.115,53.769C87.9,145.157,75.292,165.9,63.378,186.81,52.41,206.077,51.929,227.191,51.34,248.831c-.558,20.586,3.087,40.3,10.084,59.695,6.485,17.949,15.56,36.332,27.334,51.426,12.69,16.258,26.977,29.134,44.957,39.341a213.686,213.686,0,0,0,66.66,24.6c43.949,8.082,91.187.31,128.48-24.93,19.795-13.4,35.618-31.569,50.5-50.061,15.622-19.407,29.46-39.776,36.332-63.992a143.092,143.092,0,0,0,2.017-69.1c-.31-1.474-4.825-.357-4.5,1.179Z" transform="translate(-51.284 -73.751)" fill="#fff"/></g><g transform="translate(158.008 198.517)"><path d="M237.236,130.436c19.717,12.488,37.6,27.489,48.789,48.324A120.341,120.341,0,0,1,300.173,238.9c-.605,17.918-5.476,36.037-15.42,51.085-12.985,19.655-33.524,29.832-56.763,31.538-22.308,1.644-48.572-1.35-68.4-12.147-18.678-10.161-36.146-27.614-46.028-46.509-10.363-19.81-8.563-44.337-1.97-65.171,6.795-21.455,21.548-38.768,42.941-46.664,23.828-8.8,50.263-4.716,72.928,5.569,9.789,4.452,19.128,9.991,25.829,18.6,7.664,9.82,12.705,22.246,15.5,34.315,4.949,21.362,1.815,44.538-11.681,62.27-15.327,20.152-40.583,26-64.55,21.051-22.153-4.561-44.213-16.087-53.6-37.744-8.424-19.454-10.037-46.338,2.575-64.225,14.955-21.176,43.313-26.016,65.978-14.924,8.936,4.375,17.421,10.673,23.146,18.911,6.686,9.6,7.834,22.013,7.493,33.415s-2.994,23.5-11.107,31.926a41.964,41.964,0,0,1-37.464,11.961c-24.449-4.825-39-29.723-32.826-53.567,1.893-7.307,5.817-15.467,12.349-19.686,7.307-4.732,19.066-5.616,27.4-3.925a29.522,29.522,0,0,1,23.13,24.139c2.187,14.272-8.036,32.128-24.014,31.6a17.261,17.261,0,0,1-13.652-26.791q3.421-7.051,10.456-.372c-.527,1.644,3.987,1.07,4.5-.527,2.947-9.153-9.417-7.865-14.039-4.607-8.625,6.081-10.968,18.383-4.669,26.977,13.279,18.088,39.605,3.3,44.88-13.915a30.657,30.657,0,0,0-8.532-31.29c-8.9-8.284-21.176-9.618-32.764-7.85-11.573,1.769-20.462,6.593-25.954,17.3a46.83,46.83,0,0,0-2.979,35.044c6.81,21.781,30.142,34.362,52.171,29.878,10.332-2.094,20.307-7.291,27.257-15.327,8-9.277,10.409-22.106,10.378-34.051-.031-12.131-1.551-24.247-9.23-34.036-7.431-9.494-18.492-16.739-29.847-20.586-22.261-7.555-48.106-1.784-63.449,16.475-16.971,20.214-15.265,54.25-2.141,76.123,13.372,22.277,42.134,33.183,67.141,34.052,23.875.838,46.71-9.711,59.54-30.235,15.343-24.557,13.171-55.506.621-80.731-12.659-25.411-39.745-37.79-66.924-41.746-24.371-3.553-50.759,1.939-69.5,18.616C108.9,180.9,101.589,209.01,101.852,234.932c.295,28.73,20.865,53.117,43.034,69.437,21.827,16.072,50.62,20.881,77.287,20,24.045-.807,46.99-9.137,62.394-28.265,32.64-40.552,23.7-105.381-10.7-141.837-9.7-10.285-21.176-18.6-33.074-26.14-1.319-.776-5.445,1.133-3.553,2.312Z" transform="translate(-101.846 -127.944)" fill="#fff"/></g></g></g></svg>