<svg xmlns="http://www.w3.org/2000/svg" width="422.342" height="408.95" viewBox="0 0 422.342 408.95"><g transform="translate(0.008 0.022)" opacity="0.2"><g transform="translate(-0.008 -0.023)"><g transform="translate(60.472 123.171)"><path d="M60.14,125.22c-.8-2.444-1.579-4.888-2.375-7.332-.749-2.317-3.851-7.874.761-8.785,1.579-.311,3.931.53,5.488.784l7.54,1.211c1.556.254,3.436-1.925,1.2-2.283-3.9-.623-7.8-1.43-11.725-1.868a10.272,10.272,0,0,0-6.295.842,4.459,4.459,0,0,0-2.156,5.153c.9,4.439,2.836,8.877,4.219,13.177.473,1.43,3.8.507,3.343-.9Z" transform="translate(-52.445 -106.817)" fill="#fff"/></g><g transform="translate(38.539 80.126)"><path d="M47.715,69.63C36.855,73.965,33.7,85.493,33.466,96.215c-.184,8.646-.357,22.354,11.609,22.377,9.73.012,6.894-13.385,4.127-19.068a21.212,21.212,0,0,1-2.352-6.583c-.1-.68-.876-5.107-.15-5.649,1.637-1.2,4.934,4.219,6.064,5.753,3.147,4.277,6.4,7.92,11.886,8.646,1.741.231,3.355-2.283,1.118-2.582-6.813-.9-9.131-7.355-13.189-11.828-1.476-1.626-3.862-4.358-6.318-4.162-5.5.438-3.09,11.137-1.925,14.3,1.66,4.519,6.329,10.595,3.735,15.713-2.813,5.545-8.612.83-10.03-2.663-1.061-2.605-1.038-5.545-1.13-8.3-.392-11.171.219-25.559,12.336-30.389,2.11-.842.254-2.859-1.533-2.144Z" transform="translate(-33.421 -69.479)" fill="#fff"/></g><g transform="translate(178.155 23.009)"><path d="M155.891,21.416q4.081,4.306,8.174,8.6c2.029,2.133,6.883,5.2,3.493,7.551-2.363,1.637-5.672,2.26-5.073,6.156.9,5.833,7.932,1.879,2.686,9.281-3.839,5.418-7.978,9.649-10.618,15.886-.369.888,2.894.53,3.32-.473a47.943,47.943,0,0,1,8.185-12.831c2.317-2.709,4.289-5.1,4.634-8.785.046-.553-.576-.588-.991-.611-5.188-.3-3.9-5.222-.911-7.263.576-.392,1.556-.127,2.179-.507,1.2-.726,2.167-.8,2.386-2.386.265-1.925-3.666-4.634-4.681-5.7q-4.825-5.084-9.661-10.157c-.726-.772-3.885.438-3.124,1.234Z" transform="translate(-154.525 -19.935)" fill="#fff"/></g><g transform="translate(189.703 56.1)"><path d="M164.551,49.758q6.139,8.595,12.278,17.178c.542.761,3.539-.623,3.343-.9q-6.139-8.595-12.278-17.178c-.542-.749-3.539.634-3.343.9Z" transform="translate(-164.542 -48.639)" fill="#fff"/></g><g transform="translate(305.735 87.216)"><path d="M266.585,78.166c4.554-.427,7.69,0,10.814,3.643,1.556,1.822,2.986,3.436,5.257,4.381,3.078,1.28,7.125.911,9.569-1.545,2.34-2.34,2.432-6.94-.934-8.474-2.375-1.084-5.995.265-5.949,3.078.023,1.66,3.389,1.084,3.378-.3.588.427,1.164.853,1.752,1.268q-4.341,6.035-7.667,2.559a12.461,12.461,0,0,1-2.329-2.409,11.627,11.627,0,0,0-3.793-3.551c-2.974-1.533-6.525-1.257-9.742-.945-1.821.184-2.652,2.5-.357,2.294Z" transform="translate(-265.189 -75.629)" fill="#fff"/></g><g transform="translate(285.045 95.421)"><path d="M250.352,98.245c4.6-5.188,12.67-15.713,20.648-13.846.761.184,3.655-1.061,2.755-1.28-10.745-2.525-20.152,8.324-26.424,15.391-.657.738,2.479.334,3.02-.265Z" transform="translate(-247.242 -82.746)" fill="#fff"/></g><g transform="translate(295.898 92.21)"><path d="M266.541,81.816c2.421,1.775,6.433,3.931,8.231,6.456,2.018,2.836-2.248,4.934-4.392,6.917-4.692,4.323-9.142,8.9-13.408,13.65-1.326,1.476,1.9,1.522,2.7.634A205.806,205.806,0,0,1,279.891,89.84c.242-.208.519-.7.2-.991q-5.274-4.583-10.906-8.7c-.934-.68-4,.68-2.64,1.672Z" transform="translate(-256.656 -79.961)" fill="#fff"/></g><g transform="translate(276.581 51.96)"><path d="M240.061,82.115c4.565,6.883,13.811,4.208,19.483.38,6.883-4.646,11.621-8.416,20.59-7.286,6.836.853,13.477,3.193,20.44,3.009,10.318-.277,19.23-5.891,26.839-12.416,3.17-2.721,7.966-6.006,9.972-9.719a5.511,5.511,0,0,0,.565-4.485c-.15-.611-1.176-1.96-1.061-2.479.7-3.389,3.966,1.591,4.669,2.421,2.075,2.479,5.211,5.7,6.641,8.658.438.576.888,1.153,1.326,1.729-.83,1.257-1.649,2.5-2.479,3.758l-4-.069a39.669,39.669,0,0,0-14.272,3.424c-10.122,4.4-18.457,12.255-25.893,20.233-4.75,5.084-8.162,8.4-14.791,11.056-5.176,2.064-9.257,5.315-13.2,9.211-5.707,5.637-13.5,15.356-3.885,21.443,4.588,2.905,14.3,3.424,15.126,10.226.369,3.055-2.744,4.542-2.49,7.54.207,2.4,2.052,5.361,3.09,7.413,1.833,3.643,4.219,6.767,6.329,10.226.772,1.268,2.1,3.09,2.294,4.623.542,4.208-1.925,4.911-3.447,7.528-1.545,2.652-1.614,6.26,1.9,7.113,1.337.323,3.954-1.649,1.96-2.133-4.842-1.187,2.041-7.3,2.8-9.719,1.015-3.24-.761-6.191-2.444-8.842-2.49-3.92-5.107-7.551-7.079-11.794-1.614-3.493-1.868-4.047-.565-8.3.427-1.383,1-1.441,1.118-2.94.392-5.153-5.269-8.462-9.315-10.018-4.5-1.741-10.825-3.216-10.595-9.43.173-4.865,4.773-8.912,7.955-12.059a35.094,35.094,0,0,1,13.223-8.739,25.166,25.166,0,0,0,8.462-4.865c5.8-5.165,10.491-11.436,16.44-16.509,6.721-5.741,14.572-10.779,23.472-12.07,6.617-.957,11.3,1.8,14.734-5.119a.809.809,0,0,0-.046-.865c-3.724-4.854-7.205-11.079-11.817-15.1-1.81-1.579-4.819-2.974-7.125-1.43a3.71,3.71,0,0,0-1.695,2.825c-.311,3.17,2.525,4.519.254,8.116-1.464,2.329-4.415,4.323-6.456,6.168a74.247,74.247,0,0,1-9.257,7.3c-7.079,4.577-14.445,6.606-22.861,5.326-6.168-.945-12.278-2.928-18.573-2.836a23.325,23.325,0,0,0-12.635,3.908c-5.534,3.585-14.953,12.7-20.59,4.185-.818-1.2-4.023.023-3.113,1.407Z" transform="translate(-239.9 -45.048)" fill="#fff"/></g><g transform="translate(323.413 211.455)"><path d="M299.876,185.464c3.044,2.029,6.41,4.681,4.946,8.842-.819,2.317-3.09,4.116-4.623,5.949-3.3,3.92-3.078,6.433-3.539,11.3-.473,4.969-5.857,6.836-5.707,12.07.1,3.608,1.36,6.664.265,10.307a13.569,13.569,0,0,1-9.419,9.35c-2.041.576-1.476,2.755.576,2.167a17.259,17.259,0,0,0,12.14-11.333c1.038-3.286.38-5.418.184-8.646a10.834,10.834,0,0,1,3.124-8.577,8.725,8.725,0,0,0,1.66-2.444c1.787-4.289-.553-8.047,2.605-12.232,1.683-2.225,3.977-4.035,5.349-6.5,2.963-5.315-.553-9.177-4.969-12.117-1.164-.772-4.127.853-2.594,1.868Z" transform="translate(-280.523 -183.395)" fill="#fff"/></g><g transform="translate(354.575 222.04)"><path d="M313.129,193.215a14.779,14.779,0,0,0-5.534,5.58c-.311.542,1.176.38,1.349.357.6-.1,1.626-.334,1.948-.934a12.868,12.868,0,0,1,4.8-4.865c.588-.334.369-.7-.208-.761a4.147,4.147,0,0,0-2.352.623Z" transform="translate(-307.553 -192.577)" fill="#fff"/></g><g transform="translate(345.309 258.462)"><path d="M302.265,227.087c.576-.392,1.141-.784,1.718-1.176.519-.357.911-1.107.231-1.522a2.407,2.407,0,0,0-2.386.254c-.576.392-1.141.784-1.718,1.176-.519.357-.911,1.107-.231,1.522a2.432,2.432,0,0,0,2.386-.254Z" transform="translate(-299.515 -224.169)" fill="#fff"/></g><g transform="translate(394.852 195.728)"><path d="M342.651,171.606c.945,1.36,1.891,2.709,2.836,4.07.784,1.118,3.989-.092,3.078-1.407-.945-1.36-1.891-2.709-2.836-4.07-.784-1.13-3.989.092-3.078,1.406Z" transform="translate(-342.49 -169.754)" fill="#fff"/></g><g transform="translate(402.095 198.12)"><path d="M352.747,173.467c2.26,2.778,4.462,5.6,6.548,8.508,1.66,2.306,6.94,8.1,6.064,11.067.484-.357.957-.7,1.441-1.061-1.9.623-3.585.265-4.415,2.433a.465.465,0,0,0,.127.45c2.963,2.917,3.655,5.153.427,7.724-.68.542-1.476.415-2.017,1.372s.081,1.879.2,2.848c.45,4.058.53,4.439-4.15,4.692-2.536,1.372-4,1.061-4.4-.957a3.561,3.561,0,0,1-.138-3.62c.346-1.211-3.009-.738-3.343.415-1.8,6.248,4.623,9.511,9.949,7.678,2.4-.819,5.015-2.7,5.776-5.234.53-1.752-.98-3.3-.7-4.623.311-1.51,1.81-1.291,2.94-2.087a4.513,4.513,0,0,0,1.476-5.88c-.392-.934-2.663-3.366-2.767-3.124.1-.242,1.925-.38,2.317-.715,1.983-1.706.242-3.874-.853-5.58a167.81,167.81,0,0,0-11.379-15.621c-.726-.911-3.931.277-3.09,1.314Z" transform="translate(-348.772 -171.828)" fill="#fff"/></g><g transform="translate(363.232 178.915)"><path d="M344.907,157.51c-3.482,6.341-3.931,13.166-4.485,20.244-.646,8.312-2.352,15.829-6.364,23.172-.231.427.784.392.922.38,5.326-.565,9.684-2.652,12.808-7.113-1.107.242-2.214.5-3.32.738.98,15.852-13.846,24.014-27.392,26.8-.092.023-2.306.6-1.983,1.061,4.669,6.687,12.336,8.243,19.783,5.845-.738-.023-1.487-.058-2.225-.081-.6,3.712-1.107,8.9,3.228,10.583a7.193,7.193,0,0,0,6.4-1.13c2.652-2.041,2.859-5.534,2.386-8.566-.634-4.035-1.937-7.724.865-11.252,1.787-2.26,4.346-3.781,6.364-5.822,7.678-7.782,10.583-19.011,9.788-29.709a62.318,62.318,0,0,0-5.073-19.622c-1.66-3.885-3.574-7.678-8.208-7.874-.726-.035-3.793,1.291-2.167,1.36,7.7.334,10.71,17.108,11.632,23,1.383,8.9.427,18.169-3.92,26.158a33.5,33.5,0,0,1-8.22,9.719c-2.294,1.937-4.542,3.678-5.222,6.756-.8,3.608,1.153,6.917,1.084,10.491-.035,1.925-1.164,5.776-4.139,4.4-2.859-1.3-1.845-7.009-1.51-9.085.127-.807-1.914-.184-2.225-.081-5.995,1.925-11.932-1.176-15.287-5.983-.657.357-1.326.715-1.983,1.061,14.687-3.02,32.453-11.148,31.358-28.937-.058-.853-3.032.334-3.32.738a7.175,7.175,0,0,1-6.249,3.92c.277-.553.553-1.107.83-1.672.254-1.672,1.522-3.528,2.075-5.188a51.353,51.353,0,0,0,2.19-10.214c.991-8.474.634-17.028,4.865-24.717.254-.415-2.813-.242-3.286.611Z" transform="translate(-315.062 -155.169)" fill="#fff"/></g><g transform="translate(162.263 272.205)"><path d="M316.39,237.335a4.038,4.038,0,0,1,.035,3.8l3.009-.968a13.108,13.108,0,0,0-13.039,2.8,9.668,9.668,0,0,0-3.274,6.733c-.127,2.064.726,4.081.772,6.122.1,4.577-2.179,7.4-6.133,9.638-4.969,2.825-14.584,3.9-17.108,10.053-1.383,3.378,1.291,6.479,2.894,9.3q4.168,7.367,8.347,14.734c.507.888,2.974.023,3.32-.715,4.012-8.52,9.892-17.247,18.976-20.924a21.8,21.8,0,0,1,7.113-1.556c2.825-.138,5.361-.761,2.525,1.695-2.882,2.49-6.018,4.6-8.819,7.205a41.589,41.589,0,0,0-12.382,20.44c-2.617,9.892-4.081,19.207-12.82,25.813-5.764,4.358-14.388,5.534-19.264,11.056-2.456,2.778-2.467,6.133-3.482,9.523a17.076,17.076,0,0,1-10.675,10.791c-3.459,1.222-8.358,1.96-7.032-2.559.692-2.34,2.559-3.044,4.415-4.369,1.268-.911,3.678-2.352,3.9-4.139.784-6.214-8.393-2.709-10.572-1.418l2.64.035c1.038-5.972,8.693-6.71,13.811-6.076.715.092,2.686-.242,2.732-1.2.219-3.943,2.7-14.18-.634-17.1-1.187-1.038-2.582-1.1-4.1-1.1-.738,0-1.464.254-2.19.242-3.585-.058-6.859-3.032-2.882-5.822-.98.046-1.971.1-2.951.15-2.121,5.834,7.1,6.329,10.076,3.2.876-.911.888-2.271,1.337-3.412.991-2.513,1.245-1.141,2.479-2.871,3.309-4.646,3.24-12.751,4.254-18.284a.255.255,0,0,0-.092-.323c-5.119-2.767-10.468-2.156-15.817-.265-8.358,2.951-16.221,7.851-24.072,11.909-6.145,3.17-10.952,5.43-14.457,11.529a142.12,142.12,0,0,0-11.667,27l3.009-.968c-4.9-1.983-1.9-10.871-5.465-14.572-1.337-1.383-3.17-1.8-3.851-3.827-.507-1.522-.092-3.216-.415-4.761s-.715-2.928-2.49-3.286c-2.848-.576-5.246,2.767-5.995,5.038-1.752,5.28,1.061,13.177-4.208,16.8.991-.1,1.983-.219,2.963-.323a19.1,19.1,0,0,1-2.548-6.179c-.6-3.09.115-2.525-1.994-4.508-2.479-2.329-7.182-3.862-10.341-5-6.525-2.34-14.365-4.208-21.028-1.349-4.8,2.064-8.981,7.667-5.7,12.774,2.075,3.216,6.387,5.176,9.465,7.228q7.09,4.721,14.18,9.453l.968-1.072a16.164,16.164,0,0,1-16.036-1.729c-2.167-1.5-3.355-3.228-6.018-3.263a4.766,4.766,0,0,0-3.32,1.049,4.286,4.286,0,0,0-1.153,1.337c-.2.288-1.43,4.058-1.5,2.663-.035-.738-3.389-.15-3.343.9.1,2.352,2.686,2.548,4.565,1.741,3.09-1.326,2.11-6.537,5.649-4.842,4.116,1.971,6.444,4.623,11.367,5.073a22.132,22.132,0,0,0,10.987-1.96c.184-.081,1.533-.692.968-1.072q-7.972-5.309-15.956-10.629c-4.634-3.09-10.918-6.456-7.736-12.947,1.556-3.182,7.09-4.4,10.272-4.5a21.329,21.329,0,0,1,5.234.934,54.487,54.487,0,0,1,8.024,2.652c3.17,1.337,7.482,2.836,8.854,6.318,1.072,2.721,1.211,5.222,2.778,7.839.5.83,2.4.069,2.963-.323,7.321-5.015.565-16.682,7.69-21.236-.888.2-1.775.38-2.652.576,3.032,1.36,1.245,6.156,2.49,8.589,1.383,2.675,4.462,3.009,5.476,6.2,1.28,4-.715,9.672,4.1,11.632.7.288,2.744-.127,3.009-.968a152.177,152.177,0,0,1,10.652-25.155,21.981,21.981,0,0,1,10.168-10.18q6.45-3.338,12.9-6.652c4.162-2.144,8.266-4.542,12.612-6.295,4.508-1.81,12.128-4.035,12.555,2.755.138,2.306-.968,5.28-1.383,7.563-.565,3.09-.657,4.992-3.182,7.47-.553.542-1.026.115-1.533,1.049-.277.507-.323,1.66-.634,2.041-2.317,2.755-5.776,3.24-4.208-1.072.369-1.026-2.675-.046-2.951.15-3.77,2.64-6.318,7.228-.069,8.012,3.643.45,8.416-2.317,9.857,2.94,1.049,3.851-.5,9.949-.715,13.938.911-.4,1.822-.8,2.732-1.2-6.952-.865-17.708-.807-19.253,8.116-.173.991,2.283.254,2.64.035q8.508-1.626,3.24,3.908c-.38.265-.749.53-1.13.8-1.084.888-2.409,1.441-3.459,2.4-1.257,1.153-2.121,2.179-2.133,3.92-.012,4.346,5.142,3.459,8.128,2.894a24.531,24.531,0,0,0,11.621-5.684,17.029,17.029,0,0,0,4.588-6.295c1.66-4.208,1.049-8.07,4.727-11.425,5.073-4.634,12.924-5.926,18.434-10.272a29.613,29.613,0,0,0,10.041-14.837c2.294-7.3,2.963-15.056,6.94-21.754,4.623-7.782,12.151-13.281,19.322-18.538.53-.392.427-.784-.231-.876-17.466-2.5-30.193,9.211-37.237,24.152,1.107-.242,2.214-.473,3.32-.715-3.459-6.11-7.286-12.128-10.433-18.411-4.243-8.462,7.678-10.722,13.246-13.339,3.412-1.6,7.009-3.9,8.531-7.505,1.061-2.548.473-4.865.2-7.528-.576-5.465,1.833-13.12,9.938-10.307.726.254,2.732-.1,3.009-.968a5.372,5.372,0,0,0,0-4.162c-.254-.934-3.562.046-3.286.865Z" transform="translate(-140.74 -236.09)" fill="#fff"/></g><g transform="translate(284.353 319.872)"><path d="M247.585,283.931c2.629-.046,5.534.127,7.551,2.029,2.225,2.1,1.66,4.254,1.533,6.986-.127,2.825.035,6.1,2.582,7.9,3.2,2.26,8.37.911,9.384-2.986a38.651,38.651,0,0,0,.853-10.249c-.081-2.444-.692-4.162-2.928-5.222-.4-.2-.957-.023-1.349-.219-1.925-.934-1.764-1.729-2.813-2.778a5.583,5.583,0,0,0-1.879-1.51c-2.19-.957-5-.161-7.125.542-1.937.646-1.556,2.317.438,1.649,2.4-.8,3.343-1.141,5.741,1.222,1.187,1.164-.115,1,1.3,2.029,1.5,1.084,3.6.334,4.658,2.156,1.164,1.994.507,4.888.323,7.044-.161,1.9.4,9.6-4.219,6.433-3.908-2.675.035-9.488-2.375-13.12-2.26-3.4-6.675-3.851-10.387-3.793-1.222.035-3.539,1.937-1.291,1.891Z" transform="translate(-246.642 -277.437)" fill="#fff"/></g><g transform="translate(291.295 345.125)"><path d="M255.98,319.734c.772-4.45,3.436-6.848,7.851-8.047,2.225-.6,4.554-.565,6.767-1.3,2.79-.934,6.018-2.767,6.491-5.972.991-6.7-9.43-6.537-9.753-.83-.046.7,3.274.242,3.343-.9q2.179-2.663,2.928.415a4.372,4.372,0,0,1-.115,2.94c-.968,2.49-3.885,3.332-6.283,3.724a34.111,34.111,0,0,0-7.125,1.522,11.516,11.516,0,0,0-7.413,8.946c-.185,1.038,3.147.461,3.309-.5Z" transform="translate(-252.664 -299.342)" fill="#fff"/></g><g transform="translate(152.098 353.748)"><path d="M131.931,308.33q.536,3.7,1.084,7.39c.219,1.464.1,3.678,1.9,4.093,1.856.427,3.459-.991,4.819-1.994,2.306-1.695,4.623-3.4,6.929-5.1,1.822-1.337-.98-1.971-2.11-1.141-1.545,1.13-3.078,2.271-4.623,3.4-.888.657-2.894,2.778-4,2.836.45.115.888.219,1.337.334-1.13-.911-.991-3.758-1.187-5.05-.277-1.879-.553-3.77-.83-5.649-.161-1.257-3.516-.473-3.32.876Z" transform="translate(-131.923 -306.821)" fill="#fff"/></g><g transform="translate(134.547 349.8)"><path d="M117.991,305.268c1.8-.254,1.96,3.251,2.052,4.266a8.085,8.085,0,0,0,.98,3.655,6.006,6.006,0,0,0,5.13,2.986c3.482.012,7.609-3.412,5.361-7.021-.565-.911-3.816.15-3.1,1.291,1.038,1.66-.092,4.611-2.306,3.482-1.833-.934-2.5-2.963-2.675-4.865-.3-3.124-1.2-6.133-4.957-5.6-1.6.231-2.8,2.144-.484,1.81Z" transform="translate(-116.699 -303.397)" fill="#fff"/></g><g transform="translate(126.237 374.501)"><path d="M147.108,331.322c1.453-7.148-7.447-8.047-11.655-4.415-3.424,2.963-3.4,7.77-6.364,10.929-6.986,7.447-19.679-.3-15.345-9.857.8-1.764-2.571-1.821-3.2-.427a11.017,11.017,0,0,0,9.1,15.748c3.874.311,8.531-.623,11.575-3.182a10.09,10.09,0,0,0,2.94-4.289c.484-1.234.761-2.559,1.3-3.781.473-.865.945-1.729,1.418-2.606q7.557-4.462,6.848,2.1c-.346,1.695,3.078,1.314,3.389-.219Z" transform="translate(-109.491 -324.823)" fill="#fff"/></g><g transform="translate(134.441 376.296)"><path d="M116.61,327.786c.669,7,11.69,5.73,12.3-.669.127-1.3-3.228-.669-3.332.438-.15,1.614-1.21,3.724-3.136,2.963a4.219,4.219,0,0,1-2.49-3.632c-.1-1.049-3.47-.334-3.343.9Z" transform="translate(-116.607 -326.38)" fill="#fff"/></g><g transform="translate(0 223.143)"><path d="M161.136,361.478c.669,1.925,1.9,4.715,1.245,6.744-1.268,3.943-6.018,1.314-8.185-.784-.6-.576-3.055,0-3.216.865a22.845,22.845,0,0,1-1.36,5.269c-1.5,3.2-1.683,1.729-4.219.4a8.805,8.805,0,0,0-5.972-1.061c-1.914.427-2.813,1.418-4.035,2.871-.542.634-.934,1.556-1.257,1.533-1.234-.058-2.19-3.874-2.571-4.761-1.994-4.773-5.176-5.2-9.938-3.908a25.493,25.493,0,0,1-3.839,1.2c-5.269.53-4.3-3.1-2.386-5.833s4.473-4.865,6.052-7.863c.334-.634-1.234-.53-1.383-.507-3.5.4-14.434,4.934-12.9-2.017.853-3.862,6.4-6.975,8.623-10.076.311-.427-.035-.692-.484-.738-2.94-.311-5.707,1.349-8.185-.4-2.2-.484-2.5-1.5-.876-3.055.565-.749,1.141-1.476,1.741-2.2a13.8,13.8,0,0,0,2.052-3.666c.081-.231-.1-.4-.311-.473a11.909,11.909,0,0,1-3.781-1.441c-1.349-.911-2.121-3.113-3.378-3.966-1.891-1.28-6.122-1.164-8.427-1.2-5-.069-9.327,1.28-11.886,5.787,1.107-.173,2.213-.334,3.32-.507,1.141-2.294,2.225-4.865,4.185-6.583,3.862-3.378,10.987-2.559,15.564-1.118a32.727,32.727,0,0,1,11.01,6.156c2.94,2.467,4.554,5.81,7.228,8.416,2.755,2.686,6.664,2.214,9.649.127,4.7-3.274,5.1-12.278,2.5-16.982-1.234-2.225-3.263-2.928-5.614-3.528-3.862-.991-6.468-1.741-9.384-4.519-2.144-2.041-3.827-3.816-6.825-4.346-4.035-.715-8.5,1.222-12.347-1.015-2.5-1.453-3.332-4.877-6.053-6.272-1.971-1.015-4.219-.968-6.364-1-2.19-.035-5.741.242-6.975-2.156-.922-1.775.346-4.277.784-6.006.8-3.17.957-6.687-.934-9.546a8.415,8.415,0,0,0-6.145-3.655c-.427-.046-2.26.369-2.629.138-1.718-1.072-1-5.211-.865-6.664.254-2.582.945-5.58-.357-7.989-1.383-2.559-8.912-4.577-6.2-8.416.184-.254.208-.588-.184-.68-4.75-1.107-10.537-2.1-14.86.922-5.338,3.712-3.459,10.918-5.626,16.255-3.632,8.923-13.857,13.339-22.942,13.915-6.26.392-9.73-1.176-13.362-6.191-.957-1.326-1.994-2.467-3.02-3.735-.208-.254-4.992-7.92-1.2-7.54.738.069,2.709-.219,2.721-1.234a10.545,10.545,0,0,1,2.974-7.8l-3.1.657c4.658,5.038,2.525,13.661,9.43,17.016a13.893,13.893,0,0,0,11.609-.15c5.614-2.617,7.171-8.589,5.557-14.318-2.444-8.635-10.7-13.581-14.745-21.27-4.081-7.759-3.516-16.878-.634-24.936a55.784,55.784,0,0,1,6.617-12.3c1.6-2.386,3.436-5.153,2.11-8.07-1.706-3.747-6.8-4.266-10.318-3.32-5.995,1.637-8.623,7.505-10.675,12.808-.323.83,2.94.461,3.32-.507,1.061-2.755,2.11-6.029,4.185-8.2,2.709-2.836,8.727-4.242,10.376.657,1.51,4.519-4.877,10.56-6.848,14.549-4.323,8.739-6.272,19.472-2.225,28.683,4.139,9.407,15.587,15.356,16.128,26.343.288,5.9-4.047,11.99-11.4,8.7a8.759,8.759,0,0,1-4.646-5.165c-1.66-4.07-1.579-8.335-4.715-11.725-.634-.68-2.594.081-3.1.657a12.436,12.436,0,0,0-3.251,8.6c.911-.415,1.822-.83,2.721-1.234-2.675-.265-5.465.634-6.444,3.436-.738,2.1.184,3.977,1.406,5.7a84.5,84.5,0,0,0,5.891,7.632c6.583,7.3,20.74,3.724,28.395.023a26.319,26.319,0,0,0,10.825-8.981,19.851,19.851,0,0,0,2.94-8.381c.692-4.923,1.395-13.788,10.249-10.652,3.009,1.061,1.072,1.752,2.525,4.162s4.681,2.617,6.087,5.13c2.686,4.8-1.51,10.491,1.741,15.345.265.392,1.406.161,1.741.058,7.39-2.156,8.6,7.079,7.551,11.782-.565,2.536-2.144,5.269-.058,7.586,1.326,1.476,3.5,1.591,5.338,1.683,4.277.242,7.632-.023,10.652,3.516,1.845,2.156,3.193,4.173,6.053,4.911,4.531,1.164,9.165-1.764,13.373,1.314,2.409,1.764,3.931,4.392,6.7,5.753,3.4,1.672,7.793.807,10.249,4.047,2.087,2.755,2.894,10.595.842,13.65-4.646,6.917-8.773-2.605-11.436-5.234a32.236,32.236,0,0,0-17.477-9.027c-10.353-1.487-17.028,1.372-21.6,10.595-.38.772,2.825.357,3.32-.507.991-1.752,7.459-3.551,9.523-3.493a10.711,10.711,0,0,1,3.159.415,10.959,10.959,0,0,1,3.574,3.055,11.54,11.54,0,0,0,2.225,2.306c1.752,1.222,2.133.2,1.556,2.225-.277.957-1.453,1.868-2.006,2.7-3.147,4.669-.7,7.205,4.473,6.272,2.133-.38,4.2-1.937,3.009.519-.726,1.522-3,2.871-4.15,4.1-1.591,1.683-3.827,4.023-3.228,6.606,1.487,6.4,12.324,1.164,15.829.761-.461-.173-.922-.346-1.383-.507-1.487,2.813-13.131,13.166-4.634,15.01,3.7.8,7.182-1.868,10.883-1.337,3.6.519,3.343,2.467,4.669,5.315.646,1.395,1.418,2.836,2.928,3.459a4.487,4.487,0,0,0,4.081-.519c1.1-.7,1.43-2.214,2.4-2.905,2.675-1.925,4.83,1.164,7.459,2.11,5.764,2.075,7.667-6.191,8.393-10l-3.216.865c2.721,2.629,7.609,4.588,11.425,3.113,4.842-1.879,3.332-7.309,1.983-11.183-.357-.934-3.678.046-3.366.934Z" transform="translate(0.008 -193.533)" fill="#fff"/></g><g transform="translate(6.216 64.656)"><path d="M8.746,226.545c.911-3.92,1.787-8.012,3.908-11.494,3.62-5.937,12.186-8.7,15.852-1.257,2.882,5.845.715,12.5,1.21,18.676.576,7.125,7.655,15.356,15.241,10.376,4.323-2.836,3.851-8.889,3.966-13.4.184-7.1-.069-14.226-2.686-20.924-2.4-6.122-6.456-11.586-7.609-18.169-.819-4.623-.173-9.177,3.159-12.693,1.937-2.041,4.473-3.447,6.041-5.845,2.49-3.839,2.1-8.52,2.456-12.877.254-3.078.749-5.9,3-8.2,1.775-1.81,3.562-2.652,3.862-5.407.853-7.782-10-16.071-14.676-21.259-6.1-6.756-9.984-14.169-11.01-23.311a68.337,68.337,0,0,1,.807-20.037c1.879-9.811,8.1-15.045,17.95-16.3,5.176-.657,10.572-.968,15.275,1.6,3.182,1.741,5.833,4.45,8.946,6.341,4.5,2.721,9.626,4.369,14.906,3.366,4.07-.784,8.45-3.17,9.961-7.275a8.678,8.678,0,0,0-5.084-11.3l-.277,1.349c7.424-4.6,8.9,9.845,7.874,13.535-1.372,4.934-6.387,5.211-10.053,7.632-2.087,1.383-3.493,3.044-3.747,5.626a15.6,15.6,0,0,0,.761,4.819,23.993,23.993,0,0,1,.646,2.974q-3.165,8.3-9.165,1.176c-1,.346-1.994.68-3,1.026,3.113,1.971,7.932.8,9.407-2.8,2.64-6.468-5.914-9.9-10.733-9.961-5.845-.069-7.39,3.977-6.71,9.419.853,6.929,5.534,12.993,12.6,14.261,5.845,1.049,10.422-1.8,14.837-5.246,8.5-6.617,16.786-13.419,24.706-20.705,3.009-2.767,4.473-3.228,8.531-3.274a15.022,15.022,0,0,0,2.905-.184c2.836-.657,4.3-2.652,6.364-4.508,4.715-4.219,7.436-1.545,12.462-2.917,4.5-1.234,8.012-9.315,14.169-4.784.968.715,4.047-.623,3.1-1.326a10.6,10.6,0,0,0-8.543-2.075c-4.992.934-7.736,6.145-12.693,6.375-3.632.173-6.179-.231-9.234,2.2-2.467,1.971-3.735,4.8-7.24,5.269-2.433.334-4.266-.576-6.675.323-4.392,1.637-7.736,6.26-11.148,9.257-5.4,4.738-11.091,9.131-16.693,13.615-4.427,3.539-8.508,7.643-14.941,5.511a13.467,13.467,0,0,1-8.093-8.3c-1.061-2.767-2.352-7.9.012-10.064,1.672-1.522,4.508-.657,6.387.392.738.6,1.476,1.187,2.213,1.787q3.407,3.856-2.34,6.122c-.738-.461-2.848.023-3,1.026-1.061,6.94,9.223,5.465,12.877,3.355a5.674,5.674,0,0,0,2.974-5.822c-.15-2.5-1.637-4.854-1.245-7.4.565-3.62,3.516-4.658,6.491-6.041,6.4-2.986,8.75-8.151,7.217-15.252-1.383-6.444-7.736-9.523-13.373-6.041-.392.242-1.072,1.072-.277,1.349A7.156,7.156,0,0,1,96.4,66.436c-.45,7.355-8.7,8.669-14.514,6.64-6.4-2.237-10.733-8.185-17.131-10.214C56.52,60.245,43.17,62.3,36.276,67.681c-8.6,6.71-8.865,20.163-8.45,30.113.357,8.681,2.813,16.7,8.116,23.634,4.865,6.352,11.494,11.425,15.7,18.3,2.075,3.389,3.078,5.81.173,9.569-.553.726-1.672,1.3-2.283,2.052a11.2,11.2,0,0,0-2.11,4.588c-1.591,6.41.634,12.843-4.623,18.019-3.6,3.539-6.871,5.73-7.69,11.067-.957,6.249,1.8,12.117,4.508,17.547,3.09,6.191,5.384,12.128,5.891,19.091a90.939,90.939,0,0,1-.081,12.532c-.081,1.187.115,3.954-.68,4.934L38.8,241.647a9.434,9.434,0,0,1-3.159-2.375c-6.963-8.093,4.162-29.409-11.1-32.107-11.9-2.1-17,10.733-19.137,19.841-.3,1.21,3.067.715,3.343-.461Z" transform="translate(-5.384 -56.06)" fill="#fff"/></g><g transform="translate(22.667 255.118)"><path d="M21.413,221.881c-5.165,5.983,2.11,11.24,8.012,11.217.991,0,2.156-.38,3.124-.277a4.348,4.348,0,0,1,3.9,4.5c-.184,2.732-2.905,5.372-3.5,8.093a4.832,4.832,0,0,0,.369,3.7c1.856,3.839,4.773,5.6,2.94,10.479-.657,1.741,2.686,1.614,3.17.311,1.153-3.067,1.245-6.064-.519-8.923-2.444-3.977-2.4-6.295-.588-10.41.842-1.914,2.421-4.277,2.386-6.421-.035-2.214-1.418-3.274-3.562-3.712a15.559,15.559,0,0,0-4.266.092c-2.64.2-3.931.357-6.41-.819-2.5-1.176-5.1-3.689-2.294-6.94,1.372-1.579-1.833-1.971-2.755-.888Z" transform="translate(-19.653 -221.269)" fill="#fff"/></g><g transform="translate(44.94 254.142)"><path d="M40.514,221.077a3.148,3.148,0,0,0-1,4.485c1.187,1.891,3.735,2.237,5.753,2.479a4.337,4.337,0,0,0,2.34-.427c.219-.115,1.187-.772.415-.865-1.695-.208-3.735-.415-4.934-1.8-.8-.922-1.28-3.032-.012-3.793.565-.334.392-.669-.2-.726a4.325,4.325,0,0,0-2.363.646Z" transform="translate(-38.973 -220.422)" fill="#fff"/></g><g transform="translate(47.712 264.038)"><path d="M43.905,229.795c-1.752,1.349-3.332,4.289-2.075,6.468s5.511-.553,5.891,1.533c.115.634,3.482-.115,3.343-.9-.369-2.041-3.182-1.234-4.519-1.072-1.672.2-1.879-1.487-1.706-2.8a5.267,5.267,0,0,1,2.087-3.516c.611-.473-.542-.519-.772-.5a4.23,4.23,0,0,0-2.248.784Z" transform="translate(-41.378 -229.006)" fill="#fff"/></g><g transform="translate(54.096 275.116)"><path d="M49.042,238.886a3.093,3.093,0,0,0-1.614,4.646C48.754,245.619,51.89,245.4,54,245.1c.634-.092,1.764-.427,1.879-1.2s-.945-.9-1.476-.83c-1.176.161-2.778.45-3.666-.565a2.125,2.125,0,0,1-.484-1.349,5.386,5.386,0,0,0,.092-.6.555.555,0,0,0,.092-.184c-.288.15-.3.161-.035.058.53-.2,1.3-.853.865-1.453-.461-.623-1.649-.3-2.225-.092Z" transform="translate(-46.914 -238.615)" fill="#fff"/></g><g transform="translate(167.68)"><path d="M148.749,71.538c7.782-10.076,16.659-22.331,12.774-35.819a18.93,18.93,0,0,0-3.562-6.813c-2.156-2.64-5.338-4.542-6.64-7.839-2.5-6.341,1.3-13.915.646-20.567-.772.461-1.545.922-2.329,1.383,3.689-.115,4.392,10.537,5.753,13.062,2.409,4.45,6.168,7.148,10.733,9.085,2.917,1.234,6.064,2.2,8.6,4.185,2.652,2.075,4.508,5.038,6.444,7.747,3.436,4.807,12.243,13.327,10.814,19.552,1-.334,2.006-.68,3-1.015a123.623,123.623,0,0,1-17.108-9.246,2.628,2.628,0,0,0-2.882.772c-2.813,4.715,2.029,9.845,4.485,13.754,3.1,4.957,5.972,12.024,11.24,15.022,4.7,2.675,11.263,4.8,16.7,4.658,3.655-.092,6.087-1.187,9.88-.473,4.323.819,3.332,1.141,5.384,4.047a14.648,14.648,0,0,0,2.467,2.813c4.992,4.346,11.932,7.125,17.662,10.353,4.6,2.594,9.9,6.86,15.483,6.652,4.058-.138,7.286-2.721,10.2-5.269,5.88-5.13,11.632-10.422,17.443-15.633,1.43-1.28-1.868-1.257-2.675-.53q-6.346,5.689-12.693,11.367c-1.983,1.775-3.92,3.643-5.972,5.326-3.585,2.94-8.289,2.5-12.174.392-5.349-2.905-10.618-5.983-15.932-8.969-2.709-1.522-5.937-2.917-8.266-5-1.822-1.626-2.536-3.781-4-5.614a7.207,7.207,0,0,0-6.848-3.02,42.435,42.435,0,0,0-4.934.98c-5.269.922-9.488.081-14.388-1.683-5.707-2.064-8.22-5.073-11.356-10.064-2.571-4.1-11.563-14.169-8.658-19.068-.957.254-1.925.519-2.882.772a124.291,124.291,0,0,0,17.108,9.246c.8.357,2.767.012,3-1.015,1.406-6.11-5.315-12.393-8.554-16.935-4.519-6.352-8.116-11.632-15.46-14.71-7.678-3.216-12.935-7.09-14.63-15.667-.7-3.562-1.257-7.909-5.73-7.77-.726.023-2.421.357-2.329,1.383.6,6.122-2.179,12.117-1.234,18.181.957,6.122,7,8.646,9.592,13.927,6.7,13.638-3.332,27.588-11.356,37.987-.819,1.187,2.525.934,3.182.081Z" transform="translate(-145.439 0.023)" fill="#fff"/></g><g transform="translate(192.508 1.799)"><path d="M177.3,2.912c-5.038-2.709-9.361,1.971-10.03,6.733-.392,2.778-.715,6.318,1.268,8.589,1.683,1.937,4.427,2.525,6.859,2.813,2.306.277,4.9.461,6.79-1.13,2.2-1.845,2.675-5.58,2.825-8.231.346-5.995-3.632-11.4-10.018-9.892-2.052.484-1.51,2.49.542,2.006,4.98-1.176,6.341,5.5,6.087,8.785a18.6,18.6,0,0,1-.819,4.266c-.657,1.971-1.9,2.11-3.735,2.052-3.055-.092-6.064-1.441-6.594-4.715-.323-2.018.069-11.748,4.219-9.511,1.118.634,4.127-.945,2.605-1.764Z" transform="translate(-166.975 -1.538)" fill="#fff"/></g><g transform="translate(59.133 85.051)"><path d="M320.241,180.2a105.213,105.213,0,0,1-1.487,50.9c-4.761,16.751-14.042,31.07-24.763,44.593-10.595,13.362-21.766,26.666-35.612,36.8A115.213,115.213,0,0,1,210.224,332.6c-33.041,5.764-67.073-2.421-95.883-19-24.291-13.984-40.373-36.592-50.68-62.324-5.2-12.993-8.877-27.115-9.085-41.157-.2-13.327-.334-28.187,3.551-41.042,2.433-8.07,7.586-15.483,11.886-22.665A210.952,210.952,0,0,1,85.2,123.98a133.554,133.554,0,0,1,35.3-31.369c29.2-17.731,65.7-22.515,97.878-10.1,14.883,5.741,29.628,14.964,42.333,24.521,13.488,10.145,21.236,23.184,27.323,38.7,5.983,15.241,12.209,30.839,13.085,47.371.9,16.866-3.251,33.64-9.707,49.123-6.4,15.345-14.883,30.758-25.674,43.5-11.379,13.431-26.8,21.916-43.751,26.228a130.125,130.125,0,0,1-92.321-10.618c-24.625-12.854-46.979-35.531-52.248-63.523-6.018-32-1.476-69.921,20.071-95.572,11.356-13.512,26.274-23.415,42.229-30.724,17.189-7.886,36.027-12.728,55-10.664,27.853,3.02,57.124,17.085,70.82,42.517,13.442,24.971,18.838,56.017,11.713,83.617-7.747,30.032-30.17,60.364-62.174,66.255-28.28,5.2-60.894-2.11-84.286-18.872a97.507,97.507,0,0,1-27.772-30.5c-8.3-14.722-9.857-29.571-7.551-46.045,4.427-31.508,31.415-60.571,62.9-66.543,17.558-3.332,35.646.081,51.809,7.275.934.415,4-.968,2.675-1.556-29.836-13.281-63.753-11.552-89.6,9.338C97.67,167,83.041,202.467,94.927,234.447c10.549,28.383,37.03,48.293,65.309,56.721,27.8,8.289,61.032,8.785,84.931-9.673,25.617-19.783,39.97-52.789,38.6-84.92-1.234-28.914-12.3-60.906-36.4-78.3a103.63,103.63,0,0,0-92.24-14.411c-31.738,10.1-62.785,30.62-74.97,62.842S66.635,240.7,87.687,269.54c17.178,23.553,45.077,40.154,73.495,45.815,30.055,5.995,66.451,2.271,92.125-15.437,14.284-9.845,24.014-24.441,32.315-39.393,8.773-15.806,15.794-32.96,18.146-51,2.421-18.6-1.6-35.923-8.058-53.3-6.076-16.348-12.093-33.018-25.317-45.054-6.156-5.6-13.166-10.157-20.221-14.526-7.69-4.761-15.4-9.626-23.645-13.373a110.1,110.1,0,0,0-50.772-9.384c-32.257,1.579-62.577,16.8-84.8,39.958C78.5,126.816,69.126,142.23,60.272,157.77c-8.151,14.319-8.508,30.009-8.946,46.091a119.773,119.773,0,0,0,7.494,44.362c4.819,13.339,11.563,27,20.313,38.217a111.124,111.124,0,0,0,33.41,29.236,158.8,158.8,0,0,0,49.538,18.284c32.661,6.006,67.765.231,95.48-18.526,14.71-9.961,26.47-23.461,37.526-37.2,11.609-14.422,21.893-29.559,27-47.555a106.339,106.339,0,0,0,1.5-51.348c-.231-1.1-3.585-.265-3.343.876Z" transform="translate(-51.284 -73.751)" fill="#fff"/></g><g transform="translate(117.423 147.527)"><path d="M202.461,129.8c14.653,9.281,27.945,20.429,36.257,35.912a89.431,89.431,0,0,1,10.514,44.7c-.45,13.316-4.07,26.781-11.459,37.964-9.649,14.607-24.913,22.17-42.183,23.438-16.578,1.222-36.1-1-50.83-9.027-13.88-7.551-26.862-20.521-34.205-34.563-7.7-14.722-6.364-32.949-1.464-48.432,5.05-15.944,16.013-28.81,31.911-34.678,17.708-6.537,37.353-3.5,54.2,4.139,7.275,3.309,14.215,7.424,19.2,13.823,5.7,7.3,9.442,16.532,11.517,25.5,3.678,15.875,1.349,33.1-8.681,46.276-11.39,14.976-30.159,19.322-47.97,15.644C152.8,247.1,136.4,238.533,129.427,222.439c-6.26-14.457-7.459-34.436,1.914-47.728,11.114-15.737,32.188-19.333,49.031-11.09,6.64,3.251,12.947,7.932,17.2,14.053,4.969,7.136,5.822,16.359,5.568,24.833s-2.225,17.466-8.254,23.726a31.185,31.185,0,0,1-27.842,8.889c-18.169-3.585-28.983-22.089-24.395-39.808,1.406-5.43,4.323-11.494,9.177-14.63,5.43-3.516,14.169-4.173,20.359-2.917A21.939,21.939,0,0,1,189.376,195.7c1.626,10.606-5.972,23.876-17.846,23.484a12.827,12.827,0,0,1-10.145-19.91q2.542-5.24,7.77-.277c-.392,1.222,2.963.8,3.343-.392,2.19-6.8-7-5.845-10.433-3.424a14.378,14.378,0,0,0-3.47,20.048c9.868,13.442,29.432,2.456,33.352-10.341a22.783,22.783,0,0,0-6.341-23.253c-6.617-6.156-15.737-7.148-24.348-5.833s-15.206,4.9-19.287,12.854a34.8,34.8,0,0,0-2.213,26.043c5.061,16.186,22.4,25.536,38.771,22.2a36.384,36.384,0,0,0,20.256-11.39c5.949-6.894,7.736-16.428,7.713-25.305-.023-9.015-1.153-18.019-6.859-25.294a48.315,48.315,0,0,0-22.181-15.3c-16.544-5.614-35.75-1.326-47.152,12.243-12.612,15.022-11.344,40.315-1.591,56.571,9.938,16.555,31.312,24.66,49.9,25.305,17.742.623,34.713-7.217,44.247-22.469,11.4-18.25,9.788-41.249.461-59.995-9.407-18.884-29.536-28.084-49.734-31.023-18.111-2.64-37.722,1.441-51.648,13.834-14.849,13.212-20.279,34.1-20.083,53.366.219,21.351,15.506,39.474,31.98,51.6,16.221,11.944,37.618,15.517,57.435,14.86,17.869-.6,34.92-6.79,46.368-21.005C261.891,222.773,255.25,174.6,229.68,147.5c-7.205-7.643-15.737-13.823-24.579-19.426-.98-.576-4.047.842-2.64,1.718Z" transform="translate(-101.846 -127.944)" fill="#fff"/></g></g></g></svg>